<?xml version="1.0" encoding="utf-8" standalone="no"?>
<!DOCTYPE svg PUBLIC "-//W3C//DTD SVG 1.1//EN"
  "http://www.w3.org/Graphics/SVG/1.1/DTD/svg11.dtd">
<svg xmlns:xlink="http://www.w3.org/1999/xlink" width="1330.56pt" height="288pt" viewBox="0 0 1330.56 288" xmlns="http://www.w3.org/2000/svg" version="1.1">
 <metadata>
  <rdf:RDF xmlns:dc="http://purl.org/dc/elements/1.1/" xmlns:cc="http://creativecommons.org/ns#" xmlns:rdf="http://www.w3.org/1999/02/22-rdf-syntax-ns#">
   <cc:Work>
    <dc:type rdf:resource="http://purl.org/dc/dcmitype/StillImage"/>
    <dc:date>2022-10-31T10:13:16.647765</dc:date>
    <dc:format>image/svg+xml</dc:format>
    <dc:creator>
     <cc:Agent>
      <dc:title>Matplotlib v3.5.1, https://matplotlib.org/</dc:title>
     </cc:Agent>
    </dc:creator>
   </cc:Work>
  </rdf:RDF>
 </metadata>
 <defs>
  <style type="text/css">*{stroke-linejoin: round; stroke-linecap: butt}</style>
 </defs>
 <g id="figure_1">
  <g id="patch_1">
   <path d="M 0 288 
L 1330.56 288 
L 1330.56 0 
L 0 0 
z
" style="fill: #ffffff"/>
  </g>
  <g id="axes_1">
   <g id="patch_2">
    <path d="M 166.32 256.32 
L 390.490435 256.32 
L 390.490435 34.56 
L 166.32 34.56 
z
" style="fill: #ffffff"/>
   </g>
   <g id="matplotlib.axis_1">
    <g id="xtick_1">
     <g id="line2d_1">
      <defs>
       <path id="m5b1b02390c" d="M 0 0 
L 0 3.5 
" style="stroke: #000000; stroke-width: 0.8"/>
      </defs>
      <g>
       <use xlink:href="#m5b1b02390c" x="176.509565" y="256.32" style="stroke: #000000; stroke-width: 0.8"/>
      </g>
     </g>
     <g id="text_1">
      <!-- 0 -->
      <g transform="translate(173.328315 270.918437)scale(0.1 -0.1)">
       <defs>
        <path id="DejaVuSans-30" d="M 2034 4250 
Q 1547 4250 1301 3770 
Q 1056 3291 1056 2328 
Q 1056 1369 1301 889 
Q 1547 409 2034 409 
Q 2525 409 2770 889 
Q 3016 1369 3016 2328 
Q 3016 3291 2770 3770 
Q 2525 4250 2034 4250 
z
M 2034 4750 
Q 2819 4750 3233 4129 
Q 3647 3509 3647 2328 
Q 3647 1150 3233 529 
Q 2819 -91 2034 -91 
Q 1250 -91 836 529 
Q 422 1150 422 2328 
Q 422 3509 836 4129 
Q 1250 4750 2034 4750 
z
" transform="scale(0.015625)"/>
       </defs>
       <use xlink:href="#DejaVuSans-30"/>
      </g>
     </g>
    </g>
    <g id="xtick_2">
     <g id="line2d_2">
      <g>
       <use xlink:href="#m5b1b02390c" x="228.1023" y="256.32" style="stroke: #000000; stroke-width: 0.8"/>
      </g>
     </g>
     <g id="text_2">
      <!-- 20 -->
      <g transform="translate(221.7398 270.918437)scale(0.1 -0.1)">
       <defs>
        <path id="DejaVuSans-32" d="M 1228 531 
L 3431 531 
L 3431 0 
L 469 0 
L 469 531 
Q 828 903 1448 1529 
Q 2069 2156 2228 2338 
Q 2531 2678 2651 2914 
Q 2772 3150 2772 3378 
Q 2772 3750 2511 3984 
Q 2250 4219 1831 4219 
Q 1534 4219 1204 4116 
Q 875 4013 500 3803 
L 500 4441 
Q 881 4594 1212 4672 
Q 1544 4750 1819 4750 
Q 2544 4750 2975 4387 
Q 3406 4025 3406 3419 
Q 3406 3131 3298 2873 
Q 3191 2616 2906 2266 
Q 2828 2175 2409 1742 
Q 1991 1309 1228 531 
z
" transform="scale(0.015625)"/>
       </defs>
       <use xlink:href="#DejaVuSans-32"/>
       <use xlink:href="#DejaVuSans-30" x="63.623047"/>
      </g>
     </g>
    </g>
    <g id="xtick_3">
     <g id="line2d_3">
      <g>
       <use xlink:href="#m5b1b02390c" x="279.695036" y="256.32" style="stroke: #000000; stroke-width: 0.8"/>
      </g>
     </g>
     <g id="text_3">
      <!-- 40 -->
      <g transform="translate(273.332536 270.918437)scale(0.1 -0.1)">
       <defs>
        <path id="DejaVuSans-34" d="M 2419 4116 
L 825 1625 
L 2419 1625 
L 2419 4116 
z
M 2253 4666 
L 3047 4666 
L 3047 1625 
L 3713 1625 
L 3713 1100 
L 3047 1100 
L 3047 0 
L 2419 0 
L 2419 1100 
L 313 1100 
L 313 1709 
L 2253 4666 
z
" transform="scale(0.015625)"/>
       </defs>
       <use xlink:href="#DejaVuSans-34"/>
       <use xlink:href="#DejaVuSans-30" x="63.623047"/>
      </g>
     </g>
    </g>
    <g id="xtick_4">
     <g id="line2d_4">
      <g>
       <use xlink:href="#m5b1b02390c" x="331.287771" y="256.32" style="stroke: #000000; stroke-width: 0.8"/>
      </g>
     </g>
     <g id="text_4">
      <!-- 60 -->
      <g transform="translate(324.925271 270.918437)scale(0.1 -0.1)">
       <defs>
        <path id="DejaVuSans-36" d="M 2113 2584 
Q 1688 2584 1439 2293 
Q 1191 2003 1191 1497 
Q 1191 994 1439 701 
Q 1688 409 2113 409 
Q 2538 409 2786 701 
Q 3034 994 3034 1497 
Q 3034 2003 2786 2293 
Q 2538 2584 2113 2584 
z
M 3366 4563 
L 3366 3988 
Q 3128 4100 2886 4159 
Q 2644 4219 2406 4219 
Q 1781 4219 1451 3797 
Q 1122 3375 1075 2522 
Q 1259 2794 1537 2939 
Q 1816 3084 2150 3084 
Q 2853 3084 3261 2657 
Q 3669 2231 3669 1497 
Q 3669 778 3244 343 
Q 2819 -91 2113 -91 
Q 1303 -91 875 529 
Q 447 1150 447 2328 
Q 447 3434 972 4092 
Q 1497 4750 2381 4750 
Q 2619 4750 2861 4703 
Q 3103 4656 3366 4563 
z
" transform="scale(0.015625)"/>
       </defs>
       <use xlink:href="#DejaVuSans-36"/>
       <use xlink:href="#DejaVuSans-30" x="63.623047"/>
      </g>
     </g>
    </g>
    <g id="xtick_5">
     <g id="line2d_5">
      <g>
       <use xlink:href="#m5b1b02390c" x="382.880506" y="256.32" style="stroke: #000000; stroke-width: 0.8"/>
      </g>
     </g>
     <g id="text_5">
      <!-- 80 -->
      <g transform="translate(376.518006 270.918437)scale(0.1 -0.1)">
       <defs>
        <path id="DejaVuSans-38" d="M 2034 2216 
Q 1584 2216 1326 1975 
Q 1069 1734 1069 1313 
Q 1069 891 1326 650 
Q 1584 409 2034 409 
Q 2484 409 2743 651 
Q 3003 894 3003 1313 
Q 3003 1734 2745 1975 
Q 2488 2216 2034 2216 
z
M 1403 2484 
Q 997 2584 770 2862 
Q 544 3141 544 3541 
Q 544 4100 942 4425 
Q 1341 4750 2034 4750 
Q 2731 4750 3128 4425 
Q 3525 4100 3525 3541 
Q 3525 3141 3298 2862 
Q 3072 2584 2669 2484 
Q 3125 2378 3379 2068 
Q 3634 1759 3634 1313 
Q 3634 634 3220 271 
Q 2806 -91 2034 -91 
Q 1263 -91 848 271 
Q 434 634 434 1313 
Q 434 1759 690 2068 
Q 947 2378 1403 2484 
z
M 1172 3481 
Q 1172 3119 1398 2916 
Q 1625 2713 2034 2713 
Q 2441 2713 2670 2916 
Q 2900 3119 2900 3481 
Q 2900 3844 2670 4047 
Q 2441 4250 2034 4250 
Q 1625 4250 1398 4047 
Q 1172 3844 1172 3481 
z
" transform="scale(0.015625)"/>
       </defs>
       <use xlink:href="#DejaVuSans-38"/>
       <use xlink:href="#DejaVuSans-30" x="63.623047"/>
      </g>
     </g>
    </g>
    <g id="text_6">
     <!-- Model timesteps -->
     <g transform="translate(237.086467 284.596563)scale(0.1 -0.1)">
      <defs>
       <path id="DejaVuSans-4d" d="M 628 4666 
L 1569 4666 
L 2759 1491 
L 3956 4666 
L 4897 4666 
L 4897 0 
L 4281 0 
L 4281 4097 
L 3078 897 
L 2444 897 
L 1241 4097 
L 1241 0 
L 628 0 
L 628 4666 
z
" transform="scale(0.015625)"/>
       <path id="DejaVuSans-6f" d="M 1959 3097 
Q 1497 3097 1228 2736 
Q 959 2375 959 1747 
Q 959 1119 1226 758 
Q 1494 397 1959 397 
Q 2419 397 2687 759 
Q 2956 1122 2956 1747 
Q 2956 2369 2687 2733 
Q 2419 3097 1959 3097 
z
M 1959 3584 
Q 2709 3584 3137 3096 
Q 3566 2609 3566 1747 
Q 3566 888 3137 398 
Q 2709 -91 1959 -91 
Q 1206 -91 779 398 
Q 353 888 353 1747 
Q 353 2609 779 3096 
Q 1206 3584 1959 3584 
z
" transform="scale(0.015625)"/>
       <path id="DejaVuSans-64" d="M 2906 2969 
L 2906 4863 
L 3481 4863 
L 3481 0 
L 2906 0 
L 2906 525 
Q 2725 213 2448 61 
Q 2172 -91 1784 -91 
Q 1150 -91 751 415 
Q 353 922 353 1747 
Q 353 2572 751 3078 
Q 1150 3584 1784 3584 
Q 2172 3584 2448 3432 
Q 2725 3281 2906 2969 
z
M 947 1747 
Q 947 1113 1208 752 
Q 1469 391 1925 391 
Q 2381 391 2643 752 
Q 2906 1113 2906 1747 
Q 2906 2381 2643 2742 
Q 2381 3103 1925 3103 
Q 1469 3103 1208 2742 
Q 947 2381 947 1747 
z
" transform="scale(0.015625)"/>
       <path id="DejaVuSans-65" d="M 3597 1894 
L 3597 1613 
L 953 1613 
Q 991 1019 1311 708 
Q 1631 397 2203 397 
Q 2534 397 2845 478 
Q 3156 559 3463 722 
L 3463 178 
Q 3153 47 2828 -22 
Q 2503 -91 2169 -91 
Q 1331 -91 842 396 
Q 353 884 353 1716 
Q 353 2575 817 3079 
Q 1281 3584 2069 3584 
Q 2775 3584 3186 3129 
Q 3597 2675 3597 1894 
z
M 3022 2063 
Q 3016 2534 2758 2815 
Q 2500 3097 2075 3097 
Q 1594 3097 1305 2825 
Q 1016 2553 972 2059 
L 3022 2063 
z
" transform="scale(0.015625)"/>
       <path id="DejaVuSans-6c" d="M 603 4863 
L 1178 4863 
L 1178 0 
L 603 0 
L 603 4863 
z
" transform="scale(0.015625)"/>
       <path id="DejaVuSans-20" transform="scale(0.015625)"/>
       <path id="DejaVuSans-74" d="M 1172 4494 
L 1172 3500 
L 2356 3500 
L 2356 3053 
L 1172 3053 
L 1172 1153 
Q 1172 725 1289 603 
Q 1406 481 1766 481 
L 2356 481 
L 2356 0 
L 1766 0 
Q 1100 0 847 248 
Q 594 497 594 1153 
L 594 3053 
L 172 3053 
L 172 3500 
L 594 3500 
L 594 4494 
L 1172 4494 
z
" transform="scale(0.015625)"/>
       <path id="DejaVuSans-69" d="M 603 3500 
L 1178 3500 
L 1178 0 
L 603 0 
L 603 3500 
z
M 603 4863 
L 1178 4863 
L 1178 4134 
L 603 4134 
L 603 4863 
z
" transform="scale(0.015625)"/>
       <path id="DejaVuSans-6d" d="M 3328 2828 
Q 3544 3216 3844 3400 
Q 4144 3584 4550 3584 
Q 5097 3584 5394 3201 
Q 5691 2819 5691 2113 
L 5691 0 
L 5113 0 
L 5113 2094 
Q 5113 2597 4934 2840 
Q 4756 3084 4391 3084 
Q 3944 3084 3684 2787 
Q 3425 2491 3425 1978 
L 3425 0 
L 2847 0 
L 2847 2094 
Q 2847 2600 2669 2842 
Q 2491 3084 2119 3084 
Q 1678 3084 1418 2786 
Q 1159 2488 1159 1978 
L 1159 0 
L 581 0 
L 581 3500 
L 1159 3500 
L 1159 2956 
Q 1356 3278 1631 3431 
Q 1906 3584 2284 3584 
Q 2666 3584 2933 3390 
Q 3200 3197 3328 2828 
z
" transform="scale(0.015625)"/>
       <path id="DejaVuSans-73" d="M 2834 3397 
L 2834 2853 
Q 2591 2978 2328 3040 
Q 2066 3103 1784 3103 
Q 1356 3103 1142 2972 
Q 928 2841 928 2578 
Q 928 2378 1081 2264 
Q 1234 2150 1697 2047 
L 1894 2003 
Q 2506 1872 2764 1633 
Q 3022 1394 3022 966 
Q 3022 478 2636 193 
Q 2250 -91 1575 -91 
Q 1294 -91 989 -36 
Q 684 19 347 128 
L 347 722 
Q 666 556 975 473 
Q 1284 391 1588 391 
Q 1994 391 2212 530 
Q 2431 669 2431 922 
Q 2431 1156 2273 1281 
Q 2116 1406 1581 1522 
L 1381 1569 
Q 847 1681 609 1914 
Q 372 2147 372 2553 
Q 372 3047 722 3315 
Q 1072 3584 1716 3584 
Q 2034 3584 2315 3537 
Q 2597 3491 2834 3397 
z
" transform="scale(0.015625)"/>
       <path id="DejaVuSans-70" d="M 1159 525 
L 1159 -1331 
L 581 -1331 
L 581 3500 
L 1159 3500 
L 1159 2969 
Q 1341 3281 1617 3432 
Q 1894 3584 2278 3584 
Q 2916 3584 3314 3078 
Q 3713 2572 3713 1747 
Q 3713 922 3314 415 
Q 2916 -91 2278 -91 
Q 1894 -91 1617 61 
Q 1341 213 1159 525 
z
M 3116 1747 
Q 3116 2381 2855 2742 
Q 2594 3103 2138 3103 
Q 1681 3103 1420 2742 
Q 1159 2381 1159 1747 
Q 1159 1113 1420 752 
Q 1681 391 2138 391 
Q 2594 391 2855 752 
Q 3116 1113 3116 1747 
z
" transform="scale(0.015625)"/>
      </defs>
      <use xlink:href="#DejaVuSans-4d"/>
      <use xlink:href="#DejaVuSans-6f" x="86.279297"/>
      <use xlink:href="#DejaVuSans-64" x="147.460938"/>
      <use xlink:href="#DejaVuSans-65" x="210.9375"/>
      <use xlink:href="#DejaVuSans-6c" x="272.460938"/>
      <use xlink:href="#DejaVuSans-20" x="300.244141"/>
      <use xlink:href="#DejaVuSans-74" x="332.03125"/>
      <use xlink:href="#DejaVuSans-69" x="371.240234"/>
      <use xlink:href="#DejaVuSans-6d" x="399.023438"/>
      <use xlink:href="#DejaVuSans-65" x="496.435547"/>
      <use xlink:href="#DejaVuSans-73" x="557.958984"/>
      <use xlink:href="#DejaVuSans-74" x="610.058594"/>
      <use xlink:href="#DejaVuSans-65" x="649.267578"/>
      <use xlink:href="#DejaVuSans-70" x="710.791016"/>
      <use xlink:href="#DejaVuSans-73" x="774.267578"/>
     </g>
    </g>
   </g>
   <g id="matplotlib.axis_2">
    <g id="ytick_1">
     <g id="line2d_6">
      <defs>
       <path id="m38cdcd1bc9" d="M 0 0 
L -3.5 0 
" style="stroke: #000000; stroke-width: 0.8"/>
      </defs>
      <g>
       <use xlink:href="#m38cdcd1bc9" x="166.32" y="241.744633" style="stroke: #000000; stroke-width: 0.8"/>
      </g>
     </g>
     <g id="text_7">
      <!-- 0.00 -->
      <g transform="translate(137.054375 245.543852)scale(0.1 -0.1)">
       <defs>
        <path id="DejaVuSans-2e" d="M 684 794 
L 1344 794 
L 1344 0 
L 684 0 
L 684 794 
z
" transform="scale(0.015625)"/>
       </defs>
       <use xlink:href="#DejaVuSans-30"/>
       <use xlink:href="#DejaVuSans-2e" x="63.623047"/>
       <use xlink:href="#DejaVuSans-30" x="95.410156"/>
       <use xlink:href="#DejaVuSans-30" x="159.033203"/>
      </g>
     </g>
    </g>
    <g id="ytick_2">
     <g id="line2d_7">
      <g>
       <use xlink:href="#m38cdcd1bc9" x="166.32" y="213.781343" style="stroke: #000000; stroke-width: 0.8"/>
      </g>
     </g>
     <g id="text_8">
      <!-- 0.02 -->
      <g transform="translate(137.054375 217.580562)scale(0.1 -0.1)">
       <use xlink:href="#DejaVuSans-30"/>
       <use xlink:href="#DejaVuSans-2e" x="63.623047"/>
       <use xlink:href="#DejaVuSans-30" x="95.410156"/>
       <use xlink:href="#DejaVuSans-32" x="159.033203"/>
      </g>
     </g>
    </g>
    <g id="ytick_3">
     <g id="line2d_8">
      <g>
       <use xlink:href="#m38cdcd1bc9" x="166.32" y="185.818053" style="stroke: #000000; stroke-width: 0.8"/>
      </g>
     </g>
     <g id="text_9">
      <!-- 0.04 -->
      <g transform="translate(137.054375 189.617272)scale(0.1 -0.1)">
       <use xlink:href="#DejaVuSans-30"/>
       <use xlink:href="#DejaVuSans-2e" x="63.623047"/>
       <use xlink:href="#DejaVuSans-30" x="95.410156"/>
       <use xlink:href="#DejaVuSans-34" x="159.033203"/>
      </g>
     </g>
    </g>
    <g id="ytick_4">
     <g id="line2d_9">
      <g>
       <use xlink:href="#m38cdcd1bc9" x="166.32" y="157.854763" style="stroke: #000000; stroke-width: 0.8"/>
      </g>
     </g>
     <g id="text_10">
      <!-- 0.06 -->
      <g transform="translate(137.054375 161.653982)scale(0.1 -0.1)">
       <use xlink:href="#DejaVuSans-30"/>
       <use xlink:href="#DejaVuSans-2e" x="63.623047"/>
       <use xlink:href="#DejaVuSans-30" x="95.410156"/>
       <use xlink:href="#DejaVuSans-36" x="159.033203"/>
      </g>
     </g>
    </g>
    <g id="ytick_5">
     <g id="line2d_10">
      <g>
       <use xlink:href="#m38cdcd1bc9" x="166.32" y="129.891474" style="stroke: #000000; stroke-width: 0.8"/>
      </g>
     </g>
     <g id="text_11">
      <!-- 0.08 -->
      <g transform="translate(137.054375 133.690692)scale(0.1 -0.1)">
       <use xlink:href="#DejaVuSans-30"/>
       <use xlink:href="#DejaVuSans-2e" x="63.623047"/>
       <use xlink:href="#DejaVuSans-30" x="95.410156"/>
       <use xlink:href="#DejaVuSans-38" x="159.033203"/>
      </g>
     </g>
    </g>
    <g id="ytick_6">
     <g id="line2d_11">
      <g>
       <use xlink:href="#m38cdcd1bc9" x="166.32" y="101.928184" style="stroke: #000000; stroke-width: 0.8"/>
      </g>
     </g>
     <g id="text_12">
      <!-- 0.10 -->
      <g transform="translate(137.054375 105.727402)scale(0.1 -0.1)">
       <defs>
        <path id="DejaVuSans-31" d="M 794 531 
L 1825 531 
L 1825 4091 
L 703 3866 
L 703 4441 
L 1819 4666 
L 2450 4666 
L 2450 531 
L 3481 531 
L 3481 0 
L 794 0 
L 794 531 
z
" transform="scale(0.015625)"/>
       </defs>
       <use xlink:href="#DejaVuSans-30"/>
       <use xlink:href="#DejaVuSans-2e" x="63.623047"/>
       <use xlink:href="#DejaVuSans-31" x="95.410156"/>
       <use xlink:href="#DejaVuSans-30" x="159.033203"/>
      </g>
     </g>
    </g>
    <g id="ytick_7">
     <g id="line2d_12">
      <g>
       <use xlink:href="#m38cdcd1bc9" x="166.32" y="73.964894" style="stroke: #000000; stroke-width: 0.8"/>
      </g>
     </g>
     <g id="text_13">
      <!-- 0.12 -->
      <g transform="translate(137.054375 77.764113)scale(0.1 -0.1)">
       <use xlink:href="#DejaVuSans-30"/>
       <use xlink:href="#DejaVuSans-2e" x="63.623047"/>
       <use xlink:href="#DejaVuSans-31" x="95.410156"/>
       <use xlink:href="#DejaVuSans-32" x="159.033203"/>
      </g>
     </g>
    </g>
    <g id="ytick_8">
     <g id="line2d_13">
      <g>
       <use xlink:href="#m38cdcd1bc9" x="166.32" y="46.001604" style="stroke: #000000; stroke-width: 0.8"/>
      </g>
     </g>
     <g id="text_14">
      <!-- 0.14 -->
      <g transform="translate(137.054375 49.800823)scale(0.1 -0.1)">
       <use xlink:href="#DejaVuSans-30"/>
       <use xlink:href="#DejaVuSans-2e" x="63.623047"/>
       <use xlink:href="#DejaVuSans-31" x="95.410156"/>
       <use xlink:href="#DejaVuSans-34" x="159.033203"/>
      </g>
     </g>
    </g>
    <g id="text_15">
     <!-- Model output (a.u.) -->
     <g transform="translate(130.974687 193.435313)rotate(-90)scale(0.1 -0.1)">
      <defs>
       <path id="DejaVuSans-75" d="M 544 1381 
L 544 3500 
L 1119 3500 
L 1119 1403 
Q 1119 906 1312 657 
Q 1506 409 1894 409 
Q 2359 409 2629 706 
Q 2900 1003 2900 1516 
L 2900 3500 
L 3475 3500 
L 3475 0 
L 2900 0 
L 2900 538 
Q 2691 219 2414 64 
Q 2138 -91 1772 -91 
Q 1169 -91 856 284 
Q 544 659 544 1381 
z
M 1991 3584 
L 1991 3584 
z
" transform="scale(0.015625)"/>
       <path id="DejaVuSans-28" d="M 1984 4856 
Q 1566 4138 1362 3434 
Q 1159 2731 1159 2009 
Q 1159 1288 1364 580 
Q 1569 -128 1984 -844 
L 1484 -844 
Q 1016 -109 783 600 
Q 550 1309 550 2009 
Q 550 2706 781 3412 
Q 1013 4119 1484 4856 
L 1984 4856 
z
" transform="scale(0.015625)"/>
       <path id="DejaVuSans-61" d="M 2194 1759 
Q 1497 1759 1228 1600 
Q 959 1441 959 1056 
Q 959 750 1161 570 
Q 1363 391 1709 391 
Q 2188 391 2477 730 
Q 2766 1069 2766 1631 
L 2766 1759 
L 2194 1759 
z
M 3341 1997 
L 3341 0 
L 2766 0 
L 2766 531 
Q 2569 213 2275 61 
Q 1981 -91 1556 -91 
Q 1019 -91 701 211 
Q 384 513 384 1019 
Q 384 1609 779 1909 
Q 1175 2209 1959 2209 
L 2766 2209 
L 2766 2266 
Q 2766 2663 2505 2880 
Q 2244 3097 1772 3097 
Q 1472 3097 1187 3025 
Q 903 2953 641 2809 
L 641 3341 
Q 956 3463 1253 3523 
Q 1550 3584 1831 3584 
Q 2591 3584 2966 3190 
Q 3341 2797 3341 1997 
z
" transform="scale(0.015625)"/>
       <path id="DejaVuSans-29" d="M 513 4856 
L 1013 4856 
Q 1481 4119 1714 3412 
Q 1947 2706 1947 2009 
Q 1947 1309 1714 600 
Q 1481 -109 1013 -844 
L 513 -844 
Q 928 -128 1133 580 
Q 1338 1288 1338 2009 
Q 1338 2731 1133 3434 
Q 928 4138 513 4856 
z
" transform="scale(0.015625)"/>
      </defs>
      <use xlink:href="#DejaVuSans-4d"/>
      <use xlink:href="#DejaVuSans-6f" x="86.279297"/>
      <use xlink:href="#DejaVuSans-64" x="147.460938"/>
      <use xlink:href="#DejaVuSans-65" x="210.9375"/>
      <use xlink:href="#DejaVuSans-6c" x="272.460938"/>
      <use xlink:href="#DejaVuSans-20" x="300.244141"/>
      <use xlink:href="#DejaVuSans-6f" x="332.03125"/>
      <use xlink:href="#DejaVuSans-75" x="393.212891"/>
      <use xlink:href="#DejaVuSans-74" x="456.591797"/>
      <use xlink:href="#DejaVuSans-70" x="495.800781"/>
      <use xlink:href="#DejaVuSans-75" x="559.277344"/>
      <use xlink:href="#DejaVuSans-74" x="622.65625"/>
      <use xlink:href="#DejaVuSans-20" x="661.865234"/>
      <use xlink:href="#DejaVuSans-28" x="693.652344"/>
      <use xlink:href="#DejaVuSans-61" x="732.666016"/>
      <use xlink:href="#DejaVuSans-2e" x="793.945312"/>
      <use xlink:href="#DejaVuSans-75" x="825.732422"/>
      <use xlink:href="#DejaVuSans-2e" x="889.111328"/>
      <use xlink:href="#DejaVuSans-29" x="920.898438"/>
     </g>
    </g>
   </g>
   <g id="line2d_14">
    <path d="M 176.509565 177.68589 
L 179.089202 177.68589 
L 181.668839 177.68589 
L 184.248476 177.68589 
L 186.828112 177.68589 
L 189.407749 177.68589 
L 191.987386 177.68589 
L 194.567023 177.68589 
L 197.146659 177.68589 
L 199.726296 177.68589 
L 202.305933 177.68589 
L 204.88557 177.68589 
L 207.465206 177.68589 
L 210.044843 177.68589 
L 212.62448 177.68589 
L 215.204117 177.68589 
L 217.783753 177.68589 
L 220.36339 177.68589 
L 222.943027 177.68589 
L 225.522664 177.68589 
L 228.1023 125.434504 
L 230.681937 125.434504 
L 233.261574 125.434504 
L 235.841211 125.434504 
L 238.420848 125.434504 
L 241.000484 125.434504 
L 243.580121 125.434504 
L 246.159758 125.434504 
L 248.739395 125.434504 
L 251.319031 125.434504 
L 253.898668 125.434504 
L 256.478305 125.434504 
L 259.057942 125.434504 
L 261.637578 125.434504 
L 264.217215 125.434504 
L 266.796852 125.434504 
L 269.376489 125.434504 
L 271.956125 125.434504 
L 274.535762 125.434504 
L 277.115399 125.434504 
L 279.695036 177.68589 
L 282.274673 177.68589 
L 284.854309 177.68589 
L 287.433946 177.68589 
L 290.013583 177.68589 
L 292.59322 177.68589 
L 295.172856 177.68589 
L 297.752493 177.68589 
L 300.33213 177.68589 
L 302.911767 177.68589 
L 305.491403 177.68589 
L 308.07104 177.68589 
L 310.650677 177.68589 
L 313.230314 177.68589 
L 315.80995 177.68589 
L 318.389587 44.64 
L 320.969224 44.64 
L 323.548861 44.64 
L 326.128498 44.64 
L 328.708134 44.64 
L 331.287771 44.64 
L 333.867408 44.64 
L 336.447045 44.64 
L 339.026681 44.64 
L 341.606318 44.64 
L 344.185955 44.64 
L 346.765592 44.64 
L 349.345228 44.64 
L 351.924865 44.64 
L 354.504502 44.64 
L 357.084139 44.64 
L 359.663775 44.64 
L 362.243412 44.64 
L 364.823049 44.64 
L 367.402686 44.64 
L 369.982323 177.68589 
L 372.561959 177.68589 
L 375.141596 177.68589 
L 377.721233 177.68589 
L 380.30087 177.68589 
" clip-path="url(#p67441d2a9c)" style="fill: none; stroke: #0d0887; stroke-width: 3; stroke-linecap: square"/>
   </g>
   <g id="line2d_15">
    <path d="M 176.509565 196.477458 
L 179.089202 196.477458 
L 181.668839 196.477458 
L 184.248476 196.477458 
L 186.828112 196.477458 
L 189.407749 196.477458 
L 191.987386 196.477458 
L 194.567023 196.477458 
L 197.146659 196.477458 
L 199.726296 196.477458 
L 202.305933 196.477458 
L 204.88557 196.477458 
L 207.465206 196.477458 
L 210.044843 196.477458 
L 212.62448 196.477458 
L 215.204117 196.477458 
L 217.783753 196.477458 
L 220.36339 196.477458 
L 222.943027 196.477458 
L 225.522664 196.477458 
L 228.1023 173.298395 
L 230.681937 173.298395 
L 233.261574 173.298395 
L 235.841211 173.298395 
L 238.420848 173.298395 
L 241.000484 173.298395 
L 243.580121 173.298395 
L 246.159758 173.298395 
L 248.739395 173.298395 
L 251.319031 173.298395 
L 253.898668 173.298395 
L 256.478305 173.298395 
L 259.057942 173.298395 
L 261.637578 173.298395 
L 264.217215 173.298395 
L 266.796852 173.298395 
L 269.376489 173.298395 
L 271.956125 173.298395 
L 274.535762 173.298395 
L 277.115399 173.298395 
L 279.695036 196.477458 
L 282.274673 196.477458 
L 284.854309 196.477458 
L 287.433946 196.477458 
L 290.013583 196.477458 
L 292.59322 196.477458 
L 295.172856 196.477458 
L 297.752493 196.477458 
L 300.33213 196.477458 
L 302.911767 196.477458 
L 305.491403 196.477458 
L 308.07104 196.477458 
L 310.650677 196.477458 
L 313.230314 196.477458 
L 315.80995 196.477458 
L 318.389587 120.378869 
L 320.969224 120.378869 
L 323.548861 120.378869 
L 326.128498 120.378869 
L 328.708134 120.378869 
L 331.287771 120.378869 
L 333.867408 120.378869 
L 336.447045 120.378869 
L 339.026681 120.378869 
L 341.606318 120.378869 
L 344.185955 120.378869 
L 346.765592 120.378869 
L 349.345228 120.378869 
L 351.924865 120.378869 
L 354.504502 120.378869 
L 357.084139 120.378869 
L 359.663775 120.378869 
L 362.243412 120.378869 
L 364.823049 120.378869 
L 367.402686 120.378869 
L 369.982323 196.477458 
L 372.561959 196.477458 
L 375.141596 196.477458 
L 377.721233 196.477458 
L 380.30087 196.477458 
" clip-path="url(#p67441d2a9c)" style="fill: none; stroke: #9c179e; stroke-width: 3; stroke-linecap: square"/>
   </g>
   <g id="line2d_16">
    <path d="M 176.509565 206.354065 
L 179.089202 206.354065 
L 181.668839 206.354065 
L 184.248476 206.354065 
L 186.828112 206.354065 
L 189.407749 206.354065 
L 191.987386 206.354065 
L 194.567023 206.354065 
L 197.146659 206.354065 
L 199.726296 206.354065 
L 202.305933 206.354065 
L 204.88557 206.354065 
L 207.465206 206.354065 
L 210.044843 206.354065 
L 212.62448 206.354065 
L 215.204117 206.354065 
L 217.783753 206.354065 
L 220.36339 206.354065 
L 222.943027 206.354065 
L 225.522664 206.354065 
L 228.1023 201.092437 
L 230.681937 201.092437 
L 233.261574 201.092437 
L 235.841211 201.092437 
L 238.420848 201.092437 
L 241.000484 201.092437 
L 243.580121 201.092437 
L 246.159758 201.092437 
L 248.739395 201.092437 
L 251.319031 201.092437 
L 253.898668 201.092437 
L 256.478305 201.092437 
L 259.057942 201.092437 
L 261.637578 201.092437 
L 264.217215 201.092437 
L 266.796852 201.092437 
L 269.376489 201.092437 
L 271.956125 201.092437 
L 274.535762 201.092437 
L 277.115399 201.092437 
L 279.695036 206.354065 
L 282.274673 206.354065 
L 284.854309 206.354065 
L 287.433946 206.354065 
L 290.013583 206.354065 
L 292.59322 206.354065 
L 295.172856 206.354065 
L 297.752493 206.354065 
L 300.33213 206.354065 
L 302.911767 206.354065 
L 305.491403 206.354065 
L 308.07104 206.354065 
L 310.650677 206.354065 
L 313.230314 206.354065 
L 315.80995 206.354065 
L 318.389587 188.802038 
L 320.969224 188.802038 
L 323.548861 188.802038 
L 326.128498 188.802038 
L 328.708134 188.802038 
L 331.287771 188.802038 
L 333.867408 188.802038 
L 336.447045 188.802038 
L 339.026681 188.802038 
L 341.606318 188.802038 
L 344.185955 188.802038 
L 346.765592 188.802038 
L 349.345228 188.802038 
L 351.924865 188.802038 
L 354.504502 188.802038 
L 357.084139 188.802038 
L 359.663775 188.802038 
L 362.243412 188.802038 
L 364.823049 188.802038 
L 367.402686 188.802038 
L 369.982323 206.354065 
L 372.561959 206.354065 
L 375.141596 206.354065 
L 377.721233 206.354065 
L 380.30087 206.354065 
" clip-path="url(#p67441d2a9c)" style="fill: none; stroke: #ed7953; stroke-width: 3; stroke-linecap: square"/>
   </g>
   <g id="line2d_17">
    <path d="M 176.509565 242.228545 
L 179.089202 240.621822 
L 181.668839 243.803851 
L 184.248476 241.186592 
L 186.828112 244.409902 
L 189.407749 243.762855 
L 191.987386 243.734195 
L 194.567023 243.357068 
L 197.146659 246.24 
L 199.726296 242.3824 
L 202.305933 242.886761 
L 204.88557 244.029296 
L 207.465206 242.009987 
L 210.044843 242.222733 
L 212.62448 241.772494 
L 215.204117 242.352997 
L 217.783753 243.967348 
L 220.36339 243.506025 
L 222.943027 242.188572 
L 225.522664 240.913264 
L 228.1023 241.925673 
L 230.681937 241.097407 
L 233.261574 239.729557 
L 235.841211 242.584464 
L 238.420848 242.000313 
L 241.000484 241.837349 
L 243.580121 240.991831 
L 246.159758 242.012766 
L 248.739395 243.361183 
L 251.319031 242.349865 
L 253.898668 238.653749 
L 256.478305 241.857265 
L 259.057942 239.704703 
L 261.637578 242.862007 
L 264.217215 239.385275 
L 266.796852 243.215123 
L 269.376489 242.510419 
L 271.956125 241.866929 
L 274.535762 244.369608 
L 277.115399 242.674003 
L 279.695036 243.945661 
L 282.274673 242.263512 
L 284.854309 245.963104 
L 287.433946 244.63998 
L 290.013583 241.864909 
L 292.59322 241.184058 
L 295.172856 245.383348 
L 297.752493 242.139055 
L 300.33213 242.930472 
L 302.911767 241.769872 
L 305.491403 241.623699 
L 308.07104 241.617959 
L 310.650677 243.271265 
L 313.230314 242.495915 
L 315.80995 243.159085 
L 318.389587 238.098246 
L 320.969224 245.94277 
L 323.548861 243.116207 
L 326.128498 239.869652 
L 328.708134 242.511539 
L 331.287771 243.442555 
L 333.867408 238.938163 
L 336.447045 246.229429 
L 339.026681 242.698496 
L 341.606318 239.77081 
L 344.185955 240.408388 
L 346.765592 241.711926 
L 349.345228 244.723172 
L 351.924865 242.076573 
L 354.504502 240.774781 
L 357.084139 240.478299 
L 359.663775 241.463785 
L 362.243412 242.802412 
L 364.823049 240.993071 
L 367.402686 241.208571 
L 369.982323 243.916604 
L 372.561959 244.786902 
L 375.141596 242.909469 
L 377.721233 242.981908 
L 380.30087 242.520772 
" clip-path="url(#p67441d2a9c)" style="fill: none; stroke: #f0f921; stroke-width: 3; stroke-linecap: square"/>
   </g>
   <g id="patch_3">
    <path d="M 166.32 256.32 
L 166.32 34.56 
" style="fill: none; stroke: #000000; stroke-width: 0.8; stroke-linejoin: miter; stroke-linecap: square"/>
   </g>
   <g id="patch_4">
    <path d="M 390.490435 256.32 
L 390.490435 34.56 
" style="fill: none; stroke: #000000; stroke-width: 0.8; stroke-linejoin: miter; stroke-linecap: square"/>
   </g>
   <g id="patch_5">
    <path d="M 166.32 256.32 
L 390.490435 256.32 
" style="fill: none; stroke: #000000; stroke-width: 0.8; stroke-linejoin: miter; stroke-linecap: square"/>
   </g>
   <g id="patch_6">
    <path d="M 166.32 34.56 
L 390.490435 34.56 
" style="fill: none; stroke: #000000; stroke-width: 0.8; stroke-linejoin: miter; stroke-linecap: square"/>
   </g>
   <g id="text_16">
    <!-- Feedforward -->
    <g transform="translate(241.087092 28.56)scale(0.12 -0.12)">
     <defs>
      <path id="DejaVuSans-46" d="M 628 4666 
L 3309 4666 
L 3309 4134 
L 1259 4134 
L 1259 2759 
L 3109 2759 
L 3109 2228 
L 1259 2228 
L 1259 0 
L 628 0 
L 628 4666 
z
" transform="scale(0.015625)"/>
      <path id="DejaVuSans-66" d="M 2375 4863 
L 2375 4384 
L 1825 4384 
Q 1516 4384 1395 4259 
Q 1275 4134 1275 3809 
L 1275 3500 
L 2222 3500 
L 2222 3053 
L 1275 3053 
L 1275 0 
L 697 0 
L 697 3053 
L 147 3053 
L 147 3500 
L 697 3500 
L 697 3744 
Q 697 4328 969 4595 
Q 1241 4863 1831 4863 
L 2375 4863 
z
" transform="scale(0.015625)"/>
      <path id="DejaVuSans-72" d="M 2631 2963 
Q 2534 3019 2420 3045 
Q 2306 3072 2169 3072 
Q 1681 3072 1420 2755 
Q 1159 2438 1159 1844 
L 1159 0 
L 581 0 
L 581 3500 
L 1159 3500 
L 1159 2956 
Q 1341 3275 1631 3429 
Q 1922 3584 2338 3584 
Q 2397 3584 2469 3576 
Q 2541 3569 2628 3553 
L 2631 2963 
z
" transform="scale(0.015625)"/>
      <path id="DejaVuSans-77" d="M 269 3500 
L 844 3500 
L 1563 769 
L 2278 3500 
L 2956 3500 
L 3675 769 
L 4391 3500 
L 4966 3500 
L 4050 0 
L 3372 0 
L 2619 2869 
L 1863 0 
L 1184 0 
L 269 3500 
z
" transform="scale(0.015625)"/>
     </defs>
     <use xlink:href="#DejaVuSans-46"/>
     <use xlink:href="#DejaVuSans-65" x="52.019531"/>
     <use xlink:href="#DejaVuSans-65" x="113.542969"/>
     <use xlink:href="#DejaVuSans-64" x="175.066406"/>
     <use xlink:href="#DejaVuSans-66" x="238.542969"/>
     <use xlink:href="#DejaVuSans-6f" x="273.748047"/>
     <use xlink:href="#DejaVuSans-72" x="334.929688"/>
     <use xlink:href="#DejaVuSans-77" x="376.042969"/>
     <use xlink:href="#DejaVuSans-61" x="457.830078"/>
     <use xlink:href="#DejaVuSans-72" x="519.109375"/>
     <use xlink:href="#DejaVuSans-64" x="558.472656"/>
    </g>
   </g>
   <g id="legend_1">
    <g id="patch_7">
     <path d="M 173.32 101.2725 
L 235.555937 101.2725 
Q 237.555937 101.2725 237.555937 99.2725 
L 237.555937 41.56 
Q 237.555937 39.56 235.555937 39.56 
L 173.32 39.56 
Q 171.32 39.56 171.32 41.56 
L 171.32 99.2725 
Q 171.32 101.2725 173.32 101.2725 
z
" style="fill: #ffffff; opacity: 0.8; stroke: #cccccc; stroke-linejoin: miter"/>
    </g>
    <g id="line2d_18">
     <path d="M 175.32 47.658438 
L 185.32 47.658438 
L 195.32 47.658438 
" style="fill: none; stroke: #0d0887; stroke-width: 3; stroke-linecap: square"/>
    </g>
    <g id="text_17">
     <!-- conv1 -->
     <g transform="translate(203.32 51.158438)scale(0.1 -0.1)">
      <defs>
       <path id="DejaVuSans-63" d="M 3122 3366 
L 3122 2828 
Q 2878 2963 2633 3030 
Q 2388 3097 2138 3097 
Q 1578 3097 1268 2742 
Q 959 2388 959 1747 
Q 959 1106 1268 751 
Q 1578 397 2138 397 
Q 2388 397 2633 464 
Q 2878 531 3122 666 
L 3122 134 
Q 2881 22 2623 -34 
Q 2366 -91 2075 -91 
Q 1284 -91 818 406 
Q 353 903 353 1747 
Q 353 2603 823 3093 
Q 1294 3584 2113 3584 
Q 2378 3584 2631 3529 
Q 2884 3475 3122 3366 
z
" transform="scale(0.015625)"/>
       <path id="DejaVuSans-6e" d="M 3513 2113 
L 3513 0 
L 2938 0 
L 2938 2094 
Q 2938 2591 2744 2837 
Q 2550 3084 2163 3084 
Q 1697 3084 1428 2787 
Q 1159 2491 1159 1978 
L 1159 0 
L 581 0 
L 581 3500 
L 1159 3500 
L 1159 2956 
Q 1366 3272 1645 3428 
Q 1925 3584 2291 3584 
Q 2894 3584 3203 3211 
Q 3513 2838 3513 2113 
z
" transform="scale(0.015625)"/>
       <path id="DejaVuSans-76" d="M 191 3500 
L 800 3500 
L 1894 563 
L 2988 3500 
L 3597 3500 
L 2284 0 
L 1503 0 
L 191 3500 
z
" transform="scale(0.015625)"/>
      </defs>
      <use xlink:href="#DejaVuSans-63"/>
      <use xlink:href="#DejaVuSans-6f" x="54.980469"/>
      <use xlink:href="#DejaVuSans-6e" x="116.162109"/>
      <use xlink:href="#DejaVuSans-76" x="179.541016"/>
      <use xlink:href="#DejaVuSans-31" x="238.720703"/>
     </g>
    </g>
    <g id="line2d_19">
     <path d="M 175.32 62.336563 
L 185.32 62.336563 
L 195.32 62.336563 
" style="fill: none; stroke: #9c179e; stroke-width: 3; stroke-linecap: square"/>
    </g>
    <g id="text_18">
     <!-- conv2 -->
     <g transform="translate(203.32 65.836563)scale(0.1 -0.1)">
      <use xlink:href="#DejaVuSans-63"/>
      <use xlink:href="#DejaVuSans-6f" x="54.980469"/>
      <use xlink:href="#DejaVuSans-6e" x="116.162109"/>
      <use xlink:href="#DejaVuSans-76" x="179.541016"/>
      <use xlink:href="#DejaVuSans-32" x="238.720703"/>
     </g>
    </g>
    <g id="line2d_20">
     <path d="M 175.32 77.014688 
L 185.32 77.014688 
L 195.32 77.014688 
" style="fill: none; stroke: #ed7953; stroke-width: 3; stroke-linecap: square"/>
    </g>
    <g id="text_19">
     <!-- conv3 -->
     <g transform="translate(203.32 80.514688)scale(0.1 -0.1)">
      <defs>
       <path id="DejaVuSans-33" d="M 2597 2516 
Q 3050 2419 3304 2112 
Q 3559 1806 3559 1356 
Q 3559 666 3084 287 
Q 2609 -91 1734 -91 
Q 1441 -91 1130 -33 
Q 819 25 488 141 
L 488 750 
Q 750 597 1062 519 
Q 1375 441 1716 441 
Q 2309 441 2620 675 
Q 2931 909 2931 1356 
Q 2931 1769 2642 2001 
Q 2353 2234 1838 2234 
L 1294 2234 
L 1294 2753 
L 1863 2753 
Q 2328 2753 2575 2939 
Q 2822 3125 2822 3475 
Q 2822 3834 2567 4026 
Q 2313 4219 1838 4219 
Q 1578 4219 1281 4162 
Q 984 4106 628 3988 
L 628 4550 
Q 988 4650 1302 4700 
Q 1616 4750 1894 4750 
Q 2613 4750 3031 4423 
Q 3450 4097 3450 3541 
Q 3450 3153 3228 2886 
Q 3006 2619 2597 2516 
z
" transform="scale(0.015625)"/>
      </defs>
      <use xlink:href="#DejaVuSans-63"/>
      <use xlink:href="#DejaVuSans-6f" x="54.980469"/>
      <use xlink:href="#DejaVuSans-6e" x="116.162109"/>
      <use xlink:href="#DejaVuSans-76" x="179.541016"/>
      <use xlink:href="#DejaVuSans-33" x="238.720703"/>
     </g>
    </g>
    <g id="line2d_21">
     <path d="M 175.32 91.692813 
L 185.32 91.692813 
L 195.32 91.692813 
" style="fill: none; stroke: #f0f921; stroke-width: 3; stroke-linecap: square"/>
    </g>
    <g id="text_20">
     <!-- fc1 -->
     <g transform="translate(203.32 95.192813)scale(0.1 -0.1)">
      <use xlink:href="#DejaVuSans-66"/>
      <use xlink:href="#DejaVuSans-63" x="35.205078"/>
      <use xlink:href="#DejaVuSans-31" x="90.185547"/>
     </g>
    </g>
   </g>
  </g>
  <g id="axes_2">
   <g id="patch_8">
    <path d="M 435.324522 256.32 
L 659.494957 256.32 
L 659.494957 34.56 
L 435.324522 34.56 
z
" style="fill: #ffffff"/>
   </g>
   <g id="matplotlib.axis_3">
    <g id="xtick_6">
     <g id="line2d_22">
      <g>
       <use xlink:href="#m5b1b02390c" x="445.514087" y="256.32" style="stroke: #000000; stroke-width: 0.8"/>
      </g>
     </g>
     <g id="text_21">
      <!-- 0 -->
      <g transform="translate(442.332837 270.918437)scale(0.1 -0.1)">
       <use xlink:href="#DejaVuSans-30"/>
      </g>
     </g>
    </g>
    <g id="xtick_7">
     <g id="line2d_23">
      <g>
       <use xlink:href="#m5b1b02390c" x="497.106822" y="256.32" style="stroke: #000000; stroke-width: 0.8"/>
      </g>
     </g>
     <g id="text_22">
      <!-- 20 -->
      <g transform="translate(490.744322 270.918437)scale(0.1 -0.1)">
       <use xlink:href="#DejaVuSans-32"/>
       <use xlink:href="#DejaVuSans-30" x="63.623047"/>
      </g>
     </g>
    </g>
    <g id="xtick_8">
     <g id="line2d_24">
      <g>
       <use xlink:href="#m5b1b02390c" x="548.699558" y="256.32" style="stroke: #000000; stroke-width: 0.8"/>
      </g>
     </g>
     <g id="text_23">
      <!-- 40 -->
      <g transform="translate(542.337058 270.918437)scale(0.1 -0.1)">
       <use xlink:href="#DejaVuSans-34"/>
       <use xlink:href="#DejaVuSans-30" x="63.623047"/>
      </g>
     </g>
    </g>
    <g id="xtick_9">
     <g id="line2d_25">
      <g>
       <use xlink:href="#m5b1b02390c" x="600.292293" y="256.32" style="stroke: #000000; stroke-width: 0.8"/>
      </g>
     </g>
     <g id="text_24">
      <!-- 60 -->
      <g transform="translate(593.929793 270.918437)scale(0.1 -0.1)">
       <use xlink:href="#DejaVuSans-36"/>
       <use xlink:href="#DejaVuSans-30" x="63.623047"/>
      </g>
     </g>
    </g>
    <g id="xtick_10">
     <g id="line2d_26">
      <g>
       <use xlink:href="#m5b1b02390c" x="651.885028" y="256.32" style="stroke: #000000; stroke-width: 0.8"/>
      </g>
     </g>
     <g id="text_25">
      <!-- 80 -->
      <g transform="translate(645.522528 270.918437)scale(0.1 -0.1)">
       <use xlink:href="#DejaVuSans-38"/>
       <use xlink:href="#DejaVuSans-30" x="63.623047"/>
      </g>
     </g>
    </g>
    <g id="text_26">
     <!-- Model timesteps -->
     <g transform="translate(506.090989 284.596563)scale(0.1 -0.1)">
      <use xlink:href="#DejaVuSans-4d"/>
      <use xlink:href="#DejaVuSans-6f" x="86.279297"/>
      <use xlink:href="#DejaVuSans-64" x="147.460938"/>
      <use xlink:href="#DejaVuSans-65" x="210.9375"/>
      <use xlink:href="#DejaVuSans-6c" x="272.460938"/>
      <use xlink:href="#DejaVuSans-20" x="300.244141"/>
      <use xlink:href="#DejaVuSans-74" x="332.03125"/>
      <use xlink:href="#DejaVuSans-69" x="371.240234"/>
      <use xlink:href="#DejaVuSans-6d" x="399.023438"/>
      <use xlink:href="#DejaVuSans-65" x="496.435547"/>
      <use xlink:href="#DejaVuSans-73" x="557.958984"/>
      <use xlink:href="#DejaVuSans-74" x="610.058594"/>
      <use xlink:href="#DejaVuSans-65" x="649.267578"/>
      <use xlink:href="#DejaVuSans-70" x="710.791016"/>
      <use xlink:href="#DejaVuSans-73" x="774.267578"/>
     </g>
    </g>
   </g>
   <g id="matplotlib.axis_4">
    <g id="ytick_9">
     <g id="line2d_27">
      <g>
       <use xlink:href="#m38cdcd1bc9" x="435.324522" y="245.000717" style="stroke: #000000; stroke-width: 0.8"/>
      </g>
     </g>
     <g id="text_27">
      <!-- 0.00 -->
      <g transform="translate(406.058897 248.799936)scale(0.1 -0.1)">
       <use xlink:href="#DejaVuSans-30"/>
       <use xlink:href="#DejaVuSans-2e" x="63.623047"/>
       <use xlink:href="#DejaVuSans-30" x="95.410156"/>
       <use xlink:href="#DejaVuSans-30" x="159.033203"/>
      </g>
     </g>
    </g>
    <g id="ytick_10">
     <g id="line2d_28">
      <g>
       <use xlink:href="#m38cdcd1bc9" x="435.324522" y="210.872301" style="stroke: #000000; stroke-width: 0.8"/>
      </g>
     </g>
     <g id="text_28">
      <!-- 0.05 -->
      <g transform="translate(406.058897 214.67152)scale(0.1 -0.1)">
       <defs>
        <path id="DejaVuSans-35" d="M 691 4666 
L 3169 4666 
L 3169 4134 
L 1269 4134 
L 1269 2991 
Q 1406 3038 1543 3061 
Q 1681 3084 1819 3084 
Q 2600 3084 3056 2656 
Q 3513 2228 3513 1497 
Q 3513 744 3044 326 
Q 2575 -91 1722 -91 
Q 1428 -91 1123 -41 
Q 819 9 494 109 
L 494 744 
Q 775 591 1075 516 
Q 1375 441 1709 441 
Q 2250 441 2565 725 
Q 2881 1009 2881 1497 
Q 2881 1984 2565 2268 
Q 2250 2553 1709 2553 
Q 1456 2553 1204 2497 
Q 953 2441 691 2322 
L 691 4666 
z
" transform="scale(0.015625)"/>
       </defs>
       <use xlink:href="#DejaVuSans-30"/>
       <use xlink:href="#DejaVuSans-2e" x="63.623047"/>
       <use xlink:href="#DejaVuSans-30" x="95.410156"/>
       <use xlink:href="#DejaVuSans-35" x="159.033203"/>
      </g>
     </g>
    </g>
    <g id="ytick_11">
     <g id="line2d_29">
      <g>
       <use xlink:href="#m38cdcd1bc9" x="435.324522" y="176.743886" style="stroke: #000000; stroke-width: 0.8"/>
      </g>
     </g>
     <g id="text_29">
      <!-- 0.10 -->
      <g transform="translate(406.058897 180.543104)scale(0.1 -0.1)">
       <use xlink:href="#DejaVuSans-30"/>
       <use xlink:href="#DejaVuSans-2e" x="63.623047"/>
       <use xlink:href="#DejaVuSans-31" x="95.410156"/>
       <use xlink:href="#DejaVuSans-30" x="159.033203"/>
      </g>
     </g>
    </g>
    <g id="ytick_12">
     <g id="line2d_30">
      <g>
       <use xlink:href="#m38cdcd1bc9" x="435.324522" y="142.61547" style="stroke: #000000; stroke-width: 0.8"/>
      </g>
     </g>
     <g id="text_30">
      <!-- 0.15 -->
      <g transform="translate(406.058897 146.414689)scale(0.1 -0.1)">
       <use xlink:href="#DejaVuSans-30"/>
       <use xlink:href="#DejaVuSans-2e" x="63.623047"/>
       <use xlink:href="#DejaVuSans-31" x="95.410156"/>
       <use xlink:href="#DejaVuSans-35" x="159.033203"/>
      </g>
     </g>
    </g>
    <g id="ytick_13">
     <g id="line2d_31">
      <g>
       <use xlink:href="#m38cdcd1bc9" x="435.324522" y="108.487054" style="stroke: #000000; stroke-width: 0.8"/>
      </g>
     </g>
     <g id="text_31">
      <!-- 0.20 -->
      <g transform="translate(406.058897 112.286273)scale(0.1 -0.1)">
       <use xlink:href="#DejaVuSans-30"/>
       <use xlink:href="#DejaVuSans-2e" x="63.623047"/>
       <use xlink:href="#DejaVuSans-32" x="95.410156"/>
       <use xlink:href="#DejaVuSans-30" x="159.033203"/>
      </g>
     </g>
    </g>
    <g id="ytick_14">
     <g id="line2d_32">
      <g>
       <use xlink:href="#m38cdcd1bc9" x="435.324522" y="74.358639" style="stroke: #000000; stroke-width: 0.8"/>
      </g>
     </g>
     <g id="text_32">
      <!-- 0.25 -->
      <g transform="translate(406.058897 78.157857)scale(0.1 -0.1)">
       <use xlink:href="#DejaVuSans-30"/>
       <use xlink:href="#DejaVuSans-2e" x="63.623047"/>
       <use xlink:href="#DejaVuSans-32" x="95.410156"/>
       <use xlink:href="#DejaVuSans-35" x="159.033203"/>
      </g>
     </g>
    </g>
    <g id="ytick_15">
     <g id="line2d_33">
      <g>
       <use xlink:href="#m38cdcd1bc9" x="435.324522" y="40.230223" style="stroke: #000000; stroke-width: 0.8"/>
      </g>
     </g>
     <g id="text_33">
      <!-- 0.30 -->
      <g transform="translate(406.058897 44.029442)scale(0.1 -0.1)">
       <use xlink:href="#DejaVuSans-30"/>
       <use xlink:href="#DejaVuSans-2e" x="63.623047"/>
       <use xlink:href="#DejaVuSans-33" x="95.410156"/>
       <use xlink:href="#DejaVuSans-30" x="159.033203"/>
      </g>
     </g>
    </g>
   </g>
   <g id="line2d_34">
    <path d="M 445.514087 206.169958 
L 448.093724 225.816103 
L 450.67336 219.040265 
L 453.252997 225.732823 
L 455.832634 221.614103 
L 458.412271 225.687274 
L 460.991908 222.730247 
L 463.571544 225.661905 
L 466.151181 223.357196 
L 468.730818 225.646238 
L 471.310455 223.759831 
L 473.890091 225.635863 
L 476.469728 224.040661 
L 479.049365 225.628714 
L 481.629002 224.247839 
L 484.208638 225.623687 
L 486.788275 224.407031 
L 489.367912 225.620132 
L 491.947549 224.533182 
L 494.527185 225.617625 
L 497.106822 146.147255 
L 499.686459 189.67028 
L 502.266096 174.7437 
L 504.845733 189.623463 
L 507.425369 180.461372 
L 510.005006 189.583745 
L 512.584643 182.938706 
L 515.16428 189.557971 
L 517.743916 184.330351 
L 520.323553 189.540243 
L 522.90319 185.224474 
L 525.482827 189.527753 
L 528.062463 185.849776 
L 530.6421 189.519291 
L 533.221737 186.312615 
L 535.801374 189.513412 
L 538.38101 186.670016 
L 540.960647 189.509806 
L 543.540284 186.954882 
L 546.119921 189.507767 
L 548.699558 226.524804 
L 551.279194 228.858093 
L 553.858831 226.598684 
L 556.438468 227.161199 
L 559.018105 226.24377 
L 561.597741 226.603513 
L 564.177378 226.011071 
L 566.757015 226.317067 
L 569.336652 225.85963 
L 571.916288 226.144008 
L 574.495925 225.75726 
L 577.075562 226.028534 
L 579.655199 225.687184 
L 582.234835 225.951751 
L 584.814472 225.640528 
L 587.394109 44.64 
L 589.973746 139.597478 
L 592.553382 108.008463 
L 595.133019 139.534957 
L 597.712656 120.503173 
L 600.292293 139.339723 
L 602.87193 125.818478 
L 605.451566 139.179285 
L 608.031203 128.751375 
L 610.61084 139.055351 
L 613.190477 130.605528 
L 615.770113 138.959936 
L 618.34975 131.881508 
L 620.929387 138.886084 
L 623.509024 132.812984 
L 626.08866 138.8288 
L 628.668297 133.522863 
L 631.247934 138.78416 
L 633.827571 134.081905 
L 636.407207 138.749313 
L 638.986844 226.395472 
L 641.566481 230.706634 
L 644.146118 227.417253 
L 646.725755 228.229121 
L 649.305391 226.984604 
" clip-path="url(#pe5bc85d903)" style="fill: none; stroke: #0d0887; stroke-width: 3; stroke-linecap: square"/>
   </g>
   <g id="line2d_35">
    <path d="M 445.514087 220.095706 
L 448.093724 236.360053 
L 450.67336 233.616958 
L 453.252997 237.371349 
L 455.832634 234.667034 
L 458.412271 237.821343 
L 460.991908 235.284182 
L 463.571544 238.006819 
L 466.151181 235.697598 
L 468.730818 238.09376 
L 471.310455 236.000113 
L 473.890091 238.135625 
L 476.469728 236.233752 
L 479.049365 238.157082 
L 481.629002 236.419865 
L 484.208638 238.168448 
L 486.788275 236.570852 
L 489.367912 238.173765 
L 491.947549 236.697303 
L 494.527185 238.175818 
L 497.106822 196.892359 
L 499.686459 229.059494 
L 502.266096 217.953688 
L 504.845733 229.597398 
L 507.425369 221.226069 
L 510.005006 229.749525 
L 512.584643 222.873834 
L 515.16428 229.776091 
L 517.743916 223.893069 
L 520.323553 229.753428 
L 522.90319 224.57636 
L 525.482827 229.737014 
L 528.062463 225.076761 
L 530.6421 229.719666 
L 533.221737 225.465115 
L 535.801374 229.699844 
L 538.38101 225.772726 
L 540.960647 229.679541 
L 543.540284 226.024821 
L 546.119921 229.65474 
L 548.699558 238.062667 
L 551.279194 237.808291 
L 553.858831 238.265614 
L 556.438468 237.809374 
L 559.018105 238.081034 
L 561.597741 237.867292 
L 564.177378 237.971585 
L 566.757015 237.898607 
L 569.336652 237.910763 
L 571.916288 237.91922 
L 574.495925 237.873423 
L 577.075562 237.941124 
L 579.655199 237.849537 
L 582.234835 237.958601 
L 584.814472 237.831784 
L 587.394109 159.663007 
L 589.973746 217.811692 
L 592.553382 198.391537 
L 595.133019 220.083279 
L 597.712656 204.881683 
L 600.292293 220.777952 
L 602.87193 208.177438 
L 605.451566 220.883508 
L 608.031203 210.150389 
L 610.61084 220.8878 
L 613.190477 211.549406 
L 615.770113 220.82581 
L 618.34975 212.557567 
L 620.929387 220.733637 
L 623.509024 213.331803 
L 626.08866 220.636821 
L 628.668297 213.96383 
L 631.247934 220.54516 
L 633.827571 214.470964 
L 636.407207 220.467397 
L 638.986844 239.368892 
L 641.566481 238.358871 
L 644.146118 238.869739 
L 646.725755 237.906265 
L 649.305391 238.718433 
" clip-path="url(#pe5bc85d903)" style="fill: none; stroke: #9c179e; stroke-width: 3; stroke-linecap: square"/>
   </g>
   <g id="line2d_36">
    <path d="M 445.514087 233.622674 
L 448.093724 237.720283 
L 450.67336 238.752046 
L 453.252997 239.713214 
L 455.832634 238.690804 
L 458.412271 240.210276 
L 460.991908 238.829964 
L 463.571544 240.390029 
L 466.151181 238.967128 
L 468.730818 240.462912 
L 471.310455 239.09728 
L 473.890091 240.488174 
L 476.469728 239.200584 
L 479.049365 240.51238 
L 481.629002 239.279452 
L 484.208638 240.529165 
L 486.788275 239.339341 
L 489.367912 240.544878 
L 491.947549 239.383511 
L 494.527185 240.554184 
L 497.106822 222.073074 
L 499.686459 240.122105 
L 502.266096 232.855414 
L 504.845733 239.561536 
L 507.425369 233.65766 
L 510.005006 239.48985 
L 512.584643 234.174813 
L 515.16428 239.50802 
L 517.743916 234.486926 
L 520.323553 239.605943 
L 522.90319 234.66873 
L 525.482827 239.72394 
L 528.062463 234.803603 
L 530.6421 239.81748 
L 533.221737 234.930954 
L 535.801374 239.866416 
L 538.38101 235.0664 
L 540.960647 239.864274 
L 543.540284 235.191053 
L 546.119921 239.848386 
L 548.699558 240.362045 
L 551.279194 240.452314 
L 553.858831 240.488402 
L 556.438468 240.308612 
L 559.018105 240.319063 
L 561.597741 240.230157 
L 564.177378 240.234476 
L 566.757015 240.220183 
L 569.336652 240.195225 
L 571.916288 240.203434 
L 574.495925 240.157849 
L 577.075562 240.196639 
L 579.655199 240.138625 
L 582.234835 240.189907 
L 584.814472 240.131992 
L 587.394109 211.362266 
L 589.973746 237.931769 
L 592.553382 228.311707 
L 595.133019 238.786587 
L 597.712656 228.639255 
L 600.292293 238.782481 
L 602.87193 229.64311 
L 605.451566 238.603806 
L 608.031203 230.219594 
L 610.61084 238.69824 
L 613.190477 230.689671 
L 615.770113 238.79797 
L 618.34975 231.092543 
L 620.929387 238.874527 
L 623.509024 231.373573 
L 626.08866 238.96626 
L 628.668297 231.597324 
L 631.247934 239.023534 
L 633.827571 231.818274 
L 636.407207 239.051372 
L 638.986844 241.218259 
L 641.566481 240.718177 
L 644.146118 240.65017 
L 646.725755 240.263474 
L 649.305391 240.610721 
" clip-path="url(#pe5bc85d903)" style="fill: none; stroke: #ed7953; stroke-width: 3; stroke-linecap: square"/>
   </g>
   <g id="line2d_37">
    <path d="M 445.514087 245.338523 
L 448.093724 244.262469 
L 450.67336 245.449114 
L 453.252997 244.86711 
L 455.832634 245.46831 
L 458.412271 244.876676 
L 460.991908 245.243842 
L 463.571544 244.794019 
L 466.151181 245.228989 
L 468.730818 244.94678 
L 471.310455 245.515736 
L 473.890091 244.78108 
L 476.469728 245.09684 
L 479.049365 244.810464 
L 481.629002 245.258289 
L 484.208638 245.072651 
L 486.788275 245.299169 
L 489.367912 244.870895 
L 491.947549 245.101664 
L 494.527185 244.750368 
L 497.106822 243.603194 
L 499.686459 244.919844 
L 502.266096 245.382487 
L 504.845733 244.81586 
L 507.425369 245.422976 
L 510.005006 244.537165 
L 512.584643 245.286334 
L 515.16428 244.678697 
L 517.743916 245.132283 
L 520.323553 245.173581 
L 522.90319 246.234233 
L 525.482827 244.153996 
L 528.062463 246.190438 
L 530.6421 244.037018 
L 533.221737 245.741148 
L 535.801374 244.142878 
L 538.38101 245.487916 
L 540.960647 244.529565 
L 543.540284 245.773518 
L 546.119921 244.396545 
L 548.699558 245.744816 
L 551.279194 244.42582 
L 553.858831 245.581597 
L 556.438468 244.601148 
L 559.018105 245.079485 
L 561.597741 244.6567 
L 564.177378 245.414276 
L 566.757015 244.645687 
L 569.336652 245.492198 
L 571.916288 244.750436 
L 574.495925 245.185118 
L 577.075562 245.195302 
L 579.655199 244.695195 
L 582.234835 245.165517 
L 584.814472 244.986649 
L 587.394109 244.387333 
L 589.973746 244.374736 
L 592.553382 245.972299 
L 595.133019 244.369329 
L 597.712656 245.739288 
L 600.292293 244.534342 
L 602.87193 245.885423 
L 605.451566 244.066996 
L 608.031203 245.616032 
L 610.61084 244.56806 
L 613.190477 245.227171 
L 615.770113 244.612526 
L 618.34975 245.605688 
L 620.929387 243.968713 
L 623.509024 245.876601 
L 626.08866 244.180478 
L 628.668297 245.64161 
L 631.247934 244.31101 
L 633.827571 245.905634 
L 636.407207 244.103854 
L 638.986844 246.232198 
L 641.566481 243.557084 
L 644.146118 246.24 
L 646.725755 244.230919 
L 649.305391 245.71993 
" clip-path="url(#pe5bc85d903)" style="fill: none; stroke: #f0f921; stroke-width: 3; stroke-linecap: square"/>
   </g>
   <g id="patch_9">
    <path d="M 435.324522 256.32 
L 435.324522 34.56 
" style="fill: none; stroke: #000000; stroke-width: 0.8; stroke-linejoin: miter; stroke-linecap: square"/>
   </g>
   <g id="patch_10">
    <path d="M 659.494957 256.32 
L 659.494957 34.56 
" style="fill: none; stroke: #000000; stroke-width: 0.8; stroke-linejoin: miter; stroke-linecap: square"/>
   </g>
   <g id="patch_11">
    <path d="M 435.324522 256.32 
L 659.494957 256.32 
" style="fill: none; stroke: #000000; stroke-width: 0.8; stroke-linejoin: miter; stroke-linecap: square"/>
   </g>
   <g id="patch_12">
    <path d="M 435.324522 34.56 
L 659.494957 34.56 
" style="fill: none; stroke: #000000; stroke-width: 0.8; stroke-linejoin: miter; stroke-linecap: square"/>
   </g>
   <g id="text_34">
    <!-- Feedforward with exp. decay -->
    <g transform="translate(460.760364 28.56)scale(0.12 -0.12)">
     <defs>
      <path id="DejaVuSans-68" d="M 3513 2113 
L 3513 0 
L 2938 0 
L 2938 2094 
Q 2938 2591 2744 2837 
Q 2550 3084 2163 3084 
Q 1697 3084 1428 2787 
Q 1159 2491 1159 1978 
L 1159 0 
L 581 0 
L 581 4863 
L 1159 4863 
L 1159 2956 
Q 1366 3272 1645 3428 
Q 1925 3584 2291 3584 
Q 2894 3584 3203 3211 
Q 3513 2838 3513 2113 
z
" transform="scale(0.015625)"/>
      <path id="DejaVuSans-78" d="M 3513 3500 
L 2247 1797 
L 3578 0 
L 2900 0 
L 1881 1375 
L 863 0 
L 184 0 
L 1544 1831 
L 300 3500 
L 978 3500 
L 1906 2253 
L 2834 3500 
L 3513 3500 
z
" transform="scale(0.015625)"/>
      <path id="DejaVuSans-79" d="M 2059 -325 
Q 1816 -950 1584 -1140 
Q 1353 -1331 966 -1331 
L 506 -1331 
L 506 -850 
L 844 -850 
Q 1081 -850 1212 -737 
Q 1344 -625 1503 -206 
L 1606 56 
L 191 3500 
L 800 3500 
L 1894 763 
L 2988 3500 
L 3597 3500 
L 2059 -325 
z
" transform="scale(0.015625)"/>
     </defs>
     <use xlink:href="#DejaVuSans-46"/>
     <use xlink:href="#DejaVuSans-65" x="52.019531"/>
     <use xlink:href="#DejaVuSans-65" x="113.542969"/>
     <use xlink:href="#DejaVuSans-64" x="175.066406"/>
     <use xlink:href="#DejaVuSans-66" x="238.542969"/>
     <use xlink:href="#DejaVuSans-6f" x="273.748047"/>
     <use xlink:href="#DejaVuSans-72" x="334.929688"/>
     <use xlink:href="#DejaVuSans-77" x="376.042969"/>
     <use xlink:href="#DejaVuSans-61" x="457.830078"/>
     <use xlink:href="#DejaVuSans-72" x="519.109375"/>
     <use xlink:href="#DejaVuSans-64" x="558.472656"/>
     <use xlink:href="#DejaVuSans-20" x="621.949219"/>
     <use xlink:href="#DejaVuSans-77" x="653.736328"/>
     <use xlink:href="#DejaVuSans-69" x="735.523438"/>
     <use xlink:href="#DejaVuSans-74" x="763.306641"/>
     <use xlink:href="#DejaVuSans-68" x="802.515625"/>
     <use xlink:href="#DejaVuSans-20" x="865.894531"/>
     <use xlink:href="#DejaVuSans-65" x="897.681641"/>
     <use xlink:href="#DejaVuSans-78" x="957.455078"/>
     <use xlink:href="#DejaVuSans-70" x="1016.634766"/>
     <use xlink:href="#DejaVuSans-2e" x="1080.111328"/>
     <use xlink:href="#DejaVuSans-20" x="1111.898438"/>
     <use xlink:href="#DejaVuSans-64" x="1143.685547"/>
     <use xlink:href="#DejaVuSans-65" x="1207.162109"/>
     <use xlink:href="#DejaVuSans-63" x="1268.685547"/>
     <use xlink:href="#DejaVuSans-61" x="1323.666016"/>
     <use xlink:href="#DejaVuSans-79" x="1384.945312"/>
    </g>
   </g>
   <g id="legend_2">
    <g id="patch_13">
     <path d="M 442.324522 101.2725 
L 504.560459 101.2725 
Q 506.560459 101.2725 506.560459 99.2725 
L 506.560459 41.56 
Q 506.560459 39.56 504.560459 39.56 
L 442.324522 39.56 
Q 440.324522 39.56 440.324522 41.56 
L 440.324522 99.2725 
Q 440.324522 101.2725 442.324522 101.2725 
z
" style="fill: #ffffff; opacity: 0.8; stroke: #cccccc; stroke-linejoin: miter"/>
    </g>
    <g id="line2d_38">
     <path d="M 444.324522 47.658438 
L 454.324522 47.658438 
L 464.324522 47.658438 
" style="fill: none; stroke: #0d0887; stroke-width: 3; stroke-linecap: square"/>
    </g>
    <g id="text_35">
     <!-- conv1 -->
     <g transform="translate(472.324522 51.158438)scale(0.1 -0.1)">
      <use xlink:href="#DejaVuSans-63"/>
      <use xlink:href="#DejaVuSans-6f" x="54.980469"/>
      <use xlink:href="#DejaVuSans-6e" x="116.162109"/>
      <use xlink:href="#DejaVuSans-76" x="179.541016"/>
      <use xlink:href="#DejaVuSans-31" x="238.720703"/>
     </g>
    </g>
    <g id="line2d_39">
     <path d="M 444.324522 62.336563 
L 454.324522 62.336563 
L 464.324522 62.336563 
" style="fill: none; stroke: #9c179e; stroke-width: 3; stroke-linecap: square"/>
    </g>
    <g id="text_36">
     <!-- conv2 -->
     <g transform="translate(472.324522 65.836563)scale(0.1 -0.1)">
      <use xlink:href="#DejaVuSans-63"/>
      <use xlink:href="#DejaVuSans-6f" x="54.980469"/>
      <use xlink:href="#DejaVuSans-6e" x="116.162109"/>
      <use xlink:href="#DejaVuSans-76" x="179.541016"/>
      <use xlink:href="#DejaVuSans-32" x="238.720703"/>
     </g>
    </g>
    <g id="line2d_40">
     <path d="M 444.324522 77.014688 
L 454.324522 77.014688 
L 464.324522 77.014688 
" style="fill: none; stroke: #ed7953; stroke-width: 3; stroke-linecap: square"/>
    </g>
    <g id="text_37">
     <!-- conv3 -->
     <g transform="translate(472.324522 80.514688)scale(0.1 -0.1)">
      <use xlink:href="#DejaVuSans-63"/>
      <use xlink:href="#DejaVuSans-6f" x="54.980469"/>
      <use xlink:href="#DejaVuSans-6e" x="116.162109"/>
      <use xlink:href="#DejaVuSans-76" x="179.541016"/>
      <use xlink:href="#DejaVuSans-33" x="238.720703"/>
     </g>
    </g>
    <g id="line2d_41">
     <path d="M 444.324522 91.692813 
L 454.324522 91.692813 
L 464.324522 91.692813 
" style="fill: none; stroke: #f0f921; stroke-width: 3; stroke-linecap: square"/>
    </g>
    <g id="text_38">
     <!-- fc1 -->
     <g transform="translate(472.324522 95.192813)scale(0.1 -0.1)">
      <use xlink:href="#DejaVuSans-66"/>
      <use xlink:href="#DejaVuSans-63" x="35.205078"/>
      <use xlink:href="#DejaVuSans-31" x="90.185547"/>
     </g>
    </g>
   </g>
  </g>
  <g id="axes_3">
   <g id="patch_14">
    <path d="M 704.329043 256.32 
L 928.499478 256.32 
L 928.499478 34.56 
L 704.329043 34.56 
z
" style="fill: #ffffff"/>
   </g>
   <g id="matplotlib.axis_5">
    <g id="xtick_11">
     <g id="line2d_42">
      <g>
       <use xlink:href="#m5b1b02390c" x="714.518609" y="256.32" style="stroke: #000000; stroke-width: 0.8"/>
      </g>
     </g>
     <g id="text_39">
      <!-- 0 -->
      <g transform="translate(711.337359 270.918437)scale(0.1 -0.1)">
       <use xlink:href="#DejaVuSans-30"/>
      </g>
     </g>
    </g>
    <g id="xtick_12">
     <g id="line2d_43">
      <g>
       <use xlink:href="#m5b1b02390c" x="766.111344" y="256.32" style="stroke: #000000; stroke-width: 0.8"/>
      </g>
     </g>
     <g id="text_40">
      <!-- 20 -->
      <g transform="translate(759.748844 270.918437)scale(0.1 -0.1)">
       <use xlink:href="#DejaVuSans-32"/>
       <use xlink:href="#DejaVuSans-30" x="63.623047"/>
      </g>
     </g>
    </g>
    <g id="xtick_13">
     <g id="line2d_44">
      <g>
       <use xlink:href="#m5b1b02390c" x="817.704079" y="256.32" style="stroke: #000000; stroke-width: 0.8"/>
      </g>
     </g>
     <g id="text_41">
      <!-- 40 -->
      <g transform="translate(811.341579 270.918437)scale(0.1 -0.1)">
       <use xlink:href="#DejaVuSans-34"/>
       <use xlink:href="#DejaVuSans-30" x="63.623047"/>
      </g>
     </g>
    </g>
    <g id="xtick_14">
     <g id="line2d_45">
      <g>
       <use xlink:href="#m5b1b02390c" x="869.296815" y="256.32" style="stroke: #000000; stroke-width: 0.8"/>
      </g>
     </g>
     <g id="text_42">
      <!-- 60 -->
      <g transform="translate(862.934315 270.918437)scale(0.1 -0.1)">
       <use xlink:href="#DejaVuSans-36"/>
       <use xlink:href="#DejaVuSans-30" x="63.623047"/>
      </g>
     </g>
    </g>
    <g id="xtick_15">
     <g id="line2d_46">
      <g>
       <use xlink:href="#m5b1b02390c" x="920.88955" y="256.32" style="stroke: #000000; stroke-width: 0.8"/>
      </g>
     </g>
     <g id="text_43">
      <!-- 80 -->
      <g transform="translate(914.52705 270.918437)scale(0.1 -0.1)">
       <use xlink:href="#DejaVuSans-38"/>
       <use xlink:href="#DejaVuSans-30" x="63.623047"/>
      </g>
     </g>
    </g>
    <g id="text_44">
     <!-- Model timesteps -->
     <g transform="translate(775.095511 284.596563)scale(0.1 -0.1)">
      <use xlink:href="#DejaVuSans-4d"/>
      <use xlink:href="#DejaVuSans-6f" x="86.279297"/>
      <use xlink:href="#DejaVuSans-64" x="147.460938"/>
      <use xlink:href="#DejaVuSans-65" x="210.9375"/>
      <use xlink:href="#DejaVuSans-6c" x="272.460938"/>
      <use xlink:href="#DejaVuSans-20" x="300.244141"/>
      <use xlink:href="#DejaVuSans-74" x="332.03125"/>
      <use xlink:href="#DejaVuSans-69" x="371.240234"/>
      <use xlink:href="#DejaVuSans-6d" x="399.023438"/>
      <use xlink:href="#DejaVuSans-65" x="496.435547"/>
      <use xlink:href="#DejaVuSans-73" x="557.958984"/>
      <use xlink:href="#DejaVuSans-74" x="610.058594"/>
      <use xlink:href="#DejaVuSans-65" x="649.267578"/>
      <use xlink:href="#DejaVuSans-70" x="710.791016"/>
      <use xlink:href="#DejaVuSans-73" x="774.267578"/>
     </g>
    </g>
   </g>
   <g id="matplotlib.axis_6">
    <g id="ytick_16">
     <g id="line2d_47">
      <g>
       <use xlink:href="#m38cdcd1bc9" x="704.329043" y="245.146722" style="stroke: #000000; stroke-width: 0.8"/>
      </g>
     </g>
     <g id="text_45">
      <!-- 0.0 -->
      <g transform="translate(681.425918 248.945941)scale(0.1 -0.1)">
       <use xlink:href="#DejaVuSans-30"/>
       <use xlink:href="#DejaVuSans-2e" x="63.623047"/>
       <use xlink:href="#DejaVuSans-30" x="95.410156"/>
      </g>
     </g>
    </g>
    <g id="ytick_17">
     <g id="line2d_48">
      <g>
       <use xlink:href="#m38cdcd1bc9" x="704.329043" y="209.363375" style="stroke: #000000; stroke-width: 0.8"/>
      </g>
     </g>
     <g id="text_46">
      <!-- 0.5 -->
      <g transform="translate(681.425918 213.162594)scale(0.1 -0.1)">
       <use xlink:href="#DejaVuSans-30"/>
       <use xlink:href="#DejaVuSans-2e" x="63.623047"/>
       <use xlink:href="#DejaVuSans-35" x="95.410156"/>
      </g>
     </g>
    </g>
    <g id="ytick_18">
     <g id="line2d_49">
      <g>
       <use xlink:href="#m38cdcd1bc9" x="704.329043" y="173.580029" style="stroke: #000000; stroke-width: 0.8"/>
      </g>
     </g>
     <g id="text_47">
      <!-- 1.0 -->
      <g transform="translate(681.425918 177.379248)scale(0.1 -0.1)">
       <use xlink:href="#DejaVuSans-31"/>
       <use xlink:href="#DejaVuSans-2e" x="63.623047"/>
       <use xlink:href="#DejaVuSans-30" x="95.410156"/>
      </g>
     </g>
    </g>
    <g id="ytick_19">
     <g id="line2d_50">
      <g>
       <use xlink:href="#m38cdcd1bc9" x="704.329043" y="137.796683" style="stroke: #000000; stroke-width: 0.8"/>
      </g>
     </g>
     <g id="text_48">
      <!-- 1.5 -->
      <g transform="translate(681.425918 141.595902)scale(0.1 -0.1)">
       <use xlink:href="#DejaVuSans-31"/>
       <use xlink:href="#DejaVuSans-2e" x="63.623047"/>
       <use xlink:href="#DejaVuSans-35" x="95.410156"/>
      </g>
     </g>
    </g>
    <g id="ytick_20">
     <g id="line2d_51">
      <g>
       <use xlink:href="#m38cdcd1bc9" x="704.329043" y="102.013337" style="stroke: #000000; stroke-width: 0.8"/>
      </g>
     </g>
     <g id="text_49">
      <!-- 2.0 -->
      <g transform="translate(681.425918 105.812555)scale(0.1 -0.1)">
       <use xlink:href="#DejaVuSans-32"/>
       <use xlink:href="#DejaVuSans-2e" x="63.623047"/>
       <use xlink:href="#DejaVuSans-30" x="95.410156"/>
      </g>
     </g>
    </g>
    <g id="ytick_21">
     <g id="line2d_52">
      <g>
       <use xlink:href="#m38cdcd1bc9" x="704.329043" y="66.22999" style="stroke: #000000; stroke-width: 0.8"/>
      </g>
     </g>
     <g id="text_50">
      <!-- 2.5 -->
      <g transform="translate(681.425918 70.029209)scale(0.1 -0.1)">
       <use xlink:href="#DejaVuSans-32"/>
       <use xlink:href="#DejaVuSans-2e" x="63.623047"/>
       <use xlink:href="#DejaVuSans-35" x="95.410156"/>
      </g>
     </g>
    </g>
   </g>
   <g id="line2d_53">
    <path d="M 714.518609 240.060672 
L 717.098245 242.654358 
L 719.677882 242.654358 
L 722.257519 242.654358 
L 724.837156 242.654358 
L 727.416793 242.654358 
L 729.996429 242.654358 
L 732.576066 242.654358 
L 735.155703 242.654358 
L 737.73534 242.654358 
L 740.314976 242.654358 
L 742.894613 242.654358 
L 745.47425 242.654358 
L 748.053887 242.654358 
L 750.633523 242.654358 
L 753.21316 242.654358 
L 755.792797 242.654358 
L 758.372434 242.654358 
L 760.95207 242.654358 
L 763.531707 242.654358 
L 766.111344 154.373964 
L 768.690981 154.373964 
L 771.270618 154.373964 
L 773.850254 154.373964 
L 776.429891 154.373964 
L 779.009528 154.373964 
L 781.589165 154.373964 
L 784.168801 154.373964 
L 786.748438 154.373964 
L 789.328075 154.373964 
L 791.907712 154.373964 
L 794.487348 154.373964 
L 797.066985 154.373964 
L 799.646622 154.373964 
L 802.226259 154.373964 
L 804.805895 154.373964 
L 807.385532 154.373964 
L 809.965169 154.373964 
L 812.544806 154.373964 
L 815.124442 154.373964 
L 817.704079 242.654358 
L 820.283716 242.654358 
L 822.863353 242.654358 
L 825.44299 242.654358 
L 828.022626 242.654358 
L 830.602263 242.654358 
L 833.1819 242.654358 
L 835.761537 242.654358 
L 838.341173 242.654358 
L 840.92081 242.654358 
L 843.500447 242.654358 
L 846.080084 242.654358 
L 848.65972 242.654358 
L 851.239357 242.654358 
L 853.818994 242.654358 
L 856.398631 44.64 
L 858.978267 44.64 
L 861.557904 44.64 
L 864.137541 44.64 
L 866.717178 44.64 
L 869.296815 44.64 
L 871.876451 44.64 
L 874.456088 44.64 
L 877.035725 44.64 
L 879.615362 44.64 
L 882.194998 44.64 
L 884.774635 44.64 
L 887.354272 44.64 
L 889.933909 44.64 
L 892.513545 44.64 
L 895.093182 44.64 
L 897.672819 44.64 
L 900.252456 44.64 
L 902.832092 44.64 
L 905.411729 44.64 
L 907.991366 242.654358 
L 910.571003 242.654358 
L 913.15064 242.654358 
L 915.730276 242.654358 
L 918.309913 242.654358 
" clip-path="url(#pc9cb842855)" style="fill: none; stroke: #0d0887; stroke-width: 3; stroke-linecap: square"/>
   </g>
   <g id="line2d_54">
    <path d="M 714.518609 245.146722 
L 717.098245 245.146722 
L 719.677882 228.131929 
L 722.257519 212.537153 
L 724.837156 209.946105 
L 727.416793 212.487234 
L 729.996429 215.238645 
L 732.576066 217.341419 
L 735.155703 218.830575 
L 737.73534 219.857139 
L 740.314976 220.554026 
L 742.894613 221.02105 
L 745.47425 221.330105 
L 748.053887 221.532026 
L 750.633523 221.662312 
L 753.21316 221.745361 
L 755.792797 221.79769 
L 758.372434 221.830321 
L 760.95207 221.850468 
L 763.531707 221.8628 
L 766.111344 221.870284 
L 768.690981 221.874795 
L 771.270618 152.279442 
L 773.850254 121.200292 
L 776.429891 168.80614 
L 779.009528 189.853348 
L 781.589165 199.030403 
L 784.168801 204.160898 
L 786.748438 207.272339 
L 789.328075 209.230712 
L 791.907712 210.483902 
L 794.487348 211.289876 
L 797.066985 211.807319 
L 799.646622 212.137636 
L 802.226259 212.346871 
L 804.805895 212.478253 
L 807.385532 212.560013 
L 809.965169 212.610455 
L 812.544806 212.64132 
L 815.124442 212.660059 
L 817.704079 212.671357 
L 820.283716 212.678129 
L 822.863353 219.575133 
L 825.44299 225.033119 
L 828.022626 228.851998 
L 830.602263 231.609798 
L 833.1819 233.25179 
L 835.761537 232.544628 
L 838.341173 227.632691 
L 840.92081 222.533772 
L 843.500447 221.458072 
L 846.080084 222.189197 
L 848.65972 221.994126 
L 851.239357 221.807034 
L 853.818994 222.039326 
L 856.398631 222.070158 
L 858.978267 222.03104 
L 861.557904 48.900008 
L 864.137541 100.671311 
L 866.717178 168.791286 
L 869.296815 188.420344 
L 871.876451 197.967406 
L 874.456088 203.350827 
L 877.035725 206.60987 
L 879.615362 208.655707 
L 882.194998 209.962018 
L 884.774635 210.800808 
L 887.354272 211.338694 
L 889.933909 211.681785 
L 892.513545 211.898972 
L 895.093182 212.035293 
L 897.672819 212.120095 
L 900.252456 212.172403 
L 902.832092 212.204401 
L 905.411729 212.223827 
L 907.991366 212.235538 
L 910.571003 212.242549 
L 913.15064 219.280633 
L 915.730276 224.81677 
L 918.309913 228.643327 
" clip-path="url(#pc9cb842855)" style="fill: none; stroke: #7e03a8; stroke-width: 3; stroke-linecap: square"/>
   </g>
   <g id="line2d_55">
    <path d="M 714.518609 242.950628 
L 717.098245 244.350798 
L 719.677882 240.489324 
L 722.257519 237.97165 
L 724.837156 237.129142 
L 727.416793 237.550426 
L 729.996429 238.13683 
L 732.576066 238.615468 
L 735.155703 238.962499 
L 737.73534 239.204361 
L 740.314976 239.36961 
L 742.894613 239.480856 
L 745.47425 239.554751 
L 748.053887 239.603186 
L 750.633523 239.63453 
L 753.21316 239.654558 
L 755.792797 239.667211 
L 758.372434 239.675117 
L 760.95207 239.680009 
L 763.531707 239.683005 
L 766.111344 239.684829 
L 768.690981 239.685928 
L 771.270618 221.780169 
L 773.850254 200.796462 
L 776.429891 227.640181 
L 779.009528 232.844876 
L 781.589165 234.981678 
L 784.168801 236.139022 
L 786.748438 236.830186 
L 789.328075 237.261409 
L 791.907712 237.536308 
L 794.487348 237.71268 
L 797.066985 237.825741 
L 799.646622 237.897845 
L 802.226259 237.943489 
L 804.805895 237.972129 
L 807.385532 237.989946 
L 809.965169 238.000936 
L 812.544806 238.007658 
L 815.124442 238.011739 
L 817.704079 238.014199 
L 820.283716 238.015673 
L 822.863353 239.497536 
L 825.44299 240.663452 
L 828.022626 241.452006 
L 830.602263 241.929165 
L 833.1819 242.31986 
L 835.761537 242.478163 
L 838.341173 240.885818 
L 840.92081 236.402667 
L 843.500447 235.845867 
L 846.080084 237.75501 
L 848.65972 238.752307 
L 851.239357 239.133362 
L 853.818994 239.426974 
L 856.398631 239.563354 
L 858.978267 239.623528 
L 861.557904 194.746464 
L 864.137541 211.889114 
L 866.717178 228.294075 
L 869.296815 232.736638 
L 871.876451 234.843985 
L 874.456088 236.017189 
L 877.035725 236.722494 
L 879.615362 237.163551 
L 882.194998 237.444587 
L 884.774635 237.624808 
L 887.354272 237.740283 
L 889.933909 237.813902 
L 892.513545 237.860489 
L 895.093182 237.889724 
L 897.672819 237.907907 
L 900.252456 237.919122 
L 902.832092 237.925983 
L 905.411729 237.930146 
L 907.991366 237.932657 
L 910.571003 237.934161 
L 913.15064 239.435217 
L 915.730276 240.613269 
L 918.309913 241.423682 
" clip-path="url(#pc9cb842855)" style="fill: none; stroke: #cc4778; stroke-width: 3; stroke-linecap: square"/>
   </g>
   <g id="line2d_56">
    <path d="M 714.518609 244.212594 
L 717.098245 244.388074 
L 719.677882 243.849941 
L 722.257519 242.056888 
L 724.837156 241.220778 
L 727.416793 241.408839 
L 729.996429 241.750927 
L 732.576066 242.029429 
L 735.155703 242.229405 
L 737.73534 242.367768 
L 740.314976 242.461873 
L 742.894613 242.525065 
L 745.47425 242.566988 
L 748.053887 242.594459 
L 750.633523 242.612239 
L 753.21316 242.623608 
L 755.792797 242.630794 
L 758.372434 242.635289 
L 760.95207 242.638072 
L 763.531707 242.639776 
L 766.111344 242.640816 
L 768.690981 242.641443 
L 771.270618 234.195044 
L 773.850254 216.609953 
L 776.429891 235.928665 
L 779.009528 238.984909 
L 781.589165 240.183447 
L 784.168801 240.813976 
L 786.748438 241.181968 
L 789.328075 241.407936 
L 791.907712 241.551592 
L 794.487348 241.643541 
L 797.066985 241.702416 
L 799.646622 241.739922 
L 802.226259 241.763635 
L 804.805895 241.778502 
L 807.385532 241.787748 
L 809.965169 241.793448 
L 812.544806 241.796939 
L 815.124442 241.799057 
L 817.704079 241.800335 
L 820.283716 241.8011 
L 822.863353 242.555129 
L 825.44299 243.143823 
L 828.022626 243.536109 
L 830.602263 243.848789 
L 833.1819 244.093145 
L 835.761537 243.944056 
L 838.341173 243.023036 
L 840.92081 240.246487 
L 843.500447 239.542428 
L 846.080084 241.295627 
L 848.65972 242.134416 
L 851.239357 242.276588 
L 853.818994 242.458386 
L 856.398631 242.545563 
L 858.978267 242.589494 
L 861.557904 219.965648 
L 864.137541 227.053718 
L 866.717178 236.570319 
L 869.296815 239.007195 
L 871.876451 240.145591 
L 874.456088 240.77013 
L 877.035725 241.138706 
L 879.615362 241.366638 
L 882.194998 241.511675 
L 884.774635 241.604591 
L 887.354272 241.66409 
L 889.933909 241.702009 
L 892.513545 241.726001 
L 895.093182 241.741053 
L 897.672819 241.750415 
L 900.252456 241.756189 
L 902.832092 241.75972 
L 905.411729 241.761862 
L 907.991366 241.763155 
L 910.571003 241.763929 
L 913.15064 242.521312 
L 915.730276 243.109226 
L 918.309913 243.491453 
" clip-path="url(#pc9cb842855)" style="fill: none; stroke: #f89540; stroke-width: 3; stroke-linecap: square"/>
   </g>
   <g id="line2d_57">
    <path d="M 714.518609 245.045336 
L 717.098245 245.151438 
L 719.677882 245.132668 
L 722.257519 245.287045 
L 724.837156 245.176569 
L 727.416793 245.018884 
L 729.996429 245.178249 
L 732.576066 245.174102 
L 735.155703 245.150142 
L 737.73534 245.160672 
L 740.314976 245.010127 
L 742.894613 245.101089 
L 745.47425 245.171085 
L 748.053887 245.062755 
L 750.633523 245.077488 
L 753.21316 245.028508 
L 755.792797 245.243285 
L 758.372434 245.175794 
L 760.95207 245.098557 
L 763.531707 245.024599 
L 766.111344 245.089885 
L 768.690981 245.190419 
L 771.270618 244.612825 
L 773.850254 246.24 
L 776.429891 244.784543 
L 779.009528 245.256229 
L 781.589165 245.261976 
L 784.168801 245.166929 
L 786.748438 244.757818 
L 789.328075 244.915229 
L 791.907712 245.199642 
L 794.487348 245.072253 
L 797.066985 245.060907 
L 799.646622 245.19263 
L 802.226259 245.124479 
L 804.805895 245.119883 
L 807.385532 244.937757 
L 809.965169 244.983757 
L 812.544806 245.147842 
L 815.124442 244.90363 
L 817.704079 244.985263 
L 820.283716 244.951576 
L 822.863353 245.070476 
L 825.44299 245.132127 
L 828.022626 245.066282 
L 830.602263 245.058462 
L 833.1819 245.117888 
L 835.761537 245.123084 
L 838.341173 245.121654 
L 840.92081 245.114094 
L 843.500447 245.136194 
L 846.080084 245.264653 
L 848.65972 244.920368 
L 851.239357 245.240639 
L 853.818994 245.084767 
L 856.398631 245.086408 
L 858.978267 245.086327 
L 861.557904 244.536407 
L 864.137541 245.530523 
L 866.717178 245.209127 
L 869.296815 244.925383 
L 871.876451 244.838497 
L 874.456088 245.511199 
L 877.035725 245.020074 
L 879.615362 244.891566 
L 882.194998 245.165256 
L 884.774635 245.128825 
L 887.354272 244.919971 
L 889.933909 245.03049 
L 892.513545 244.971377 
L 895.093182 244.960287 
L 897.672819 245.147102 
L 900.252456 244.963741 
L 902.832092 245.034641 
L 905.411729 244.93891 
L 907.991366 245.022289 
L 910.571003 245.186515 
L 913.15064 245.079358 
L 915.730276 245.083216 
L 918.309913 245.21584 
" clip-path="url(#pc9cb842855)" style="fill: none; stroke: #f0f921; stroke-width: 3; stroke-linecap: square"/>
   </g>
   <g id="patch_15">
    <path d="M 704.329043 256.32 
L 704.329043 34.56 
" style="fill: none; stroke: #000000; stroke-width: 0.8; stroke-linejoin: miter; stroke-linecap: square"/>
   </g>
   <g id="patch_16">
    <path d="M 928.499478 256.32 
L 928.499478 34.56 
" style="fill: none; stroke: #000000; stroke-width: 0.8; stroke-linejoin: miter; stroke-linecap: square"/>
   </g>
   <g id="patch_17">
    <path d="M 704.329043 256.32 
L 928.499478 256.32 
" style="fill: none; stroke: #000000; stroke-width: 0.8; stroke-linejoin: miter; stroke-linecap: square"/>
   </g>
   <g id="patch_18">
    <path d="M 704.329043 34.56 
L 928.499478 34.56 
" style="fill: none; stroke: #000000; stroke-width: 0.8; stroke-linejoin: miter; stroke-linecap: square"/>
   </g>
   <g id="text_51">
    <!-- Feedforward with div. norm. -->
    <g transform="translate(732.591448 28.56)scale(0.12 -0.12)">
     <use xlink:href="#DejaVuSans-46"/>
     <use xlink:href="#DejaVuSans-65" x="52.019531"/>
     <use xlink:href="#DejaVuSans-65" x="113.542969"/>
     <use xlink:href="#DejaVuSans-64" x="175.066406"/>
     <use xlink:href="#DejaVuSans-66" x="238.542969"/>
     <use xlink:href="#DejaVuSans-6f" x="273.748047"/>
     <use xlink:href="#DejaVuSans-72" x="334.929688"/>
     <use xlink:href="#DejaVuSans-77" x="376.042969"/>
     <use xlink:href="#DejaVuSans-61" x="457.830078"/>
     <use xlink:href="#DejaVuSans-72" x="519.109375"/>
     <use xlink:href="#DejaVuSans-64" x="558.472656"/>
     <use xlink:href="#DejaVuSans-20" x="621.949219"/>
     <use xlink:href="#DejaVuSans-77" x="653.736328"/>
     <use xlink:href="#DejaVuSans-69" x="735.523438"/>
     <use xlink:href="#DejaVuSans-74" x="763.306641"/>
     <use xlink:href="#DejaVuSans-68" x="802.515625"/>
     <use xlink:href="#DejaVuSans-20" x="865.894531"/>
     <use xlink:href="#DejaVuSans-64" x="897.681641"/>
     <use xlink:href="#DejaVuSans-69" x="961.158203"/>
     <use xlink:href="#DejaVuSans-76" x="988.941406"/>
     <use xlink:href="#DejaVuSans-2e" x="1040.371094"/>
     <use xlink:href="#DejaVuSans-20" x="1072.158203"/>
     <use xlink:href="#DejaVuSans-6e" x="1103.945312"/>
     <use xlink:href="#DejaVuSans-6f" x="1167.324219"/>
     <use xlink:href="#DejaVuSans-72" x="1228.505859"/>
     <use xlink:href="#DejaVuSans-6d" x="1267.869141"/>
     <use xlink:href="#DejaVuSans-2e" x="1365.28125"/>
    </g>
   </g>
   <g id="legend_3">
    <g id="patch_19">
     <path d="M 711.329043 115.950625 
L 778.774356 115.950625 
Q 780.774356 115.950625 780.774356 113.950625 
L 780.774356 41.56 
Q 780.774356 39.56 778.774356 39.56 
L 711.329043 39.56 
Q 709.329043 39.56 709.329043 41.56 
L 709.329043 113.950625 
Q 709.329043 115.950625 711.329043 115.950625 
z
" style="fill: #ffffff; opacity: 0.8; stroke: #cccccc; stroke-linejoin: miter"/>
    </g>
    <g id="line2d_58">
     <path d="M 713.329043 47.658437 
L 723.329043 47.658437 
L 733.329043 47.658437 
" style="fill: none; stroke: #0d0887; stroke-width: 3; stroke-linecap: square"/>
    </g>
    <g id="text_52">
     <!-- conv1 -->
     <g transform="translate(741.329043 51.158437)scale(0.1 -0.1)">
      <use xlink:href="#DejaVuSans-63"/>
      <use xlink:href="#DejaVuSans-6f" x="54.980469"/>
      <use xlink:href="#DejaVuSans-6e" x="116.162109"/>
      <use xlink:href="#DejaVuSans-76" x="179.541016"/>
      <use xlink:href="#DejaVuSans-31" x="238.720703"/>
     </g>
    </g>
    <g id="line2d_59">
     <path d="M 713.329043 62.336562 
L 723.329043 62.336562 
L 733.329043 62.336562 
" style="fill: none; stroke: #7e03a8; stroke-width: 3; stroke-linecap: square"/>
    </g>
    <g id="text_53">
     <!-- sconv1 -->
     <g transform="translate(741.329043 65.836562)scale(0.1 -0.1)">
      <use xlink:href="#DejaVuSans-73"/>
      <use xlink:href="#DejaVuSans-63" x="52.099609"/>
      <use xlink:href="#DejaVuSans-6f" x="107.080078"/>
      <use xlink:href="#DejaVuSans-6e" x="168.261719"/>
      <use xlink:href="#DejaVuSans-76" x="231.640625"/>
      <use xlink:href="#DejaVuSans-31" x="290.820312"/>
     </g>
    </g>
    <g id="line2d_60">
     <path d="M 713.329043 77.014687 
L 723.329043 77.014687 
L 733.329043 77.014687 
" style="fill: none; stroke: #cc4778; stroke-width: 3; stroke-linecap: square"/>
    </g>
    <g id="text_54">
     <!-- conv2 -->
     <g transform="translate(741.329043 80.514687)scale(0.1 -0.1)">
      <use xlink:href="#DejaVuSans-63"/>
      <use xlink:href="#DejaVuSans-6f" x="54.980469"/>
      <use xlink:href="#DejaVuSans-6e" x="116.162109"/>
      <use xlink:href="#DejaVuSans-76" x="179.541016"/>
      <use xlink:href="#DejaVuSans-32" x="238.720703"/>
     </g>
    </g>
    <g id="line2d_61">
     <path d="M 713.329043 91.692813 
L 723.329043 91.692813 
L 733.329043 91.692813 
" style="fill: none; stroke: #f89540; stroke-width: 3; stroke-linecap: square"/>
    </g>
    <g id="text_55">
     <!-- conv3 -->
     <g transform="translate(741.329043 95.192813)scale(0.1 -0.1)">
      <use xlink:href="#DejaVuSans-63"/>
      <use xlink:href="#DejaVuSans-6f" x="54.980469"/>
      <use xlink:href="#DejaVuSans-6e" x="116.162109"/>
      <use xlink:href="#DejaVuSans-76" x="179.541016"/>
      <use xlink:href="#DejaVuSans-33" x="238.720703"/>
     </g>
    </g>
    <g id="line2d_62">
     <path d="M 713.329043 106.370937 
L 723.329043 106.370937 
L 733.329043 106.370937 
" style="fill: none; stroke: #f0f921; stroke-width: 3; stroke-linecap: square"/>
    </g>
    <g id="text_56">
     <!-- fc1 -->
     <g transform="translate(741.329043 109.870937)scale(0.1 -0.1)">
      <use xlink:href="#DejaVuSans-66"/>
      <use xlink:href="#DejaVuSans-63" x="35.205078"/>
      <use xlink:href="#DejaVuSans-31" x="90.185547"/>
     </g>
    </g>
   </g>
  </g>
  <g id="axes_4">
   <g id="patch_20">
    <path d="M 973.333565 256.32 
L 1197.504 256.32 
L 1197.504 34.56 
L 973.333565 34.56 
z
" style="fill: #ffffff"/>
   </g>
   <g id="patch_21">
    <path d="M 1017.488348 256.32 
L 1017.488348 34.56 
L 1040.131826 34.56 
L 1040.131826 256.32 
z
" clip-path="url(#pe29ea6a096)" style="fill: #808080; opacity: 0.2; stroke: #808080; stroke-linejoin: miter"/>
   </g>
   <g id="PathCollection_1">
    <defs>
     <path id="mb864f0b901" d="M 0 3 
C 0.795609 3 1.55874 2.683901 2.12132 2.12132 
C 2.683901 1.55874 3 0.795609 3 0 
C 3 -0.795609 2.683901 -1.55874 2.12132 -2.12132 
C 1.55874 -2.683901 0.795609 -3 0 -3 
C -0.795609 -3 -1.55874 -2.683901 -2.12132 -2.12132 
C -2.683901 -1.55874 -3 -0.795609 -3 0 
C -3 0.795609 -2.683901 1.55874 -2.12132 2.12132 
C -1.55874 2.683901 -0.795609 3 0 3 
z
" style="stroke: #dc143c"/>
    </defs>
    <g clip-path="url(#pe29ea6a096)">
     <use xlink:href="#mb864f0b901" x="983.52313" y="149.691117" style="fill: #dc143c; stroke: #dc143c"/>
     <use xlink:href="#mb864f0b901" x="1006.166609" y="136.15168" style="fill: #dc143c; stroke: #dc143c"/>
     <use xlink:href="#mb864f0b901" x="1028.810087" y="98.410315" style="fill: #dc143c; stroke: #dc143c"/>
     <use xlink:href="#mb864f0b901" x="1051.453565" y="166.796504" style="fill: #dc143c; stroke: #dc143c"/>
     <use xlink:href="#mb864f0b901" x="1074.097043" y="139.280244" style="fill: #dc143c; stroke: #dc143c"/>
     <use xlink:href="#mb864f0b901" x="1096.740522" y="118.74704" style="fill: #dc143c; stroke: #dc143c"/>
     <use xlink:href="#mb864f0b901" x="1119.384" y="144.036649" style="fill: #dc143c; stroke: #dc143c"/>
     <use xlink:href="#mb864f0b901" x="1142.027478" y="155.057582" style="fill: #dc143c; stroke: #dc143c"/>
     <use xlink:href="#mb864f0b901" x="1164.670957" y="101.142012" style="fill: #dc143c; stroke: #dc143c"/>
     <use xlink:href="#mb864f0b901" x="1187.314435" y="44.64" style="fill: #dc143c; stroke: #dc143c"/>
    </g>
   </g>
   <g id="PathCollection_2">
    <defs>
     <path id="m293f50dcf2" d="M 0 3 
C 0.795609 3 1.55874 2.683901 2.12132 2.12132 
C 2.683901 1.55874 3 0.795609 3 0 
C 3 -0.795609 2.683901 -1.55874 2.12132 -2.12132 
C 1.55874 -2.683901 0.795609 -3 0 -3 
C -0.795609 -3 -1.55874 -2.683901 -2.12132 -2.12132 
C -2.683901 -1.55874 -3 -0.795609 -3 0 
C -3 0.795609 -2.683901 1.55874 -2.12132 2.12132 
C -1.55874 2.683901 -0.795609 3 0 3 
z
" style="stroke: #00bfff"/>
    </defs>
    <g clip-path="url(#pe29ea6a096)">
     <use xlink:href="#m293f50dcf2" x="983.52313" y="220.20352" style="fill: #00bfff; stroke: #00bfff"/>
     <use xlink:href="#m293f50dcf2" x="1006.166609" y="125.411673" style="fill: #00bfff; stroke: #00bfff"/>
     <use xlink:href="#m293f50dcf2" x="1028.810087" y="151.380298" style="fill: #00bfff; stroke: #00bfff"/>
     <use xlink:href="#m293f50dcf2" x="1051.453565" y="155.22726" style="fill: #00bfff; stroke: #00bfff"/>
     <use xlink:href="#m293f50dcf2" x="1074.097043" y="133.068113" style="fill: #00bfff; stroke: #00bfff"/>
     <use xlink:href="#m293f50dcf2" x="1096.740522" y="203.515242" style="fill: #00bfff; stroke: #00bfff"/>
     <use xlink:href="#m293f50dcf2" x="1119.384" y="117.723623" style="fill: #00bfff; stroke: #00bfff"/>
     <use xlink:href="#m293f50dcf2" x="1142.027478" y="131.866805" style="fill: #00bfff; stroke: #00bfff"/>
     <use xlink:href="#m293f50dcf2" x="1164.670957" y="189.235242" style="fill: #00bfff; stroke: #00bfff"/>
     <use xlink:href="#m293f50dcf2" x="1187.314435" y="93.842693" style="fill: #00bfff; stroke: #00bfff"/>
    </g>
   </g>
   <g id="PathCollection_3">
    <defs>
     <path id="m5c80427532" d="M 0 3 
C 0.795609 3 1.55874 2.683901 2.12132 2.12132 
C 2.683901 1.55874 3 0.795609 3 0 
C 3 -0.795609 2.683901 -1.55874 2.12132 -2.12132 
C 1.55874 -2.683901 0.795609 -3 0 -3 
C -0.795609 -3 -1.55874 -2.683901 -2.12132 -2.12132 
C -2.683901 -1.55874 -3 -0.795609 -3 0 
C -3 0.795609 -2.683901 1.55874 -2.12132 2.12132 
C -1.55874 2.683901 -0.795609 3 0 3 
z
" style="stroke: #ffa500"/>
    </defs>
    <g clip-path="url(#pe29ea6a096)">
     <use xlink:href="#m5c80427532" x="983.52313" y="162.920718" style="fill: #ffa500; stroke: #ffa500"/>
     <use xlink:href="#m5c80427532" x="1006.166609" y="246.24" style="fill: #ffa500; stroke: #ffa500"/>
     <use xlink:href="#m5c80427532" x="1028.810087" y="125.448863" style="fill: #ffa500; stroke: #ffa500"/>
     <use xlink:href="#m5c80427532" x="1051.453565" y="204.380322" style="fill: #ffa500; stroke: #ffa500"/>
     <use xlink:href="#m5c80427532" x="1074.097043" y="119.412422" style="fill: #ffa500; stroke: #ffa500"/>
     <use xlink:href="#m5c80427532" x="1096.740522" y="69.616253" style="fill: #ffa500; stroke: #ffa500"/>
     <use xlink:href="#m5c80427532" x="1119.384" y="79.879795" style="fill: #ffa500; stroke: #ffa500"/>
     <use xlink:href="#m5c80427532" x="1142.027478" y="175.602265" style="fill: #ffa500; stroke: #ffa500"/>
     <use xlink:href="#m5c80427532" x="1164.670957" y="97.714989" style="fill: #ffa500; stroke: #ffa500"/>
     <use xlink:href="#m5c80427532" x="1187.314435" y="196.997028" style="fill: #ffa500; stroke: #ffa500"/>
    </g>
   </g>
   <g id="matplotlib.axis_7">
    <g id="xtick_16">
     <g id="line2d_63">
      <g>
       <use xlink:href="#m5b1b02390c" x="1006.166609" y="256.32" style="stroke: #000000; stroke-width: 0.8"/>
      </g>
     </g>
     <g id="text_57">
      <!-- 2 -->
      <g transform="translate(1002.985359 270.918437)scale(0.1 -0.1)">
       <use xlink:href="#DejaVuSans-32"/>
      </g>
     </g>
    </g>
    <g id="xtick_17">
     <g id="line2d_64">
      <g>
       <use xlink:href="#m5b1b02390c" x="1051.453565" y="256.32" style="stroke: #000000; stroke-width: 0.8"/>
      </g>
     </g>
     <g id="text_58">
      <!-- 4 -->
      <g transform="translate(1048.272315 270.918437)scale(0.1 -0.1)">
       <use xlink:href="#DejaVuSans-34"/>
      </g>
     </g>
    </g>
    <g id="xtick_18">
     <g id="line2d_65">
      <g>
       <use xlink:href="#m5b1b02390c" x="1096.740522" y="256.32" style="stroke: #000000; stroke-width: 0.8"/>
      </g>
     </g>
     <g id="text_59">
      <!-- 6 -->
      <g transform="translate(1093.559272 270.918437)scale(0.1 -0.1)">
       <use xlink:href="#DejaVuSans-36"/>
      </g>
     </g>
    </g>
    <g id="xtick_19">
     <g id="line2d_66">
      <g>
       <use xlink:href="#m5b1b02390c" x="1142.027478" y="256.32" style="stroke: #000000; stroke-width: 0.8"/>
      </g>
     </g>
     <g id="text_60">
      <!-- 8 -->
      <g transform="translate(1138.846228 270.918437)scale(0.1 -0.1)">
       <use xlink:href="#DejaVuSans-38"/>
      </g>
     </g>
    </g>
    <g id="xtick_20">
     <g id="line2d_67">
      <g>
       <use xlink:href="#m5b1b02390c" x="1187.314435" y="256.32" style="stroke: #000000; stroke-width: 0.8"/>
      </g>
     </g>
     <g id="text_61">
      <!-- 10 -->
      <g transform="translate(1180.951935 270.918437)scale(0.1 -0.1)">
       <use xlink:href="#DejaVuSans-31"/>
       <use xlink:href="#DejaVuSans-30" x="63.623047"/>
      </g>
     </g>
    </g>
    <g id="text_62">
     <!-- Classes -->
     <g transform="translate(1066.583626 284.596563)scale(0.1 -0.1)">
      <defs>
       <path id="DejaVuSans-43" d="M 4122 4306 
L 4122 3641 
Q 3803 3938 3442 4084 
Q 3081 4231 2675 4231 
Q 1875 4231 1450 3742 
Q 1025 3253 1025 2328 
Q 1025 1406 1450 917 
Q 1875 428 2675 428 
Q 3081 428 3442 575 
Q 3803 722 4122 1019 
L 4122 359 
Q 3791 134 3420 21 
Q 3050 -91 2638 -91 
Q 1578 -91 968 557 
Q 359 1206 359 2328 
Q 359 3453 968 4101 
Q 1578 4750 2638 4750 
Q 3056 4750 3426 4639 
Q 3797 4528 4122 4306 
z
" transform="scale(0.015625)"/>
      </defs>
      <use xlink:href="#DejaVuSans-43"/>
      <use xlink:href="#DejaVuSans-6c" x="69.824219"/>
      <use xlink:href="#DejaVuSans-61" x="97.607422"/>
      <use xlink:href="#DejaVuSans-73" x="158.886719"/>
      <use xlink:href="#DejaVuSans-73" x="210.986328"/>
      <use xlink:href="#DejaVuSans-65" x="263.085938"/>
      <use xlink:href="#DejaVuSans-73" x="324.609375"/>
     </g>
    </g>
   </g>
   <g id="matplotlib.axis_8">
    <g id="ytick_22">
     <g id="line2d_68">
      <g>
       <use xlink:href="#m38cdcd1bc9" x="973.333565" y="248.917315" style="stroke: #000000; stroke-width: 0.8"/>
      </g>
     </g>
     <g id="text_63">
      <!-- −0.08 -->
      <g transform="translate(935.688253 252.716534)scale(0.1 -0.1)">
       <defs>
        <path id="DejaVuSans-2212" d="M 678 2272 
L 4684 2272 
L 4684 1741 
L 678 1741 
L 678 2272 
z
" transform="scale(0.015625)"/>
       </defs>
       <use xlink:href="#DejaVuSans-2212"/>
       <use xlink:href="#DejaVuSans-30" x="83.789062"/>
       <use xlink:href="#DejaVuSans-2e" x="147.412109"/>
       <use xlink:href="#DejaVuSans-30" x="179.199219"/>
       <use xlink:href="#DejaVuSans-38" x="242.822266"/>
      </g>
     </g>
    </g>
    <g id="ytick_23">
     <g id="line2d_69">
      <g>
       <use xlink:href="#m38cdcd1bc9" x="973.333565" y="223.482423" style="stroke: #000000; stroke-width: 0.8"/>
      </g>
     </g>
     <g id="text_64">
      <!-- −0.06 -->
      <g transform="translate(935.688253 227.281641)scale(0.1 -0.1)">
       <use xlink:href="#DejaVuSans-2212"/>
       <use xlink:href="#DejaVuSans-30" x="83.789062"/>
       <use xlink:href="#DejaVuSans-2e" x="147.412109"/>
       <use xlink:href="#DejaVuSans-30" x="179.199219"/>
       <use xlink:href="#DejaVuSans-36" x="242.822266"/>
      </g>
     </g>
    </g>
    <g id="ytick_24">
     <g id="line2d_70">
      <g>
       <use xlink:href="#m38cdcd1bc9" x="973.333565" y="198.04753" style="stroke: #000000; stroke-width: 0.8"/>
      </g>
     </g>
     <g id="text_65">
      <!-- −0.04 -->
      <g transform="translate(935.688253 201.846749)scale(0.1 -0.1)">
       <use xlink:href="#DejaVuSans-2212"/>
       <use xlink:href="#DejaVuSans-30" x="83.789062"/>
       <use xlink:href="#DejaVuSans-2e" x="147.412109"/>
       <use xlink:href="#DejaVuSans-30" x="179.199219"/>
       <use xlink:href="#DejaVuSans-34" x="242.822266"/>
      </g>
     </g>
    </g>
    <g id="ytick_25">
     <g id="line2d_71">
      <g>
       <use xlink:href="#m38cdcd1bc9" x="973.333565" y="172.612637" style="stroke: #000000; stroke-width: 0.8"/>
      </g>
     </g>
     <g id="text_66">
      <!-- −0.02 -->
      <g transform="translate(935.688253 176.411856)scale(0.1 -0.1)">
       <use xlink:href="#DejaVuSans-2212"/>
       <use xlink:href="#DejaVuSans-30" x="83.789062"/>
       <use xlink:href="#DejaVuSans-2e" x="147.412109"/>
       <use xlink:href="#DejaVuSans-30" x="179.199219"/>
       <use xlink:href="#DejaVuSans-32" x="242.822266"/>
      </g>
     </g>
    </g>
    <g id="ytick_26">
     <g id="line2d_72">
      <g>
       <use xlink:href="#m38cdcd1bc9" x="973.333565" y="147.177744" style="stroke: #000000; stroke-width: 0.8"/>
      </g>
     </g>
     <g id="text_67">
      <!-- 0.00 -->
      <g transform="translate(944.06794 150.976963)scale(0.1 -0.1)">
       <use xlink:href="#DejaVuSans-30"/>
       <use xlink:href="#DejaVuSans-2e" x="63.623047"/>
       <use xlink:href="#DejaVuSans-30" x="95.410156"/>
       <use xlink:href="#DejaVuSans-30" x="159.033203"/>
      </g>
     </g>
    </g>
    <g id="ytick_27">
     <g id="line2d_73">
      <g>
       <use xlink:href="#m38cdcd1bc9" x="973.333565" y="121.742851" style="stroke: #000000; stroke-width: 0.8"/>
      </g>
     </g>
     <g id="text_68">
      <!-- 0.02 -->
      <g transform="translate(944.06794 125.54207)scale(0.1 -0.1)">
       <use xlink:href="#DejaVuSans-30"/>
       <use xlink:href="#DejaVuSans-2e" x="63.623047"/>
       <use xlink:href="#DejaVuSans-30" x="95.410156"/>
       <use xlink:href="#DejaVuSans-32" x="159.033203"/>
      </g>
     </g>
    </g>
    <g id="ytick_28">
     <g id="line2d_74">
      <g>
       <use xlink:href="#m38cdcd1bc9" x="973.333565" y="96.307958" style="stroke: #000000; stroke-width: 0.8"/>
      </g>
     </g>
     <g id="text_69">
      <!-- 0.04 -->
      <g transform="translate(944.06794 100.107177)scale(0.1 -0.1)">
       <use xlink:href="#DejaVuSans-30"/>
       <use xlink:href="#DejaVuSans-2e" x="63.623047"/>
       <use xlink:href="#DejaVuSans-30" x="95.410156"/>
       <use xlink:href="#DejaVuSans-34" x="159.033203"/>
      </g>
     </g>
    </g>
    <g id="ytick_29">
     <g id="line2d_75">
      <g>
       <use xlink:href="#m38cdcd1bc9" x="973.333565" y="70.873066" style="stroke: #000000; stroke-width: 0.8"/>
      </g>
     </g>
     <g id="text_70">
      <!-- 0.06 -->
      <g transform="translate(944.06794 74.672284)scale(0.1 -0.1)">
       <use xlink:href="#DejaVuSans-30"/>
       <use xlink:href="#DejaVuSans-2e" x="63.623047"/>
       <use xlink:href="#DejaVuSans-30" x="95.410156"/>
       <use xlink:href="#DejaVuSans-36" x="159.033203"/>
      </g>
     </g>
    </g>
    <g id="ytick_30">
     <g id="line2d_76">
      <g>
       <use xlink:href="#m38cdcd1bc9" x="973.333565" y="45.438173" style="stroke: #000000; stroke-width: 0.8"/>
      </g>
     </g>
     <g id="text_71">
      <!-- 0.08 -->
      <g transform="translate(944.06794 49.237391)scale(0.1 -0.1)">
       <use xlink:href="#DejaVuSans-30"/>
       <use xlink:href="#DejaVuSans-2e" x="63.623047"/>
       <use xlink:href="#DejaVuSans-30" x="95.410156"/>
       <use xlink:href="#DejaVuSans-38" x="159.033203"/>
      </g>
     </g>
    </g>
   </g>
   <g id="patch_22">
    <path d="M 973.333565 256.32 
L 973.333565 34.56 
" style="fill: none; stroke: #000000; stroke-width: 0.8; stroke-linejoin: miter; stroke-linecap: square"/>
   </g>
   <g id="patch_23">
    <path d="M 1197.504 256.32 
L 1197.504 34.56 
" style="fill: none; stroke: #000000; stroke-width: 0.8; stroke-linejoin: miter; stroke-linecap: square"/>
   </g>
   <g id="patch_24">
    <path d="M 973.333565 256.32 
L 1197.504 256.32 
" style="fill: none; stroke: #000000; stroke-width: 0.8; stroke-linejoin: miter; stroke-linecap: square"/>
   </g>
   <g id="patch_25">
    <path d="M 973.333565 34.56 
L 1197.504 34.56 
" style="fill: none; stroke: #000000; stroke-width: 0.8; stroke-linejoin: miter; stroke-linecap: square"/>
   </g>
   <g id="text_72">
    <!-- Decoder -->
    <g transform="translate(1060.169095 28.56)scale(0.12 -0.12)">
     <defs>
      <path id="DejaVuSans-44" d="M 1259 4147 
L 1259 519 
L 2022 519 
Q 2988 519 3436 956 
Q 3884 1394 3884 2338 
Q 3884 3275 3436 3711 
Q 2988 4147 2022 4147 
L 1259 4147 
z
M 628 4666 
L 1925 4666 
Q 3281 4666 3915 4102 
Q 4550 3538 4550 2338 
Q 4550 1131 3912 565 
Q 3275 0 1925 0 
L 628 0 
L 628 4666 
z
" transform="scale(0.015625)"/>
     </defs>
     <use xlink:href="#DejaVuSans-44"/>
     <use xlink:href="#DejaVuSans-65" x="77.001953"/>
     <use xlink:href="#DejaVuSans-63" x="138.525391"/>
     <use xlink:href="#DejaVuSans-6f" x="193.505859"/>
     <use xlink:href="#DejaVuSans-64" x="254.6875"/>
     <use xlink:href="#DejaVuSans-65" x="318.164062"/>
     <use xlink:href="#DejaVuSans-72" x="379.6875"/>
    </g>
   </g>
   <g id="legend_4">
    <g id="patch_26">
     <path d="M 1204.504 212.1525 
L 1306.294625 212.1525 
Q 1308.294625 212.1525 1308.294625 210.1525 
L 1308.294625 152.44 
Q 1308.294625 150.44 1306.294625 150.44 
L 1204.504 150.44 
Q 1202.504 150.44 1202.504 152.44 
L 1202.504 210.1525 
Q 1202.504 212.1525 1204.504 212.1525 
z
" style="fill: #ffffff; opacity: 0.8; stroke: #cccccc; stroke-linejoin: miter"/>
    </g>
    <g id="patch_27">
     <path d="M 1206.504 162.038437 
L 1226.504 162.038437 
L 1226.504 155.038437 
L 1206.504 155.038437 
z
" style="fill: #808080; opacity: 0.2; stroke: #808080; stroke-linejoin: miter"/>
    </g>
    <g id="text_73">
     <!-- Ground truth -->
     <g transform="translate(1234.504 162.038437)scale(0.1 -0.1)">
      <defs>
       <path id="DejaVuSans-47" d="M 3809 666 
L 3809 1919 
L 2778 1919 
L 2778 2438 
L 4434 2438 
L 4434 434 
Q 4069 175 3628 42 
Q 3188 -91 2688 -91 
Q 1594 -91 976 548 
Q 359 1188 359 2328 
Q 359 3472 976 4111 
Q 1594 4750 2688 4750 
Q 3144 4750 3555 4637 
Q 3966 4525 4313 4306 
L 4313 3634 
Q 3963 3931 3569 4081 
Q 3175 4231 2741 4231 
Q 1884 4231 1454 3753 
Q 1025 3275 1025 2328 
Q 1025 1384 1454 906 
Q 1884 428 2741 428 
Q 3075 428 3337 486 
Q 3600 544 3809 666 
z
" transform="scale(0.015625)"/>
      </defs>
      <use xlink:href="#DejaVuSans-47"/>
      <use xlink:href="#DejaVuSans-72" x="77.490234"/>
      <use xlink:href="#DejaVuSans-6f" x="116.353516"/>
      <use xlink:href="#DejaVuSans-75" x="177.535156"/>
      <use xlink:href="#DejaVuSans-6e" x="240.914062"/>
      <use xlink:href="#DejaVuSans-64" x="304.292969"/>
      <use xlink:href="#DejaVuSans-20" x="367.769531"/>
      <use xlink:href="#DejaVuSans-74" x="399.556641"/>
      <use xlink:href="#DejaVuSans-72" x="438.765625"/>
      <use xlink:href="#DejaVuSans-75" x="479.878906"/>
      <use xlink:href="#DejaVuSans-74" x="543.257812"/>
      <use xlink:href="#DejaVuSans-68" x="582.466797"/>
     </g>
    </g>
    <g id="PathCollection_4">
     <g>
      <use xlink:href="#mb864f0b901" x="1216.504" y="174.091563" style="fill: #dc143c; stroke: #dc143c"/>
     </g>
    </g>
    <g id="text_74">
     <!-- no adaptation -->
     <g transform="translate(1234.504 176.716563)scale(0.1 -0.1)">
      <use xlink:href="#DejaVuSans-6e"/>
      <use xlink:href="#DejaVuSans-6f" x="63.378906"/>
      <use xlink:href="#DejaVuSans-20" x="124.560547"/>
      <use xlink:href="#DejaVuSans-61" x="156.347656"/>
      <use xlink:href="#DejaVuSans-64" x="217.626953"/>
      <use xlink:href="#DejaVuSans-61" x="281.103516"/>
      <use xlink:href="#DejaVuSans-70" x="342.382812"/>
      <use xlink:href="#DejaVuSans-74" x="405.859375"/>
      <use xlink:href="#DejaVuSans-61" x="445.068359"/>
      <use xlink:href="#DejaVuSans-74" x="506.347656"/>
      <use xlink:href="#DejaVuSans-69" x="545.556641"/>
      <use xlink:href="#DejaVuSans-6f" x="573.339844"/>
      <use xlink:href="#DejaVuSans-6e" x="634.521484"/>
     </g>
    </g>
    <g id="PathCollection_5">
     <g>
      <use xlink:href="#m293f50dcf2" x="1216.504" y="188.769688" style="fill: #00bfff; stroke: #00bfff"/>
     </g>
    </g>
    <g id="text_75">
     <!-- exp. decay -->
     <g transform="translate(1234.504 191.394688)scale(0.1 -0.1)">
      <use xlink:href="#DejaVuSans-65"/>
      <use xlink:href="#DejaVuSans-78" x="59.773438"/>
      <use xlink:href="#DejaVuSans-70" x="118.953125"/>
      <use xlink:href="#DejaVuSans-2e" x="182.429688"/>
      <use xlink:href="#DejaVuSans-20" x="214.216797"/>
      <use xlink:href="#DejaVuSans-64" x="246.003906"/>
      <use xlink:href="#DejaVuSans-65" x="309.480469"/>
      <use xlink:href="#DejaVuSans-63" x="371.003906"/>
      <use xlink:href="#DejaVuSans-61" x="425.984375"/>
      <use xlink:href="#DejaVuSans-79" x="487.263672"/>
     </g>
    </g>
    <g id="PathCollection_6">
     <g>
      <use xlink:href="#m5c80427532" x="1216.504" y="203.447812" style="fill: #ffa500; stroke: #ffa500"/>
     </g>
    </g>
    <g id="text_76">
     <!-- div. norm. -->
     <g transform="translate(1234.504 206.072812)scale(0.1 -0.1)">
      <use xlink:href="#DejaVuSans-64"/>
      <use xlink:href="#DejaVuSans-69" x="63.476562"/>
      <use xlink:href="#DejaVuSans-76" x="91.259766"/>
      <use xlink:href="#DejaVuSans-2e" x="142.689453"/>
      <use xlink:href="#DejaVuSans-20" x="174.476562"/>
      <use xlink:href="#DejaVuSans-6e" x="206.263672"/>
      <use xlink:href="#DejaVuSans-6f" x="269.642578"/>
      <use xlink:href="#DejaVuSans-72" x="330.824219"/>
      <use xlink:href="#DejaVuSans-6d" x="370.1875"/>
      <use xlink:href="#DejaVuSans-2e" x="467.599609"/>
     </g>
    </g>
   </g>
  </g>
 </g>
 <defs>
  <clipPath id="p67441d2a9c">
   <rect x="166.32" y="34.56" width="224.170435" height="221.76"/>
  </clipPath>
  <clipPath id="pe5bc85d903">
   <rect x="435.324522" y="34.56" width="224.170435" height="221.76"/>
  </clipPath>
  <clipPath id="pc9cb842855">
   <rect x="704.329043" y="34.56" width="224.170435" height="221.76"/>
  </clipPath>
  <clipPath id="pe29ea6a096">
   <rect x="973.333565" y="34.56" width="224.170435" height="221.76"/>
  </clipPath>
 </defs>
</svg>
