<?xml version="1.0" encoding="utf-8" standalone="no"?>
<!DOCTYPE svg PUBLIC "-//W3C//DTD SVG 1.1//EN"
  "http://www.w3.org/Graphics/SVG/1.1/DTD/svg11.dtd">
<svg xmlns:xlink="http://www.w3.org/1999/xlink" width="1440pt" height="288pt" viewBox="0 0 1440 288" xmlns="http://www.w3.org/2000/svg" version="1.1">
 <metadata>
  <rdf:RDF xmlns:dc="http://purl.org/dc/elements/1.1/" xmlns:cc="http://creativecommons.org/ns#" xmlns:rdf="http://www.w3.org/1999/02/22-rdf-syntax-ns#">
   <cc:Work>
    <dc:type rdf:resource="http://purl.org/dc/dcmitype/StillImage"/>
    <dc:date>2023-01-10T11:02:47.246192</dc:date>
    <dc:format>image/svg+xml</dc:format>
    <dc:creator>
     <cc:Agent>
      <dc:title>Matplotlib v3.5.1, https://matplotlib.org/</dc:title>
     </cc:Agent>
    </dc:creator>
   </cc:Work>
  </rdf:RDF>
 </metadata>
 <defs>
  <style type="text/css">*{stroke-linejoin: round; stroke-linecap: butt}</style>
 </defs>
 <g id="figure_1">
  <g id="patch_1">
   <path d="M 0 288 
L 1440 288 
L 1440 0 
L 0 0 
z
" style="fill: #ffffff"/>
  </g>
  <g id="axes_1">
   <g id="patch_2">
    <path d="M 180 256.32 
L 422.608696 256.32 
L 422.608696 34.56 
L 180 34.56 
z
" style="fill: #ffffff"/>
   </g>
   <g id="patch_3">
    <path d="M 194.765861 256.32 
L 194.765861 34.56 
L 269.529711 34.56 
L 269.529711 256.32 
z
" clip-path="url(#p8d53ac257f)" style="fill: #808080; opacity: 0.05; stroke: #808080; stroke-linejoin: miter"/>
   </g>
   <g id="patch_4">
    <path d="M 340.555369 256.32 
L 340.555369 34.56 
L 396.628258 34.56 
L 396.628258 256.32 
z
" clip-path="url(#p8d53ac257f)" style="fill: #808080; opacity: 0.05; stroke: #808080; stroke-linejoin: miter"/>
   </g>
   <g id="patch_5">
    <path d="M 194.765861 256.32 
L 194.765861 34.56 
L 269.529711 34.56 
L 269.529711 256.32 
z
" clip-path="url(#p8d53ac257f)" style="fill: #808080; opacity: 0.05; stroke: #808080; stroke-linejoin: miter"/>
   </g>
   <g id="patch_6">
    <path d="M 340.555369 256.32 
L 340.555369 34.56 
L 396.628258 34.56 
L 396.628258 256.32 
z
" clip-path="url(#p8d53ac257f)" style="fill: #808080; opacity: 0.05; stroke: #808080; stroke-linejoin: miter"/>
   </g>
   <g id="patch_7">
    <path d="M 194.765861 256.32 
L 194.765861 34.56 
L 269.529711 34.56 
L 269.529711 256.32 
z
" clip-path="url(#p8d53ac257f)" style="fill: #808080; opacity: 0.05; stroke: #808080; stroke-linejoin: miter"/>
   </g>
   <g id="patch_8">
    <path d="M 340.555369 256.32 
L 340.555369 34.56 
L 396.628258 34.56 
L 396.628258 256.32 
z
" clip-path="url(#p8d53ac257f)" style="fill: #808080; opacity: 0.05; stroke: #808080; stroke-linejoin: miter"/>
   </g>
   <g id="patch_9">
    <path d="M 194.765861 256.32 
L 194.765861 34.56 
L 269.529711 34.56 
L 269.529711 256.32 
z
" clip-path="url(#p8d53ac257f)" style="fill: #808080; opacity: 0.05; stroke: #808080; stroke-linejoin: miter"/>
   </g>
   <g id="patch_10">
    <path d="M 340.555369 256.32 
L 340.555369 34.56 
L 396.628258 34.56 
L 396.628258 256.32 
z
" clip-path="url(#p8d53ac257f)" style="fill: #808080; opacity: 0.05; stroke: #808080; stroke-linejoin: miter"/>
   </g>
   <g id="matplotlib.axis_1">
    <g id="xtick_1">
     <g id="line2d_1">
      <defs>
       <path id="m3af63f72fc" d="M 0 0 
L 0 3.5 
" style="stroke: #000000; stroke-width: 0.8"/>
      </defs>
      <g>
       <use xlink:href="#m3af63f72fc" x="191.027668" y="256.32" style="stroke: #000000; stroke-width: 0.8"/>
      </g>
     </g>
     <g id="text_1">
      <!-- 0 -->
      <g transform="translate(187.846418 270.918437)scale(0.1 -0.1)">
       <defs>
        <path id="DejaVuSans-30" d="M 2034 4250 
Q 1547 4250 1301 3770 
Q 1056 3291 1056 2328 
Q 1056 1369 1301 889 
Q 1547 409 2034 409 
Q 2525 409 2770 889 
Q 3016 1369 3016 2328 
Q 3016 3291 2770 3770 
Q 2525 4250 2034 4250 
z
M 2034 4750 
Q 2819 4750 3233 4129 
Q 3647 3509 3647 2328 
Q 3647 1150 3233 529 
Q 2819 -91 2034 -91 
Q 1250 -91 836 529 
Q 422 1150 422 2328 
Q 422 3509 836 4129 
Q 1250 4750 2034 4750 
z
" transform="scale(0.015625)"/>
       </defs>
       <use xlink:href="#DejaVuSans-30"/>
      </g>
     </g>
    </g>
    <g id="xtick_2">
     <g id="line2d_2">
      <g>
       <use xlink:href="#m3af63f72fc" x="228.409593" y="256.32" style="stroke: #000000; stroke-width: 0.8"/>
      </g>
     </g>
     <g id="text_2">
      <!-- 10 -->
      <g transform="translate(222.047093 270.918437)scale(0.1 -0.1)">
       <defs>
        <path id="DejaVuSans-31" d="M 794 531 
L 1825 531 
L 1825 4091 
L 703 3866 
L 703 4441 
L 1819 4666 
L 2450 4666 
L 2450 531 
L 3481 531 
L 3481 0 
L 794 0 
L 794 531 
z
" transform="scale(0.015625)"/>
       </defs>
       <use xlink:href="#DejaVuSans-31"/>
       <use xlink:href="#DejaVuSans-30" x="63.623047"/>
      </g>
     </g>
    </g>
    <g id="xtick_3">
     <g id="line2d_3">
      <g>
       <use xlink:href="#m3af63f72fc" x="265.791519" y="256.32" style="stroke: #000000; stroke-width: 0.8"/>
      </g>
     </g>
     <g id="text_3">
      <!-- 20 -->
      <g transform="translate(259.429019 270.918437)scale(0.1 -0.1)">
       <defs>
        <path id="DejaVuSans-32" d="M 1228 531 
L 3431 531 
L 3431 0 
L 469 0 
L 469 531 
Q 828 903 1448 1529 
Q 2069 2156 2228 2338 
Q 2531 2678 2651 2914 
Q 2772 3150 2772 3378 
Q 2772 3750 2511 3984 
Q 2250 4219 1831 4219 
Q 1534 4219 1204 4116 
Q 875 4013 500 3803 
L 500 4441 
Q 881 4594 1212 4672 
Q 1544 4750 1819 4750 
Q 2544 4750 2975 4387 
Q 3406 4025 3406 3419 
Q 3406 3131 3298 2873 
Q 3191 2616 2906 2266 
Q 2828 2175 2409 1742 
Q 1991 1309 1228 531 
z
" transform="scale(0.015625)"/>
       </defs>
       <use xlink:href="#DejaVuSans-32"/>
       <use xlink:href="#DejaVuSans-30" x="63.623047"/>
      </g>
     </g>
    </g>
    <g id="xtick_4">
     <g id="line2d_4">
      <g>
       <use xlink:href="#m3af63f72fc" x="303.173444" y="256.32" style="stroke: #000000; stroke-width: 0.8"/>
      </g>
     </g>
     <g id="text_4">
      <!-- 30 -->
      <g transform="translate(296.810944 270.918437)scale(0.1 -0.1)">
       <defs>
        <path id="DejaVuSans-33" d="M 2597 2516 
Q 3050 2419 3304 2112 
Q 3559 1806 3559 1356 
Q 3559 666 3084 287 
Q 2609 -91 1734 -91 
Q 1441 -91 1130 -33 
Q 819 25 488 141 
L 488 750 
Q 750 597 1062 519 
Q 1375 441 1716 441 
Q 2309 441 2620 675 
Q 2931 909 2931 1356 
Q 2931 1769 2642 2001 
Q 2353 2234 1838 2234 
L 1294 2234 
L 1294 2753 
L 1863 2753 
Q 2328 2753 2575 2939 
Q 2822 3125 2822 3475 
Q 2822 3834 2567 4026 
Q 2313 4219 1838 4219 
Q 1578 4219 1281 4162 
Q 984 4106 628 3988 
L 628 4550 
Q 988 4650 1302 4700 
Q 1616 4750 1894 4750 
Q 2613 4750 3031 4423 
Q 3450 4097 3450 3541 
Q 3450 3153 3228 2886 
Q 3006 2619 2597 2516 
z
" transform="scale(0.015625)"/>
       </defs>
       <use xlink:href="#DejaVuSans-33"/>
       <use xlink:href="#DejaVuSans-30" x="63.623047"/>
      </g>
     </g>
    </g>
    <g id="xtick_5">
     <g id="line2d_5">
      <g>
       <use xlink:href="#m3af63f72fc" x="340.555369" y="256.32" style="stroke: #000000; stroke-width: 0.8"/>
      </g>
     </g>
     <g id="text_5">
      <!-- 40 -->
      <g transform="translate(334.192869 270.918437)scale(0.1 -0.1)">
       <defs>
        <path id="DejaVuSans-34" d="M 2419 4116 
L 825 1625 
L 2419 1625 
L 2419 4116 
z
M 2253 4666 
L 3047 4666 
L 3047 1625 
L 3713 1625 
L 3713 1100 
L 3047 1100 
L 3047 0 
L 2419 0 
L 2419 1100 
L 313 1100 
L 313 1709 
L 2253 4666 
z
" transform="scale(0.015625)"/>
       </defs>
       <use xlink:href="#DejaVuSans-34"/>
       <use xlink:href="#DejaVuSans-30" x="63.623047"/>
      </g>
     </g>
    </g>
    <g id="xtick_6">
     <g id="line2d_6">
      <g>
       <use xlink:href="#m3af63f72fc" x="377.937295" y="256.32" style="stroke: #000000; stroke-width: 0.8"/>
      </g>
     </g>
     <g id="text_6">
      <!-- 50 -->
      <g transform="translate(371.574795 270.918437)scale(0.1 -0.1)">
       <defs>
        <path id="DejaVuSans-35" d="M 691 4666 
L 3169 4666 
L 3169 4134 
L 1269 4134 
L 1269 2991 
Q 1406 3038 1543 3061 
Q 1681 3084 1819 3084 
Q 2600 3084 3056 2656 
Q 3513 2228 3513 1497 
Q 3513 744 3044 326 
Q 2575 -91 1722 -91 
Q 1428 -91 1123 -41 
Q 819 9 494 109 
L 494 744 
Q 775 591 1075 516 
Q 1375 441 1709 441 
Q 2250 441 2565 725 
Q 2881 1009 2881 1497 
Q 2881 1984 2565 2268 
Q 2250 2553 1709 2553 
Q 1456 2553 1204 2497 
Q 953 2441 691 2322 
L 691 4666 
z
" transform="scale(0.015625)"/>
       </defs>
       <use xlink:href="#DejaVuSans-35"/>
       <use xlink:href="#DejaVuSans-30" x="63.623047"/>
      </g>
     </g>
    </g>
    <g id="xtick_7">
     <g id="line2d_7">
      <g>
       <use xlink:href="#m3af63f72fc" x="415.31922" y="256.32" style="stroke: #000000; stroke-width: 0.8"/>
      </g>
     </g>
     <g id="text_7">
      <!-- 60 -->
      <g transform="translate(408.95672 270.918437)scale(0.1 -0.1)">
       <defs>
        <path id="DejaVuSans-36" d="M 2113 2584 
Q 1688 2584 1439 2293 
Q 1191 2003 1191 1497 
Q 1191 994 1439 701 
Q 1688 409 2113 409 
Q 2538 409 2786 701 
Q 3034 994 3034 1497 
Q 3034 2003 2786 2293 
Q 2538 2584 2113 2584 
z
M 3366 4563 
L 3366 3988 
Q 3128 4100 2886 4159 
Q 2644 4219 2406 4219 
Q 1781 4219 1451 3797 
Q 1122 3375 1075 2522 
Q 1259 2794 1537 2939 
Q 1816 3084 2150 3084 
Q 2853 3084 3261 2657 
Q 3669 2231 3669 1497 
Q 3669 778 3244 343 
Q 2819 -91 2113 -91 
Q 1303 -91 875 529 
Q 447 1150 447 2328 
Q 447 3434 972 4092 
Q 1497 4750 2381 4750 
Q 2619 4750 2861 4703 
Q 3103 4656 3366 4563 
z
" transform="scale(0.015625)"/>
       </defs>
       <use xlink:href="#DejaVuSans-36"/>
       <use xlink:href="#DejaVuSans-30" x="63.623047"/>
      </g>
     </g>
    </g>
    <g id="text_8">
     <!-- Model timesteps -->
     <g transform="translate(259.985598 284.596563)scale(0.1 -0.1)">
      <defs>
       <path id="DejaVuSans-4d" d="M 628 4666 
L 1569 4666 
L 2759 1491 
L 3956 4666 
L 4897 4666 
L 4897 0 
L 4281 0 
L 4281 4097 
L 3078 897 
L 2444 897 
L 1241 4097 
L 1241 0 
L 628 0 
L 628 4666 
z
" transform="scale(0.015625)"/>
       <path id="DejaVuSans-6f" d="M 1959 3097 
Q 1497 3097 1228 2736 
Q 959 2375 959 1747 
Q 959 1119 1226 758 
Q 1494 397 1959 397 
Q 2419 397 2687 759 
Q 2956 1122 2956 1747 
Q 2956 2369 2687 2733 
Q 2419 3097 1959 3097 
z
M 1959 3584 
Q 2709 3584 3137 3096 
Q 3566 2609 3566 1747 
Q 3566 888 3137 398 
Q 2709 -91 1959 -91 
Q 1206 -91 779 398 
Q 353 888 353 1747 
Q 353 2609 779 3096 
Q 1206 3584 1959 3584 
z
" transform="scale(0.015625)"/>
       <path id="DejaVuSans-64" d="M 2906 2969 
L 2906 4863 
L 3481 4863 
L 3481 0 
L 2906 0 
L 2906 525 
Q 2725 213 2448 61 
Q 2172 -91 1784 -91 
Q 1150 -91 751 415 
Q 353 922 353 1747 
Q 353 2572 751 3078 
Q 1150 3584 1784 3584 
Q 2172 3584 2448 3432 
Q 2725 3281 2906 2969 
z
M 947 1747 
Q 947 1113 1208 752 
Q 1469 391 1925 391 
Q 2381 391 2643 752 
Q 2906 1113 2906 1747 
Q 2906 2381 2643 2742 
Q 2381 3103 1925 3103 
Q 1469 3103 1208 2742 
Q 947 2381 947 1747 
z
" transform="scale(0.015625)"/>
       <path id="DejaVuSans-65" d="M 3597 1894 
L 3597 1613 
L 953 1613 
Q 991 1019 1311 708 
Q 1631 397 2203 397 
Q 2534 397 2845 478 
Q 3156 559 3463 722 
L 3463 178 
Q 3153 47 2828 -22 
Q 2503 -91 2169 -91 
Q 1331 -91 842 396 
Q 353 884 353 1716 
Q 353 2575 817 3079 
Q 1281 3584 2069 3584 
Q 2775 3584 3186 3129 
Q 3597 2675 3597 1894 
z
M 3022 2063 
Q 3016 2534 2758 2815 
Q 2500 3097 2075 3097 
Q 1594 3097 1305 2825 
Q 1016 2553 972 2059 
L 3022 2063 
z
" transform="scale(0.015625)"/>
       <path id="DejaVuSans-6c" d="M 603 4863 
L 1178 4863 
L 1178 0 
L 603 0 
L 603 4863 
z
" transform="scale(0.015625)"/>
       <path id="DejaVuSans-20" transform="scale(0.015625)"/>
       <path id="DejaVuSans-74" d="M 1172 4494 
L 1172 3500 
L 2356 3500 
L 2356 3053 
L 1172 3053 
L 1172 1153 
Q 1172 725 1289 603 
Q 1406 481 1766 481 
L 2356 481 
L 2356 0 
L 1766 0 
Q 1100 0 847 248 
Q 594 497 594 1153 
L 594 3053 
L 172 3053 
L 172 3500 
L 594 3500 
L 594 4494 
L 1172 4494 
z
" transform="scale(0.015625)"/>
       <path id="DejaVuSans-69" d="M 603 3500 
L 1178 3500 
L 1178 0 
L 603 0 
L 603 3500 
z
M 603 4863 
L 1178 4863 
L 1178 4134 
L 603 4134 
L 603 4863 
z
" transform="scale(0.015625)"/>
       <path id="DejaVuSans-6d" d="M 3328 2828 
Q 3544 3216 3844 3400 
Q 4144 3584 4550 3584 
Q 5097 3584 5394 3201 
Q 5691 2819 5691 2113 
L 5691 0 
L 5113 0 
L 5113 2094 
Q 5113 2597 4934 2840 
Q 4756 3084 4391 3084 
Q 3944 3084 3684 2787 
Q 3425 2491 3425 1978 
L 3425 0 
L 2847 0 
L 2847 2094 
Q 2847 2600 2669 2842 
Q 2491 3084 2119 3084 
Q 1678 3084 1418 2786 
Q 1159 2488 1159 1978 
L 1159 0 
L 581 0 
L 581 3500 
L 1159 3500 
L 1159 2956 
Q 1356 3278 1631 3431 
Q 1906 3584 2284 3584 
Q 2666 3584 2933 3390 
Q 3200 3197 3328 2828 
z
" transform="scale(0.015625)"/>
       <path id="DejaVuSans-73" d="M 2834 3397 
L 2834 2853 
Q 2591 2978 2328 3040 
Q 2066 3103 1784 3103 
Q 1356 3103 1142 2972 
Q 928 2841 928 2578 
Q 928 2378 1081 2264 
Q 1234 2150 1697 2047 
L 1894 2003 
Q 2506 1872 2764 1633 
Q 3022 1394 3022 966 
Q 3022 478 2636 193 
Q 2250 -91 1575 -91 
Q 1294 -91 989 -36 
Q 684 19 347 128 
L 347 722 
Q 666 556 975 473 
Q 1284 391 1588 391 
Q 1994 391 2212 530 
Q 2431 669 2431 922 
Q 2431 1156 2273 1281 
Q 2116 1406 1581 1522 
L 1381 1569 
Q 847 1681 609 1914 
Q 372 2147 372 2553 
Q 372 3047 722 3315 
Q 1072 3584 1716 3584 
Q 2034 3584 2315 3537 
Q 2597 3491 2834 3397 
z
" transform="scale(0.015625)"/>
       <path id="DejaVuSans-70" d="M 1159 525 
L 1159 -1331 
L 581 -1331 
L 581 3500 
L 1159 3500 
L 1159 2969 
Q 1341 3281 1617 3432 
Q 1894 3584 2278 3584 
Q 2916 3584 3314 3078 
Q 3713 2572 3713 1747 
Q 3713 922 3314 415 
Q 2916 -91 2278 -91 
Q 1894 -91 1617 61 
Q 1341 213 1159 525 
z
M 3116 1747 
Q 3116 2381 2855 2742 
Q 2594 3103 2138 3103 
Q 1681 3103 1420 2742 
Q 1159 2381 1159 1747 
Q 1159 1113 1420 752 
Q 1681 391 2138 391 
Q 2594 391 2855 752 
Q 3116 1113 3116 1747 
z
" transform="scale(0.015625)"/>
      </defs>
      <use xlink:href="#DejaVuSans-4d"/>
      <use xlink:href="#DejaVuSans-6f" x="86.279297"/>
      <use xlink:href="#DejaVuSans-64" x="147.460938"/>
      <use xlink:href="#DejaVuSans-65" x="210.9375"/>
      <use xlink:href="#DejaVuSans-6c" x="272.460938"/>
      <use xlink:href="#DejaVuSans-20" x="300.244141"/>
      <use xlink:href="#DejaVuSans-74" x="332.03125"/>
      <use xlink:href="#DejaVuSans-69" x="371.240234"/>
      <use xlink:href="#DejaVuSans-6d" x="399.023438"/>
      <use xlink:href="#DejaVuSans-65" x="496.435547"/>
      <use xlink:href="#DejaVuSans-73" x="557.958984"/>
      <use xlink:href="#DejaVuSans-74" x="610.058594"/>
      <use xlink:href="#DejaVuSans-65" x="649.267578"/>
      <use xlink:href="#DejaVuSans-70" x="710.791016"/>
      <use xlink:href="#DejaVuSans-73" x="774.267578"/>
     </g>
    </g>
   </g>
   <g id="matplotlib.axis_2">
    <g id="ytick_1">
     <g id="line2d_8">
      <defs>
       <path id="m73ca944204" d="M 0 0 
L -3.5 0 
" style="stroke: #000000; stroke-width: 0.8"/>
      </defs>
      <g>
       <use xlink:href="#m73ca944204" x="180" y="235.527162" style="stroke: #000000; stroke-width: 0.8"/>
      </g>
     </g>
     <g id="text_9">
      <!-- 0.0 -->
      <g transform="translate(157.096875 239.326381)scale(0.1 -0.1)">
       <defs>
        <path id="DejaVuSans-2e" d="M 684 794 
L 1344 794 
L 1344 0 
L 684 0 
L 684 794 
z
" transform="scale(0.015625)"/>
       </defs>
       <use xlink:href="#DejaVuSans-30"/>
       <use xlink:href="#DejaVuSans-2e" x="63.623047"/>
       <use xlink:href="#DejaVuSans-30" x="95.410156"/>
      </g>
     </g>
    </g>
    <g id="ytick_2">
     <g id="line2d_9">
      <g>
       <use xlink:href="#m73ca944204" x="180" y="208.92976" style="stroke: #000000; stroke-width: 0.8"/>
      </g>
     </g>
     <g id="text_10">
      <!-- 0.1 -->
      <g transform="translate(157.096875 212.728979)scale(0.1 -0.1)">
       <use xlink:href="#DejaVuSans-30"/>
       <use xlink:href="#DejaVuSans-2e" x="63.623047"/>
       <use xlink:href="#DejaVuSans-31" x="95.410156"/>
      </g>
     </g>
    </g>
    <g id="ytick_3">
     <g id="line2d_10">
      <g>
       <use xlink:href="#m73ca944204" x="180" y="182.332358" style="stroke: #000000; stroke-width: 0.8"/>
      </g>
     </g>
     <g id="text_11">
      <!-- 0.2 -->
      <g transform="translate(157.096875 186.131577)scale(0.1 -0.1)">
       <use xlink:href="#DejaVuSans-30"/>
       <use xlink:href="#DejaVuSans-2e" x="63.623047"/>
       <use xlink:href="#DejaVuSans-32" x="95.410156"/>
      </g>
     </g>
    </g>
    <g id="ytick_4">
     <g id="line2d_11">
      <g>
       <use xlink:href="#m73ca944204" x="180" y="155.734956" style="stroke: #000000; stroke-width: 0.8"/>
      </g>
     </g>
     <g id="text_12">
      <!-- 0.3 -->
      <g transform="translate(157.096875 159.534175)scale(0.1 -0.1)">
       <use xlink:href="#DejaVuSans-30"/>
       <use xlink:href="#DejaVuSans-2e" x="63.623047"/>
       <use xlink:href="#DejaVuSans-33" x="95.410156"/>
      </g>
     </g>
    </g>
    <g id="ytick_5">
     <g id="line2d_12">
      <g>
       <use xlink:href="#m73ca944204" x="180" y="129.137554" style="stroke: #000000; stroke-width: 0.8"/>
      </g>
     </g>
     <g id="text_13">
      <!-- 0.4 -->
      <g transform="translate(157.096875 132.936773)scale(0.1 -0.1)">
       <use xlink:href="#DejaVuSans-30"/>
       <use xlink:href="#DejaVuSans-2e" x="63.623047"/>
       <use xlink:href="#DejaVuSans-34" x="95.410156"/>
      </g>
     </g>
    </g>
    <g id="ytick_6">
     <g id="line2d_13">
      <g>
       <use xlink:href="#m73ca944204" x="180" y="102.540152" style="stroke: #000000; stroke-width: 0.8"/>
      </g>
     </g>
     <g id="text_14">
      <!-- 0.5 -->
      <g transform="translate(157.096875 106.33937)scale(0.1 -0.1)">
       <use xlink:href="#DejaVuSans-30"/>
       <use xlink:href="#DejaVuSans-2e" x="63.623047"/>
       <use xlink:href="#DejaVuSans-35" x="95.410156"/>
      </g>
     </g>
    </g>
    <g id="ytick_7">
     <g id="line2d_14">
      <g>
       <use xlink:href="#m73ca944204" x="180" y="75.94275" style="stroke: #000000; stroke-width: 0.8"/>
      </g>
     </g>
     <g id="text_15">
      <!-- 0.6 -->
      <g transform="translate(157.096875 79.741968)scale(0.1 -0.1)">
       <use xlink:href="#DejaVuSans-30"/>
       <use xlink:href="#DejaVuSans-2e" x="63.623047"/>
       <use xlink:href="#DejaVuSans-36" x="95.410156"/>
      </g>
     </g>
    </g>
    <g id="ytick_8">
     <g id="line2d_15">
      <g>
       <use xlink:href="#m73ca944204" x="180" y="49.345348" style="stroke: #000000; stroke-width: 0.8"/>
      </g>
     </g>
     <g id="text_16">
      <!-- 0.7 -->
      <g transform="translate(157.096875 53.144566)scale(0.1 -0.1)">
       <defs>
        <path id="DejaVuSans-37" d="M 525 4666 
L 3525 4666 
L 3525 4397 
L 1831 0 
L 1172 0 
L 2766 4134 
L 525 4134 
L 525 4666 
z
" transform="scale(0.015625)"/>
       </defs>
       <use xlink:href="#DejaVuSans-30"/>
       <use xlink:href="#DejaVuSans-2e" x="63.623047"/>
       <use xlink:href="#DejaVuSans-37" x="95.410156"/>
      </g>
     </g>
    </g>
    <g id="text_17">
     <!-- Model output (a.u.) -->
     <g transform="translate(151.017188 193.435313)rotate(-90)scale(0.1 -0.1)">
      <defs>
       <path id="DejaVuSans-75" d="M 544 1381 
L 544 3500 
L 1119 3500 
L 1119 1403 
Q 1119 906 1312 657 
Q 1506 409 1894 409 
Q 2359 409 2629 706 
Q 2900 1003 2900 1516 
L 2900 3500 
L 3475 3500 
L 3475 0 
L 2900 0 
L 2900 538 
Q 2691 219 2414 64 
Q 2138 -91 1772 -91 
Q 1169 -91 856 284 
Q 544 659 544 1381 
z
M 1991 3584 
L 1991 3584 
z
" transform="scale(0.015625)"/>
       <path id="DejaVuSans-28" d="M 1984 4856 
Q 1566 4138 1362 3434 
Q 1159 2731 1159 2009 
Q 1159 1288 1364 580 
Q 1569 -128 1984 -844 
L 1484 -844 
Q 1016 -109 783 600 
Q 550 1309 550 2009 
Q 550 2706 781 3412 
Q 1013 4119 1484 4856 
L 1984 4856 
z
" transform="scale(0.015625)"/>
       <path id="DejaVuSans-61" d="M 2194 1759 
Q 1497 1759 1228 1600 
Q 959 1441 959 1056 
Q 959 750 1161 570 
Q 1363 391 1709 391 
Q 2188 391 2477 730 
Q 2766 1069 2766 1631 
L 2766 1759 
L 2194 1759 
z
M 3341 1997 
L 3341 0 
L 2766 0 
L 2766 531 
Q 2569 213 2275 61 
Q 1981 -91 1556 -91 
Q 1019 -91 701 211 
Q 384 513 384 1019 
Q 384 1609 779 1909 
Q 1175 2209 1959 2209 
L 2766 2209 
L 2766 2266 
Q 2766 2663 2505 2880 
Q 2244 3097 1772 3097 
Q 1472 3097 1187 3025 
Q 903 2953 641 2809 
L 641 3341 
Q 956 3463 1253 3523 
Q 1550 3584 1831 3584 
Q 2591 3584 2966 3190 
Q 3341 2797 3341 1997 
z
" transform="scale(0.015625)"/>
       <path id="DejaVuSans-29" d="M 513 4856 
L 1013 4856 
Q 1481 4119 1714 3412 
Q 1947 2706 1947 2009 
Q 1947 1309 1714 600 
Q 1481 -109 1013 -844 
L 513 -844 
Q 928 -128 1133 580 
Q 1338 1288 1338 2009 
Q 1338 2731 1133 3434 
Q 928 4138 513 4856 
z
" transform="scale(0.015625)"/>
      </defs>
      <use xlink:href="#DejaVuSans-4d"/>
      <use xlink:href="#DejaVuSans-6f" x="86.279297"/>
      <use xlink:href="#DejaVuSans-64" x="147.460938"/>
      <use xlink:href="#DejaVuSans-65" x="210.9375"/>
      <use xlink:href="#DejaVuSans-6c" x="272.460938"/>
      <use xlink:href="#DejaVuSans-20" x="300.244141"/>
      <use xlink:href="#DejaVuSans-6f" x="332.03125"/>
      <use xlink:href="#DejaVuSans-75" x="393.212891"/>
      <use xlink:href="#DejaVuSans-74" x="456.591797"/>
      <use xlink:href="#DejaVuSans-70" x="495.800781"/>
      <use xlink:href="#DejaVuSans-75" x="559.277344"/>
      <use xlink:href="#DejaVuSans-74" x="622.65625"/>
      <use xlink:href="#DejaVuSans-20" x="661.865234"/>
      <use xlink:href="#DejaVuSans-28" x="693.652344"/>
      <use xlink:href="#DejaVuSans-61" x="732.666016"/>
      <use xlink:href="#DejaVuSans-2e" x="793.945312"/>
      <use xlink:href="#DejaVuSans-75" x="825.732422"/>
      <use xlink:href="#DejaVuSans-2e" x="889.111328"/>
      <use xlink:href="#DejaVuSans-29" x="920.898438"/>
     </g>
    </g>
   </g>
   <g id="line2d_16">
    <path d="M 191.027668 168.427824 
L 194.765861 165.788323 
L 198.504053 165.788323 
L 202.242246 165.788323 
L 205.980438 165.788323 
L 209.718631 165.788323 
L 213.456823 165.788323 
L 217.195016 165.788323 
L 220.933208 165.788323 
L 224.671401 165.788323 
L 228.409593 165.788323 
L 232.147786 165.788323 
L 235.885978 165.788323 
L 239.624171 165.788323 
L 243.362364 165.788323 
L 247.100556 165.788323 
L 250.838749 165.788323 
L 254.576941 165.788323 
L 258.315134 165.788323 
L 262.053326 165.788323 
L 265.791519 165.788323 
L 269.529711 168.427824 
L 273.267904 168.427824 
L 277.006096 168.427824 
L 280.744289 168.427824 
L 284.482481 168.427824 
L 288.220674 168.427824 
L 291.958866 168.427824 
L 295.697059 168.427824 
L 299.435252 168.427824 
L 303.173444 168.427824 
L 306.911637 168.427824 
L 310.649829 168.427824 
L 314.388022 168.427824 
L 318.126214 168.427824 
L 321.864407 168.427824 
L 325.602599 168.427824 
L 329.340792 168.427824 
L 333.078984 168.427824 
L 336.817177 168.427824 
L 340.555369 147.36276 
L 344.293562 147.36276 
L 348.031755 147.36276 
L 351.769947 147.36276 
L 355.50814 147.36276 
L 359.246332 147.36276 
L 362.984525 147.36276 
L 366.722717 147.36276 
L 370.46091 147.36276 
L 374.199102 147.36276 
L 377.937295 147.36276 
L 381.675487 147.36276 
L 385.41368 147.36276 
L 389.151872 147.36276 
L 392.890065 147.36276 
L 396.628258 168.427824 
L 400.36645 168.427824 
L 404.104643 168.427824 
L 407.842835 168.427824 
L 411.581028 168.427824 
" clip-path="url(#p8d53ac257f)" style="fill: none; stroke: #0d0887; stroke-width: 3; stroke-linecap: square"/>
   </g>
   <g id="line2d_17">
    <path d="M 191.027668 59.726749 
L 194.765861 125.045938 
L 198.504053 125.045938 
L 202.242246 125.045938 
L 205.980438 125.045938 
L 209.718631 125.045938 
L 213.456823 125.045938 
L 217.195016 125.045938 
L 220.933208 125.045938 
L 224.671401 125.045938 
L 228.409593 125.045938 
L 232.147786 125.045938 
L 235.885978 125.045938 
L 239.624171 125.045938 
L 243.362364 125.045938 
L 247.100556 125.045938 
L 250.838749 125.045938 
L 254.576941 125.045938 
L 258.315134 125.045938 
L 262.053326 125.045938 
L 265.791519 125.045938 
L 269.529711 59.726749 
L 273.267904 59.726749 
L 277.006096 59.726749 
L 280.744289 59.726749 
L 284.482481 59.726749 
L 288.220674 59.726749 
L 291.958866 59.726749 
L 295.697059 59.726749 
L 299.435252 59.726749 
L 303.173444 59.726749 
L 306.911637 59.726749 
L 310.649829 59.726749 
L 314.388022 59.726749 
L 318.126214 59.726749 
L 321.864407 59.726749 
L 325.602599 59.726749 
L 329.340792 59.726749 
L 333.078984 59.726749 
L 336.817177 59.726749 
L 340.555369 44.64 
L 344.293562 44.64 
L 348.031755 44.64 
L 351.769947 44.64 
L 355.50814 44.64 
L 359.246332 44.64 
L 362.984525 44.64 
L 366.722717 44.64 
L 370.46091 44.64 
L 374.199102 44.64 
L 377.937295 44.64 
L 381.675487 44.64 
L 385.41368 44.64 
L 389.151872 44.64 
L 392.890065 44.64 
L 396.628258 59.726749 
L 400.36645 59.726749 
L 404.104643 59.726749 
L 407.842835 59.726749 
L 411.581028 59.726749 
" clip-path="url(#p8d53ac257f)" style="fill: none; stroke: #9c179e; stroke-width: 3; stroke-linecap: square"/>
   </g>
   <g id="line2d_18">
    <path d="M 191.027668 149.357532 
L 194.765861 163.05849 
L 198.504053 163.05849 
L 202.242246 163.05849 
L 205.980438 163.05849 
L 209.718631 163.05849 
L 213.456823 163.05849 
L 217.195016 163.05849 
L 220.933208 163.05849 
L 224.671401 163.05849 
L 228.409593 163.05849 
L 232.147786 163.05849 
L 235.885978 163.05849 
L 239.624171 163.05849 
L 243.362364 163.05849 
L 247.100556 163.05849 
L 250.838749 163.05849 
L 254.576941 163.05849 
L 258.315134 163.05849 
L 262.053326 163.05849 
L 265.791519 163.05849 
L 269.529711 149.357532 
L 273.267904 149.357532 
L 277.006096 149.357532 
L 280.744289 149.357532 
L 284.482481 149.357532 
L 288.220674 149.357532 
L 291.958866 149.357532 
L 295.697059 149.357532 
L 299.435252 149.357532 
L 303.173444 149.357532 
L 306.911637 149.357532 
L 310.649829 149.357532 
L 314.388022 149.357532 
L 318.126214 149.357532 
L 321.864407 149.357532 
L 325.602599 149.357532 
L 329.340792 149.357532 
L 333.078984 149.357532 
L 336.817177 149.357532 
L 340.555369 128.854151 
L 344.293562 128.854151 
L 348.031755 128.854151 
L 351.769947 128.854151 
L 355.50814 128.854151 
L 359.246332 128.854151 
L 362.984525 128.854151 
L 366.722717 128.854151 
L 370.46091 128.854151 
L 374.199102 128.854151 
L 377.937295 128.854151 
L 381.675487 128.854151 
L 385.41368 128.854151 
L 389.151872 128.854151 
L 392.890065 128.854151 
L 396.628258 149.357532 
L 400.36645 149.357532 
L 404.104643 149.357532 
L 407.842835 149.357532 
L 411.581028 149.357532 
" clip-path="url(#p8d53ac257f)" style="fill: none; stroke: #ed7953; stroke-width: 3; stroke-linecap: square"/>
   </g>
   <g id="line2d_19">
    <path d="M 191.027668 237.741759 
L 194.765861 239.877261 
L 198.504053 240.405231 
L 202.242246 243.990003 
L 205.980438 240.134229 
L 209.718631 241.103492 
L 213.456823 237.922781 
L 217.195016 238.347383 
L 220.933208 240.465534 
L 224.671401 239.913311 
L 228.409593 235.791166 
L 232.147786 240.140111 
L 235.885978 241.906497 
L 239.624171 239.80602 
L 243.362364 246.24 
L 247.100556 237.442755 
L 250.838749 241.909605 
L 254.576941 242.118454 
L 258.315134 240.399493 
L 262.053326 240.00278 
L 265.791519 239.249002 
L 269.529711 238.823859 
L 273.267904 242.302855 
L 277.006096 236.803752 
L 280.744289 236.573845 
L 284.482481 232.298991 
L 288.220674 236.933173 
L 291.958866 241.737304 
L 295.697059 241.304759 
L 299.435252 234.58205 
L 303.173444 239.693683 
L 306.911637 233.650274 
L 310.649829 239.094916 
L 314.388022 239.153185 
L 318.126214 241.57146 
L 321.864407 238.279159 
L 325.602599 236.301673 
L 329.340792 236.674215 
L 333.078984 237.315082 
L 336.817177 237.74133 
L 340.555369 240.406568 
L 344.293562 235.300009 
L 348.031755 238.712936 
L 351.769947 241.682205 
L 355.50814 234.3814 
L 359.246332 240.196062 
L 362.984525 240.766285 
L 366.722717 232.868926 
L 370.46091 234.87872 
L 374.199102 242.314975 
L 377.937295 234.004411 
L 381.675487 234.608225 
L 385.41368 242.833226 
L 389.151872 233.075004 
L 392.890065 235.484949 
L 396.628258 236.76036 
L 400.36645 235.124116 
L 404.104643 235.467968 
L 407.842835 240.249496 
L 411.581028 235.905404 
" clip-path="url(#p8d53ac257f)" style="fill: none; stroke: #f0f921; stroke-width: 3; stroke-linecap: square"/>
   </g>
   <g id="patch_11">
    <path d="M 180 256.32 
L 180 34.56 
" style="fill: none; stroke: #000000; stroke-width: 0.8; stroke-linejoin: miter; stroke-linecap: square"/>
   </g>
   <g id="patch_12">
    <path d="M 422.608696 256.32 
L 422.608696 34.56 
" style="fill: none; stroke: #000000; stroke-width: 0.8; stroke-linejoin: miter; stroke-linecap: square"/>
   </g>
   <g id="patch_13">
    <path d="M 180 256.32 
L 422.608696 256.32 
" style="fill: none; stroke: #000000; stroke-width: 0.8; stroke-linejoin: miter; stroke-linecap: square"/>
   </g>
   <g id="patch_14">
    <path d="M 180 34.56 
L 422.608696 34.56 
" style="fill: none; stroke: #000000; stroke-width: 0.8; stroke-linejoin: miter; stroke-linecap: square"/>
   </g>
   <g id="text_18">
    <!-- Feedforward -->
    <g transform="translate(263.986223 28.56)scale(0.12 -0.12)">
     <defs>
      <path id="DejaVuSans-46" d="M 628 4666 
L 3309 4666 
L 3309 4134 
L 1259 4134 
L 1259 2759 
L 3109 2759 
L 3109 2228 
L 1259 2228 
L 1259 0 
L 628 0 
L 628 4666 
z
" transform="scale(0.015625)"/>
      <path id="DejaVuSans-66" d="M 2375 4863 
L 2375 4384 
L 1825 4384 
Q 1516 4384 1395 4259 
Q 1275 4134 1275 3809 
L 1275 3500 
L 2222 3500 
L 2222 3053 
L 1275 3053 
L 1275 0 
L 697 0 
L 697 3053 
L 147 3053 
L 147 3500 
L 697 3500 
L 697 3744 
Q 697 4328 969 4595 
Q 1241 4863 1831 4863 
L 2375 4863 
z
" transform="scale(0.015625)"/>
      <path id="DejaVuSans-72" d="M 2631 2963 
Q 2534 3019 2420 3045 
Q 2306 3072 2169 3072 
Q 1681 3072 1420 2755 
Q 1159 2438 1159 1844 
L 1159 0 
L 581 0 
L 581 3500 
L 1159 3500 
L 1159 2956 
Q 1341 3275 1631 3429 
Q 1922 3584 2338 3584 
Q 2397 3584 2469 3576 
Q 2541 3569 2628 3553 
L 2631 2963 
z
" transform="scale(0.015625)"/>
      <path id="DejaVuSans-77" d="M 269 3500 
L 844 3500 
L 1563 769 
L 2278 3500 
L 2956 3500 
L 3675 769 
L 4391 3500 
L 4966 3500 
L 4050 0 
L 3372 0 
L 2619 2869 
L 1863 0 
L 1184 0 
L 269 3500 
z
" transform="scale(0.015625)"/>
     </defs>
     <use xlink:href="#DejaVuSans-46"/>
     <use xlink:href="#DejaVuSans-65" x="52.019531"/>
     <use xlink:href="#DejaVuSans-65" x="113.542969"/>
     <use xlink:href="#DejaVuSans-64" x="175.066406"/>
     <use xlink:href="#DejaVuSans-66" x="238.542969"/>
     <use xlink:href="#DejaVuSans-6f" x="273.748047"/>
     <use xlink:href="#DejaVuSans-72" x="334.929688"/>
     <use xlink:href="#DejaVuSans-77" x="376.042969"/>
     <use xlink:href="#DejaVuSans-61" x="457.830078"/>
     <use xlink:href="#DejaVuSans-72" x="519.109375"/>
     <use xlink:href="#DejaVuSans-64" x="558.472656"/>
    </g>
   </g>
   <g id="legend_1">
    <g id="patch_15">
     <path d="M 187 101.2725 
L 249.235938 101.2725 
Q 251.235938 101.2725 251.235938 99.2725 
L 251.235938 41.56 
Q 251.235938 39.56 249.235938 39.56 
L 187 39.56 
Q 185 39.56 185 41.56 
L 185 99.2725 
Q 185 101.2725 187 101.2725 
z
" style="fill: #ffffff; opacity: 0.8; stroke: #cccccc; stroke-linejoin: miter"/>
    </g>
    <g id="line2d_20">
     <path d="M 189 47.658438 
L 199 47.658438 
L 209 47.658438 
" style="fill: none; stroke: #0d0887; stroke-width: 3; stroke-linecap: square"/>
    </g>
    <g id="text_19">
     <!-- conv1 -->
     <g transform="translate(217 51.158438)scale(0.1 -0.1)">
      <defs>
       <path id="DejaVuSans-63" d="M 3122 3366 
L 3122 2828 
Q 2878 2963 2633 3030 
Q 2388 3097 2138 3097 
Q 1578 3097 1268 2742 
Q 959 2388 959 1747 
Q 959 1106 1268 751 
Q 1578 397 2138 397 
Q 2388 397 2633 464 
Q 2878 531 3122 666 
L 3122 134 
Q 2881 22 2623 -34 
Q 2366 -91 2075 -91 
Q 1284 -91 818 406 
Q 353 903 353 1747 
Q 353 2603 823 3093 
Q 1294 3584 2113 3584 
Q 2378 3584 2631 3529 
Q 2884 3475 3122 3366 
z
" transform="scale(0.015625)"/>
       <path id="DejaVuSans-6e" d="M 3513 2113 
L 3513 0 
L 2938 0 
L 2938 2094 
Q 2938 2591 2744 2837 
Q 2550 3084 2163 3084 
Q 1697 3084 1428 2787 
Q 1159 2491 1159 1978 
L 1159 0 
L 581 0 
L 581 3500 
L 1159 3500 
L 1159 2956 
Q 1366 3272 1645 3428 
Q 1925 3584 2291 3584 
Q 2894 3584 3203 3211 
Q 3513 2838 3513 2113 
z
" transform="scale(0.015625)"/>
       <path id="DejaVuSans-76" d="M 191 3500 
L 800 3500 
L 1894 563 
L 2988 3500 
L 3597 3500 
L 2284 0 
L 1503 0 
L 191 3500 
z
" transform="scale(0.015625)"/>
      </defs>
      <use xlink:href="#DejaVuSans-63"/>
      <use xlink:href="#DejaVuSans-6f" x="54.980469"/>
      <use xlink:href="#DejaVuSans-6e" x="116.162109"/>
      <use xlink:href="#DejaVuSans-76" x="179.541016"/>
      <use xlink:href="#DejaVuSans-31" x="238.720703"/>
     </g>
    </g>
    <g id="line2d_21">
     <path d="M 189 62.336563 
L 199 62.336563 
L 209 62.336563 
" style="fill: none; stroke: #9c179e; stroke-width: 3; stroke-linecap: square"/>
    </g>
    <g id="text_20">
     <!-- conv2 -->
     <g transform="translate(217 65.836563)scale(0.1 -0.1)">
      <use xlink:href="#DejaVuSans-63"/>
      <use xlink:href="#DejaVuSans-6f" x="54.980469"/>
      <use xlink:href="#DejaVuSans-6e" x="116.162109"/>
      <use xlink:href="#DejaVuSans-76" x="179.541016"/>
      <use xlink:href="#DejaVuSans-32" x="238.720703"/>
     </g>
    </g>
    <g id="line2d_22">
     <path d="M 189 77.014688 
L 199 77.014688 
L 209 77.014688 
" style="fill: none; stroke: #ed7953; stroke-width: 3; stroke-linecap: square"/>
    </g>
    <g id="text_21">
     <!-- conv3 -->
     <g transform="translate(217 80.514688)scale(0.1 -0.1)">
      <use xlink:href="#DejaVuSans-63"/>
      <use xlink:href="#DejaVuSans-6f" x="54.980469"/>
      <use xlink:href="#DejaVuSans-6e" x="116.162109"/>
      <use xlink:href="#DejaVuSans-76" x="179.541016"/>
      <use xlink:href="#DejaVuSans-33" x="238.720703"/>
     </g>
    </g>
    <g id="line2d_23">
     <path d="M 189 91.692813 
L 199 91.692813 
L 209 91.692813 
" style="fill: none; stroke: #f0f921; stroke-width: 3; stroke-linecap: square"/>
    </g>
    <g id="text_22">
     <!-- fc1 -->
     <g transform="translate(217 95.192813)scale(0.1 -0.1)">
      <use xlink:href="#DejaVuSans-66"/>
      <use xlink:href="#DejaVuSans-63" x="35.205078"/>
      <use xlink:href="#DejaVuSans-31" x="90.185547"/>
     </g>
    </g>
   </g>
  </g>
  <g id="axes_2">
   <g id="patch_16">
    <path d="M 471.130435 256.32 
L 713.73913 256.32 
L 713.73913 34.56 
L 471.130435 34.56 
z
" style="fill: #ffffff"/>
   </g>
   <g id="patch_17">
    <path d="M 485.896295 256.32 
L 485.896295 34.56 
L 560.660146 34.56 
L 560.660146 256.32 
z
" clip-path="url(#p06067a83f3)" style="fill: #808080; opacity: 0.05; stroke: #808080; stroke-linejoin: miter"/>
   </g>
   <g id="patch_18">
    <path d="M 631.685804 256.32 
L 631.685804 34.56 
L 687.758692 34.56 
L 687.758692 256.32 
z
" clip-path="url(#p06067a83f3)" style="fill: #808080; opacity: 0.05; stroke: #808080; stroke-linejoin: miter"/>
   </g>
   <g id="patch_19">
    <path d="M 485.896295 256.32 
L 485.896295 34.56 
L 560.660146 34.56 
L 560.660146 256.32 
z
" clip-path="url(#p06067a83f3)" style="fill: #808080; opacity: 0.05; stroke: #808080; stroke-linejoin: miter"/>
   </g>
   <g id="patch_20">
    <path d="M 631.685804 256.32 
L 631.685804 34.56 
L 687.758692 34.56 
L 687.758692 256.32 
z
" clip-path="url(#p06067a83f3)" style="fill: #808080; opacity: 0.05; stroke: #808080; stroke-linejoin: miter"/>
   </g>
   <g id="patch_21">
    <path d="M 485.896295 256.32 
L 485.896295 34.56 
L 560.660146 34.56 
L 560.660146 256.32 
z
" clip-path="url(#p06067a83f3)" style="fill: #808080; opacity: 0.05; stroke: #808080; stroke-linejoin: miter"/>
   </g>
   <g id="patch_22">
    <path d="M 631.685804 256.32 
L 631.685804 34.56 
L 687.758692 34.56 
L 687.758692 256.32 
z
" clip-path="url(#p06067a83f3)" style="fill: #808080; opacity: 0.05; stroke: #808080; stroke-linejoin: miter"/>
   </g>
   <g id="patch_23">
    <path d="M 485.896295 256.32 
L 485.896295 34.56 
L 560.660146 34.56 
L 560.660146 256.32 
z
" clip-path="url(#p06067a83f3)" style="fill: #808080; opacity: 0.05; stroke: #808080; stroke-linejoin: miter"/>
   </g>
   <g id="patch_24">
    <path d="M 631.685804 256.32 
L 631.685804 34.56 
L 687.758692 34.56 
L 687.758692 256.32 
z
" clip-path="url(#p06067a83f3)" style="fill: #808080; opacity: 0.05; stroke: #808080; stroke-linejoin: miter"/>
   </g>
   <g id="matplotlib.axis_3">
    <g id="xtick_8">
     <g id="line2d_24">
      <g>
       <use xlink:href="#m3af63f72fc" x="482.158103" y="256.32" style="stroke: #000000; stroke-width: 0.8"/>
      </g>
     </g>
     <g id="text_23">
      <!-- 0 -->
      <g transform="translate(478.976853 270.918437)scale(0.1 -0.1)">
       <use xlink:href="#DejaVuSans-30"/>
      </g>
     </g>
    </g>
    <g id="xtick_9">
     <g id="line2d_25">
      <g>
       <use xlink:href="#m3af63f72fc" x="519.540028" y="256.32" style="stroke: #000000; stroke-width: 0.8"/>
      </g>
     </g>
     <g id="text_24">
      <!-- 10 -->
      <g transform="translate(513.177528 270.918437)scale(0.1 -0.1)">
       <use xlink:href="#DejaVuSans-31"/>
       <use xlink:href="#DejaVuSans-30" x="63.623047"/>
      </g>
     </g>
    </g>
    <g id="xtick_10">
     <g id="line2d_26">
      <g>
       <use xlink:href="#m3af63f72fc" x="556.921954" y="256.32" style="stroke: #000000; stroke-width: 0.8"/>
      </g>
     </g>
     <g id="text_25">
      <!-- 20 -->
      <g transform="translate(550.559454 270.918437)scale(0.1 -0.1)">
       <use xlink:href="#DejaVuSans-32"/>
       <use xlink:href="#DejaVuSans-30" x="63.623047"/>
      </g>
     </g>
    </g>
    <g id="xtick_11">
     <g id="line2d_27">
      <g>
       <use xlink:href="#m3af63f72fc" x="594.303879" y="256.32" style="stroke: #000000; stroke-width: 0.8"/>
      </g>
     </g>
     <g id="text_26">
      <!-- 30 -->
      <g transform="translate(587.941379 270.918437)scale(0.1 -0.1)">
       <use xlink:href="#DejaVuSans-33"/>
       <use xlink:href="#DejaVuSans-30" x="63.623047"/>
      </g>
     </g>
    </g>
    <g id="xtick_12">
     <g id="line2d_28">
      <g>
       <use xlink:href="#m3af63f72fc" x="631.685804" y="256.32" style="stroke: #000000; stroke-width: 0.8"/>
      </g>
     </g>
     <g id="text_27">
      <!-- 40 -->
      <g transform="translate(625.323304 270.918437)scale(0.1 -0.1)">
       <use xlink:href="#DejaVuSans-34"/>
       <use xlink:href="#DejaVuSans-30" x="63.623047"/>
      </g>
     </g>
    </g>
    <g id="xtick_13">
     <g id="line2d_29">
      <g>
       <use xlink:href="#m3af63f72fc" x="669.06773" y="256.32" style="stroke: #000000; stroke-width: 0.8"/>
      </g>
     </g>
     <g id="text_28">
      <!-- 50 -->
      <g transform="translate(662.70523 270.918437)scale(0.1 -0.1)">
       <use xlink:href="#DejaVuSans-35"/>
       <use xlink:href="#DejaVuSans-30" x="63.623047"/>
      </g>
     </g>
    </g>
    <g id="xtick_14">
     <g id="line2d_30">
      <g>
       <use xlink:href="#m3af63f72fc" x="706.449655" y="256.32" style="stroke: #000000; stroke-width: 0.8"/>
      </g>
     </g>
     <g id="text_29">
      <!-- 60 -->
      <g transform="translate(700.087155 270.918437)scale(0.1 -0.1)">
       <use xlink:href="#DejaVuSans-36"/>
       <use xlink:href="#DejaVuSans-30" x="63.623047"/>
      </g>
     </g>
    </g>
    <g id="text_30">
     <!-- Model timesteps -->
     <g transform="translate(551.116033 284.596563)scale(0.1 -0.1)">
      <use xlink:href="#DejaVuSans-4d"/>
      <use xlink:href="#DejaVuSans-6f" x="86.279297"/>
      <use xlink:href="#DejaVuSans-64" x="147.460938"/>
      <use xlink:href="#DejaVuSans-65" x="210.9375"/>
      <use xlink:href="#DejaVuSans-6c" x="272.460938"/>
      <use xlink:href="#DejaVuSans-20" x="300.244141"/>
      <use xlink:href="#DejaVuSans-74" x="332.03125"/>
      <use xlink:href="#DejaVuSans-69" x="371.240234"/>
      <use xlink:href="#DejaVuSans-6d" x="399.023438"/>
      <use xlink:href="#DejaVuSans-65" x="496.435547"/>
      <use xlink:href="#DejaVuSans-73" x="557.958984"/>
      <use xlink:href="#DejaVuSans-74" x="610.058594"/>
      <use xlink:href="#DejaVuSans-65" x="649.267578"/>
      <use xlink:href="#DejaVuSans-70" x="710.791016"/>
      <use xlink:href="#DejaVuSans-73" x="774.267578"/>
     </g>
    </g>
   </g>
   <g id="matplotlib.axis_4">
    <g id="ytick_9">
     <g id="line2d_31">
      <g>
       <use xlink:href="#m73ca944204" x="471.130435" y="241.755588" style="stroke: #000000; stroke-width: 0.8"/>
      </g>
     </g>
     <g id="text_31">
      <!-- 0.0 -->
      <g transform="translate(448.22731 245.554807)scale(0.1 -0.1)">
       <use xlink:href="#DejaVuSans-30"/>
       <use xlink:href="#DejaVuSans-2e" x="63.623047"/>
       <use xlink:href="#DejaVuSans-30" x="95.410156"/>
      </g>
     </g>
    </g>
    <g id="ytick_10">
     <g id="line2d_32">
      <g>
       <use xlink:href="#m73ca944204" x="471.130435" y="200.77305" style="stroke: #000000; stroke-width: 0.8"/>
      </g>
     </g>
     <g id="text_32">
      <!-- 0.5 -->
      <g transform="translate(448.22731 204.572269)scale(0.1 -0.1)">
       <use xlink:href="#DejaVuSans-30"/>
       <use xlink:href="#DejaVuSans-2e" x="63.623047"/>
       <use xlink:href="#DejaVuSans-35" x="95.410156"/>
      </g>
     </g>
    </g>
    <g id="ytick_11">
     <g id="line2d_33">
      <g>
       <use xlink:href="#m73ca944204" x="471.130435" y="159.790513" style="stroke: #000000; stroke-width: 0.8"/>
      </g>
     </g>
     <g id="text_33">
      <!-- 1.0 -->
      <g transform="translate(448.22731 163.589731)scale(0.1 -0.1)">
       <use xlink:href="#DejaVuSans-31"/>
       <use xlink:href="#DejaVuSans-2e" x="63.623047"/>
       <use xlink:href="#DejaVuSans-30" x="95.410156"/>
      </g>
     </g>
    </g>
    <g id="ytick_12">
     <g id="line2d_34">
      <g>
       <use xlink:href="#m73ca944204" x="471.130435" y="118.807975" style="stroke: #000000; stroke-width: 0.8"/>
      </g>
     </g>
     <g id="text_34">
      <!-- 1.5 -->
      <g transform="translate(448.22731 122.607194)scale(0.1 -0.1)">
       <use xlink:href="#DejaVuSans-31"/>
       <use xlink:href="#DejaVuSans-2e" x="63.623047"/>
       <use xlink:href="#DejaVuSans-35" x="95.410156"/>
      </g>
     </g>
    </g>
    <g id="ytick_13">
     <g id="line2d_35">
      <g>
       <use xlink:href="#m73ca944204" x="471.130435" y="77.825437" style="stroke: #000000; stroke-width: 0.8"/>
      </g>
     </g>
     <g id="text_35">
      <!-- 2.0 -->
      <g transform="translate(448.22731 81.624656)scale(0.1 -0.1)">
       <use xlink:href="#DejaVuSans-32"/>
       <use xlink:href="#DejaVuSans-2e" x="63.623047"/>
       <use xlink:href="#DejaVuSans-30" x="95.410156"/>
      </g>
     </g>
    </g>
    <g id="ytick_14">
     <g id="line2d_36">
      <g>
       <use xlink:href="#m73ca944204" x="471.130435" y="36.8429" style="stroke: #000000; stroke-width: 0.8"/>
      </g>
     </g>
     <g id="text_36">
      <!-- 2.5 -->
      <g transform="translate(448.22731 40.642118)scale(0.1 -0.1)">
       <use xlink:href="#DejaVuSans-32"/>
       <use xlink:href="#DejaVuSans-2e" x="63.623047"/>
       <use xlink:href="#DejaVuSans-35" x="95.410156"/>
      </g>
     </g>
    </g>
   </g>
   <g id="line2d_37">
    <path d="M 482.158103 214.864403 
L 485.896295 212.995932 
L 489.634488 212.966035 
L 493.37268 212.953694 
L 497.110873 212.947099 
L 500.849065 212.943059 
L 504.587258 212.940357 
L 508.325451 212.938427 
L 512.063643 212.936988 
L 515.801836 212.935874 
L 519.540028 212.93499 
L 523.278221 212.934272 
L 527.016413 212.933683 
L 530.754606 212.933185 
L 534.492798 212.93277 
L 538.230991 212.932411 
L 541.969183 212.932103 
L 545.707376 212.931837 
L 549.445568 212.931602 
L 553.183761 212.931399 
L 556.921954 212.931221 
L 560.660146 214.724893 
L 564.398339 214.72671 
L 568.136531 214.72695 
L 571.874724 214.726969 
L 575.612916 214.72693 
L 579.351109 214.726867 
L 583.089301 214.726803 
L 586.827494 214.72674 
L 590.565686 214.726683 
L 594.303879 214.72663 
L 598.042071 214.726588 
L 601.780264 214.726549 
L 605.518456 214.726512 
L 609.256649 214.726486 
L 612.994842 214.726468 
L 616.733034 214.726451 
L 620.471227 214.726442 
L 624.209419 214.726437 
L 627.947612 214.726437 
L 631.685804 205.266012 
L 635.423997 205.246656 
L 639.162189 205.240715 
L 642.900382 205.238257 
L 646.638574 205.237016 
L 650.376767 205.236315 
L 654.114959 205.235878 
L 657.853152 205.2356 
L 661.591345 205.235416 
L 665.329537 205.235292 
L 669.06773 205.235209 
L 672.805922 205.235165 
L 676.544115 205.23514 
L 680.282307 205.235131 
L 684.0205 205.235148 
L 687.758692 214.700114 
L 691.496885 214.716705 
L 695.235077 214.721903 
L 698.97327 214.724026 
L 702.711462 214.725049 
" clip-path="url(#p06067a83f3)" style="fill: none; stroke: #0d0887; stroke-width: 3; stroke-linecap: square"/>
   </g>
   <g id="line2d_38">
    <path d="M 482.158103 44.64 
L 485.896295 172.591522 
L 489.634488 172.898747 
L 493.37268 172.944749 
L 497.110873 172.954124 
L 500.849065 172.955741 
L 504.587258 172.955502 
L 508.325451 172.954769 
L 512.063643 172.954036 
L 515.801836 172.953435 
L 519.540028 172.952927 
L 523.278221 172.952512 
L 527.016413 172.952184 
L 530.754606 172.95193 
L 534.492798 172.95172 
L 538.230991 172.9515 
L 541.969183 172.951315 
L 545.707376 172.951158 
L 549.445568 172.951002 
L 553.183761 172.950855 
L 556.921954 172.950699 
L 560.660146 179.608916 
L 564.398339 179.652695 
L 568.136531 179.665539 
L 571.874724 179.671592 
L 575.612916 179.675027 
L 579.351109 179.677377 
L 583.089301 179.678921 
L 586.827494 179.679961 
L 590.565686 179.680723 
L 594.303879 179.681285 
L 598.042071 179.68172 
L 601.780264 179.682033 
L 605.518456 179.682277 
L 609.256649 179.682487 
L 612.994842 179.682663 
L 616.733034 179.68279 
L 620.471227 179.682868 
L 624.209419 179.682917 
L 627.947612 179.682937 
L 631.685804 144.230745 
L 635.423997 144.233393 
L 639.162189 144.232259 
L 642.900382 144.233383 
L 646.638574 144.234585 
L 650.376767 144.235699 
L 654.114959 144.236676 
L 657.853152 144.237555 
L 661.591345 144.238337 
L 665.329537 144.23904 
L 669.06773 144.239676 
L 672.805922 144.240242 
L 676.544115 144.240731 
L 680.282307 144.241141 
L 684.0205 144.241473 
L 687.758692 179.340644 
L 691.496885 179.535722 
L 695.235077 179.597352 
L 698.97327 179.625859 
L 702.711462 179.641898 
" clip-path="url(#p06067a83f3)" style="fill: none; stroke: #9c179e; stroke-width: 3; stroke-linecap: square"/>
   </g>
   <g id="line2d_39">
    <path d="M 482.158103 157.184021 
L 485.896295 225.906571 
L 489.634488 226.882113 
L 493.37268 226.996024 
L 497.110873 226.996986 
L 500.849065 226.983528 
L 504.587258 226.970031 
L 508.325451 226.958441 
L 512.063643 226.94888 
L 515.801836 226.941009 
L 519.540028 226.934439 
L 523.278221 226.928899 
L 527.016413 226.92418 
L 530.754606 226.920152 
L 534.492798 226.916651 
L 538.230991 226.913615 
L 541.969183 226.910925 
L 545.707376 226.908538 
L 549.445568 226.906404 
L 553.183761 226.904489 
L 556.921954 226.902745 
L 560.660146 226.094832 
L 564.398339 225.80575 
L 568.136531 225.721437 
L 571.874724 225.678152 
L 575.612916 225.652734 
L 579.351109 225.637248 
L 583.089301 225.627164 
L 586.827494 225.620284 
L 590.565686 225.615292 
L 594.303879 225.611493 
L 598.042071 225.608725 
L 601.780264 225.606494 
L 605.518456 225.604476 
L 609.256649 225.602672 
L 612.994842 225.601133 
L 616.733034 225.599817 
L 620.471227 225.598679 
L 624.209419 225.597678 
L 627.947612 225.596796 
L 631.685804 222.036524 
L 635.423997 221.79604 
L 639.162189 221.707032 
L 642.900382 221.670363 
L 646.638574 221.650342 
L 650.376767 221.637293 
L 654.114959 221.628505 
L 657.853152 221.622121 
L 661.591345 221.617209 
L 665.329537 221.613268 
L 669.06773 221.610023 
L 672.805922 221.607282 
L 676.544115 221.604929 
L 680.282307 221.602876 
L 684.0205 221.601069 
L 687.758692 225.550197 
L 691.496885 225.608806 
L 695.235077 225.613376 
L 698.97327 225.610127 
L 702.711462 225.60647 
" clip-path="url(#p06067a83f3)" style="fill: none; stroke: #ed7953; stroke-width: 3; stroke-linecap: square"/>
   </g>
   <g id="line2d_40">
    <path d="M 482.158103 246.24 
L 485.896295 242.036117 
L 489.634488 243.42252 
L 493.37268 242.852382 
L 497.110873 242.072435 
L 500.849065 241.731856 
L 504.587258 242.119196 
L 508.325451 242.823826 
L 512.063643 242.307224 
L 515.801836 242.870495 
L 519.540028 242.077095 
L 523.278221 243.00588 
L 527.016413 242.46386 
L 530.754606 243.296178 
L 534.492798 242.560579 
L 538.230991 242.590014 
L 541.969183 242.401555 
L 545.707376 242.535684 
L 549.445568 243.357838 
L 553.183761 243.573514 
L 556.921954 242.872833 
L 560.660146 242.478567 
L 564.398339 243.697051 
L 568.136531 242.973915 
L 571.874724 242.988901 
L 575.612916 242.919623 
L 579.351109 243.456849 
L 583.089301 242.567409 
L 586.827494 243.293864 
L 590.565686 242.251569 
L 594.303879 242.458821 
L 598.042071 242.795495 
L 601.780264 243.900235 
L 605.518456 243.205659 
L 609.256649 243.231559 
L 612.994842 243.256532 
L 616.733034 242.636311 
L 620.471227 243.091296 
L 624.209419 243.378331 
L 627.947612 242.017623 
L 631.685804 242.098302 
L 635.423997 243.129021 
L 639.162189 241.200237 
L 642.900382 242.199085 
L 646.638574 242.640664 
L 650.376767 241.62839 
L 654.114959 243.602487 
L 657.853152 242.921528 
L 661.591345 242.782959 
L 665.329537 242.640574 
L 669.06773 242.076737 
L 672.805922 242.01873 
L 676.544115 242.315029 
L 680.282307 242.252961 
L 684.0205 242.447272 
L 687.758692 243.12411 
L 691.496885 242.854463 
L 695.235077 242.342181 
L 698.97327 242.977339 
L 702.711462 243.48074 
" clip-path="url(#p06067a83f3)" style="fill: none; stroke: #f0f921; stroke-width: 3; stroke-linecap: square"/>
   </g>
   <g id="patch_25">
    <path d="M 471.130435 256.32 
L 471.130435 34.56 
" style="fill: none; stroke: #000000; stroke-width: 0.8; stroke-linejoin: miter; stroke-linecap: square"/>
   </g>
   <g id="patch_26">
    <path d="M 713.73913 256.32 
L 713.73913 34.56 
" style="fill: none; stroke: #000000; stroke-width: 0.8; stroke-linejoin: miter; stroke-linecap: square"/>
   </g>
   <g id="patch_27">
    <path d="M 471.130435 256.32 
L 713.73913 256.32 
" style="fill: none; stroke: #000000; stroke-width: 0.8; stroke-linejoin: miter; stroke-linecap: square"/>
   </g>
   <g id="patch_28">
    <path d="M 471.130435 34.56 
L 713.73913 34.56 
" style="fill: none; stroke: #000000; stroke-width: 0.8; stroke-linejoin: miter; stroke-linecap: square"/>
   </g>
   <g id="text_37">
    <!-- Feedforward with exp. decay -->
    <g transform="translate(505.785408 28.56)scale(0.12 -0.12)">
     <defs>
      <path id="DejaVuSans-68" d="M 3513 2113 
L 3513 0 
L 2938 0 
L 2938 2094 
Q 2938 2591 2744 2837 
Q 2550 3084 2163 3084 
Q 1697 3084 1428 2787 
Q 1159 2491 1159 1978 
L 1159 0 
L 581 0 
L 581 4863 
L 1159 4863 
L 1159 2956 
Q 1366 3272 1645 3428 
Q 1925 3584 2291 3584 
Q 2894 3584 3203 3211 
Q 3513 2838 3513 2113 
z
" transform="scale(0.015625)"/>
      <path id="DejaVuSans-78" d="M 3513 3500 
L 2247 1797 
L 3578 0 
L 2900 0 
L 1881 1375 
L 863 0 
L 184 0 
L 1544 1831 
L 300 3500 
L 978 3500 
L 1906 2253 
L 2834 3500 
L 3513 3500 
z
" transform="scale(0.015625)"/>
      <path id="DejaVuSans-79" d="M 2059 -325 
Q 1816 -950 1584 -1140 
Q 1353 -1331 966 -1331 
L 506 -1331 
L 506 -850 
L 844 -850 
Q 1081 -850 1212 -737 
Q 1344 -625 1503 -206 
L 1606 56 
L 191 3500 
L 800 3500 
L 1894 763 
L 2988 3500 
L 3597 3500 
L 2059 -325 
z
" transform="scale(0.015625)"/>
     </defs>
     <use xlink:href="#DejaVuSans-46"/>
     <use xlink:href="#DejaVuSans-65" x="52.019531"/>
     <use xlink:href="#DejaVuSans-65" x="113.542969"/>
     <use xlink:href="#DejaVuSans-64" x="175.066406"/>
     <use xlink:href="#DejaVuSans-66" x="238.542969"/>
     <use xlink:href="#DejaVuSans-6f" x="273.748047"/>
     <use xlink:href="#DejaVuSans-72" x="334.929688"/>
     <use xlink:href="#DejaVuSans-77" x="376.042969"/>
     <use xlink:href="#DejaVuSans-61" x="457.830078"/>
     <use xlink:href="#DejaVuSans-72" x="519.109375"/>
     <use xlink:href="#DejaVuSans-64" x="558.472656"/>
     <use xlink:href="#DejaVuSans-20" x="621.949219"/>
     <use xlink:href="#DejaVuSans-77" x="653.736328"/>
     <use xlink:href="#DejaVuSans-69" x="735.523438"/>
     <use xlink:href="#DejaVuSans-74" x="763.306641"/>
     <use xlink:href="#DejaVuSans-68" x="802.515625"/>
     <use xlink:href="#DejaVuSans-20" x="865.894531"/>
     <use xlink:href="#DejaVuSans-65" x="897.681641"/>
     <use xlink:href="#DejaVuSans-78" x="957.455078"/>
     <use xlink:href="#DejaVuSans-70" x="1016.634766"/>
     <use xlink:href="#DejaVuSans-2e" x="1080.111328"/>
     <use xlink:href="#DejaVuSans-20" x="1111.898438"/>
     <use xlink:href="#DejaVuSans-64" x="1143.685547"/>
     <use xlink:href="#DejaVuSans-65" x="1207.162109"/>
     <use xlink:href="#DejaVuSans-63" x="1268.685547"/>
     <use xlink:href="#DejaVuSans-61" x="1323.666016"/>
     <use xlink:href="#DejaVuSans-79" x="1384.945312"/>
    </g>
   </g>
   <g id="legend_2">
    <g id="patch_29">
     <path d="M 644.503193 101.2725 
L 706.73913 101.2725 
Q 708.73913 101.2725 708.73913 99.2725 
L 708.73913 41.56 
Q 708.73913 39.56 706.73913 39.56 
L 644.503193 39.56 
Q 642.503193 39.56 642.503193 41.56 
L 642.503193 99.2725 
Q 642.503193 101.2725 644.503193 101.2725 
z
" style="fill: #ffffff; opacity: 0.8; stroke: #cccccc; stroke-linejoin: miter"/>
    </g>
    <g id="line2d_41">
     <path d="M 646.503193 47.658438 
L 656.503193 47.658438 
L 666.503193 47.658438 
" style="fill: none; stroke: #0d0887; stroke-width: 3; stroke-linecap: square"/>
    </g>
    <g id="text_38">
     <!-- conv1 -->
     <g transform="translate(674.503193 51.158438)scale(0.1 -0.1)">
      <use xlink:href="#DejaVuSans-63"/>
      <use xlink:href="#DejaVuSans-6f" x="54.980469"/>
      <use xlink:href="#DejaVuSans-6e" x="116.162109"/>
      <use xlink:href="#DejaVuSans-76" x="179.541016"/>
      <use xlink:href="#DejaVuSans-31" x="238.720703"/>
     </g>
    </g>
    <g id="line2d_42">
     <path d="M 646.503193 62.336563 
L 656.503193 62.336563 
L 666.503193 62.336563 
" style="fill: none; stroke: #9c179e; stroke-width: 3; stroke-linecap: square"/>
    </g>
    <g id="text_39">
     <!-- conv2 -->
     <g transform="translate(674.503193 65.836563)scale(0.1 -0.1)">
      <use xlink:href="#DejaVuSans-63"/>
      <use xlink:href="#DejaVuSans-6f" x="54.980469"/>
      <use xlink:href="#DejaVuSans-6e" x="116.162109"/>
      <use xlink:href="#DejaVuSans-76" x="179.541016"/>
      <use xlink:href="#DejaVuSans-32" x="238.720703"/>
     </g>
    </g>
    <g id="line2d_43">
     <path d="M 646.503193 77.014688 
L 656.503193 77.014688 
L 666.503193 77.014688 
" style="fill: none; stroke: #ed7953; stroke-width: 3; stroke-linecap: square"/>
    </g>
    <g id="text_40">
     <!-- conv3 -->
     <g transform="translate(674.503193 80.514688)scale(0.1 -0.1)">
      <use xlink:href="#DejaVuSans-63"/>
      <use xlink:href="#DejaVuSans-6f" x="54.980469"/>
      <use xlink:href="#DejaVuSans-6e" x="116.162109"/>
      <use xlink:href="#DejaVuSans-76" x="179.541016"/>
      <use xlink:href="#DejaVuSans-33" x="238.720703"/>
     </g>
    </g>
    <g id="line2d_44">
     <path d="M 646.503193 91.692813 
L 656.503193 91.692813 
L 666.503193 91.692813 
" style="fill: none; stroke: #f0f921; stroke-width: 3; stroke-linecap: square"/>
    </g>
    <g id="text_41">
     <!-- fc1 -->
     <g transform="translate(674.503193 95.192813)scale(0.1 -0.1)">
      <use xlink:href="#DejaVuSans-66"/>
      <use xlink:href="#DejaVuSans-63" x="35.205078"/>
      <use xlink:href="#DejaVuSans-31" x="90.185547"/>
     </g>
    </g>
   </g>
  </g>
  <g id="axes_3">
   <g id="patch_30">
    <path d="M 762.26087 256.32 
L 1004.869565 256.32 
L 1004.869565 34.56 
L 762.26087 34.56 
z
" style="fill: #ffffff"/>
   </g>
   <g id="patch_31">
    <path d="M 777.02673 256.32 
L 777.02673 34.56 
L 851.790581 34.56 
L 851.790581 256.32 
z
" clip-path="url(#pe1cc0288c6)" style="fill: #808080; opacity: 0.05; stroke: #808080; stroke-linejoin: miter"/>
   </g>
   <g id="patch_32">
    <path d="M 922.816239 256.32 
L 922.816239 34.56 
L 978.889127 34.56 
L 978.889127 256.32 
z
" clip-path="url(#pe1cc0288c6)" style="fill: #808080; opacity: 0.05; stroke: #808080; stroke-linejoin: miter"/>
   </g>
   <g id="patch_33">
    <path d="M 777.02673 256.32 
L 777.02673 34.56 
L 851.790581 34.56 
L 851.790581 256.32 
z
" clip-path="url(#pe1cc0288c6)" style="fill: #808080; opacity: 0.05; stroke: #808080; stroke-linejoin: miter"/>
   </g>
   <g id="patch_34">
    <path d="M 922.816239 256.32 
L 922.816239 34.56 
L 978.889127 34.56 
L 978.889127 256.32 
z
" clip-path="url(#pe1cc0288c6)" style="fill: #808080; opacity: 0.05; stroke: #808080; stroke-linejoin: miter"/>
   </g>
   <g id="patch_35">
    <path d="M 777.02673 256.32 
L 777.02673 34.56 
L 851.790581 34.56 
L 851.790581 256.32 
z
" clip-path="url(#pe1cc0288c6)" style="fill: #808080; opacity: 0.05; stroke: #808080; stroke-linejoin: miter"/>
   </g>
   <g id="patch_36">
    <path d="M 922.816239 256.32 
L 922.816239 34.56 
L 978.889127 34.56 
L 978.889127 256.32 
z
" clip-path="url(#pe1cc0288c6)" style="fill: #808080; opacity: 0.05; stroke: #808080; stroke-linejoin: miter"/>
   </g>
   <g id="patch_37">
    <path d="M 777.02673 256.32 
L 777.02673 34.56 
L 851.790581 34.56 
L 851.790581 256.32 
z
" clip-path="url(#pe1cc0288c6)" style="fill: #808080; opacity: 0.05; stroke: #808080; stroke-linejoin: miter"/>
   </g>
   <g id="patch_38">
    <path d="M 922.816239 256.32 
L 922.816239 34.56 
L 978.889127 34.56 
L 978.889127 256.32 
z
" clip-path="url(#pe1cc0288c6)" style="fill: #808080; opacity: 0.05; stroke: #808080; stroke-linejoin: miter"/>
   </g>
   <g id="patch_39">
    <path d="M 777.02673 256.32 
L 777.02673 34.56 
L 851.790581 34.56 
L 851.790581 256.32 
z
" clip-path="url(#pe1cc0288c6)" style="fill: #808080; opacity: 0.05; stroke: #808080; stroke-linejoin: miter"/>
   </g>
   <g id="patch_40">
    <path d="M 922.816239 256.32 
L 922.816239 34.56 
L 978.889127 34.56 
L 978.889127 256.32 
z
" clip-path="url(#pe1cc0288c6)" style="fill: #808080; opacity: 0.05; stroke: #808080; stroke-linejoin: miter"/>
   </g>
   <g id="matplotlib.axis_5">
    <g id="xtick_15">
     <g id="line2d_45">
      <g>
       <use xlink:href="#m3af63f72fc" x="773.288538" y="256.32" style="stroke: #000000; stroke-width: 0.8"/>
      </g>
     </g>
     <g id="text_42">
      <!-- 0 -->
      <g transform="translate(770.107288 270.918437)scale(0.1 -0.1)">
       <use xlink:href="#DejaVuSans-30"/>
      </g>
     </g>
    </g>
    <g id="xtick_16">
     <g id="line2d_46">
      <g>
       <use xlink:href="#m3af63f72fc" x="810.670463" y="256.32" style="stroke: #000000; stroke-width: 0.8"/>
      </g>
     </g>
     <g id="text_43">
      <!-- 10 -->
      <g transform="translate(804.307963 270.918437)scale(0.1 -0.1)">
       <use xlink:href="#DejaVuSans-31"/>
       <use xlink:href="#DejaVuSans-30" x="63.623047"/>
      </g>
     </g>
    </g>
    <g id="xtick_17">
     <g id="line2d_47">
      <g>
       <use xlink:href="#m3af63f72fc" x="848.052388" y="256.32" style="stroke: #000000; stroke-width: 0.8"/>
      </g>
     </g>
     <g id="text_44">
      <!-- 20 -->
      <g transform="translate(841.689888 270.918437)scale(0.1 -0.1)">
       <use xlink:href="#DejaVuSans-32"/>
       <use xlink:href="#DejaVuSans-30" x="63.623047"/>
      </g>
     </g>
    </g>
    <g id="xtick_18">
     <g id="line2d_48">
      <g>
       <use xlink:href="#m3af63f72fc" x="885.434314" y="256.32" style="stroke: #000000; stroke-width: 0.8"/>
      </g>
     </g>
     <g id="text_45">
      <!-- 30 -->
      <g transform="translate(879.071814 270.918437)scale(0.1 -0.1)">
       <use xlink:href="#DejaVuSans-33"/>
       <use xlink:href="#DejaVuSans-30" x="63.623047"/>
      </g>
     </g>
    </g>
    <g id="xtick_19">
     <g id="line2d_49">
      <g>
       <use xlink:href="#m3af63f72fc" x="922.816239" y="256.32" style="stroke: #000000; stroke-width: 0.8"/>
      </g>
     </g>
     <g id="text_46">
      <!-- 40 -->
      <g transform="translate(916.453739 270.918437)scale(0.1 -0.1)">
       <use xlink:href="#DejaVuSans-34"/>
       <use xlink:href="#DejaVuSans-30" x="63.623047"/>
      </g>
     </g>
    </g>
    <g id="xtick_20">
     <g id="line2d_50">
      <g>
       <use xlink:href="#m3af63f72fc" x="960.198164" y="256.32" style="stroke: #000000; stroke-width: 0.8"/>
      </g>
     </g>
     <g id="text_47">
      <!-- 50 -->
      <g transform="translate(953.835664 270.918437)scale(0.1 -0.1)">
       <use xlink:href="#DejaVuSans-35"/>
       <use xlink:href="#DejaVuSans-30" x="63.623047"/>
      </g>
     </g>
    </g>
    <g id="xtick_21">
     <g id="line2d_51">
      <g>
       <use xlink:href="#m3af63f72fc" x="997.58009" y="256.32" style="stroke: #000000; stroke-width: 0.8"/>
      </g>
     </g>
     <g id="text_48">
      <!-- 60 -->
      <g transform="translate(991.21759 270.918437)scale(0.1 -0.1)">
       <use xlink:href="#DejaVuSans-36"/>
       <use xlink:href="#DejaVuSans-30" x="63.623047"/>
      </g>
     </g>
    </g>
    <g id="text_49">
     <!-- Model timesteps -->
     <g transform="translate(842.246467 284.596563)scale(0.1 -0.1)">
      <use xlink:href="#DejaVuSans-4d"/>
      <use xlink:href="#DejaVuSans-6f" x="86.279297"/>
      <use xlink:href="#DejaVuSans-64" x="147.460938"/>
      <use xlink:href="#DejaVuSans-65" x="210.9375"/>
      <use xlink:href="#DejaVuSans-6c" x="272.460938"/>
      <use xlink:href="#DejaVuSans-20" x="300.244141"/>
      <use xlink:href="#DejaVuSans-74" x="332.03125"/>
      <use xlink:href="#DejaVuSans-69" x="371.240234"/>
      <use xlink:href="#DejaVuSans-6d" x="399.023438"/>
      <use xlink:href="#DejaVuSans-65" x="496.435547"/>
      <use xlink:href="#DejaVuSans-73" x="557.958984"/>
      <use xlink:href="#DejaVuSans-74" x="610.058594"/>
      <use xlink:href="#DejaVuSans-65" x="649.267578"/>
      <use xlink:href="#DejaVuSans-70" x="710.791016"/>
      <use xlink:href="#DejaVuSans-73" x="774.267578"/>
     </g>
    </g>
   </g>
   <g id="matplotlib.axis_6">
    <g id="ytick_15">
     <g id="line2d_52">
      <g>
       <use xlink:href="#m73ca944204" x="762.26087" y="245.45863" style="stroke: #000000; stroke-width: 0.8"/>
      </g>
     </g>
     <g id="text_50">
      <!-- 0.0 -->
      <g transform="translate(739.357745 249.257849)scale(0.1 -0.1)">
       <use xlink:href="#DejaVuSans-30"/>
       <use xlink:href="#DejaVuSans-2e" x="63.623047"/>
       <use xlink:href="#DejaVuSans-30" x="95.410156"/>
      </g>
     </g>
    </g>
    <g id="ytick_16">
     <g id="line2d_53">
      <g>
       <use xlink:href="#m73ca944204" x="762.26087" y="218.861123" style="stroke: #000000; stroke-width: 0.8"/>
      </g>
     </g>
     <g id="text_51">
      <!-- 0.5 -->
      <g transform="translate(739.357745 222.660342)scale(0.1 -0.1)">
       <use xlink:href="#DejaVuSans-30"/>
       <use xlink:href="#DejaVuSans-2e" x="63.623047"/>
       <use xlink:href="#DejaVuSans-35" x="95.410156"/>
      </g>
     </g>
    </g>
    <g id="ytick_17">
     <g id="line2d_54">
      <g>
       <use xlink:href="#m73ca944204" x="762.26087" y="192.263616" style="stroke: #000000; stroke-width: 0.8"/>
      </g>
     </g>
     <g id="text_52">
      <!-- 1.0 -->
      <g transform="translate(739.357745 196.062834)scale(0.1 -0.1)">
       <use xlink:href="#DejaVuSans-31"/>
       <use xlink:href="#DejaVuSans-2e" x="63.623047"/>
       <use xlink:href="#DejaVuSans-30" x="95.410156"/>
      </g>
     </g>
    </g>
    <g id="ytick_18">
     <g id="line2d_55">
      <g>
       <use xlink:href="#m73ca944204" x="762.26087" y="165.666108" style="stroke: #000000; stroke-width: 0.8"/>
      </g>
     </g>
     <g id="text_53">
      <!-- 1.5 -->
      <g transform="translate(739.357745 169.465327)scale(0.1 -0.1)">
       <use xlink:href="#DejaVuSans-31"/>
       <use xlink:href="#DejaVuSans-2e" x="63.623047"/>
       <use xlink:href="#DejaVuSans-35" x="95.410156"/>
      </g>
     </g>
    </g>
    <g id="ytick_19">
     <g id="line2d_56">
      <g>
       <use xlink:href="#m73ca944204" x="762.26087" y="139.068601" style="stroke: #000000; stroke-width: 0.8"/>
      </g>
     </g>
     <g id="text_54">
      <!-- 2.0 -->
      <g transform="translate(739.357745 142.86782)scale(0.1 -0.1)">
       <use xlink:href="#DejaVuSans-32"/>
       <use xlink:href="#DejaVuSans-2e" x="63.623047"/>
       <use xlink:href="#DejaVuSans-30" x="95.410156"/>
      </g>
     </g>
    </g>
    <g id="ytick_20">
     <g id="line2d_57">
      <g>
       <use xlink:href="#m73ca944204" x="762.26087" y="112.471094" style="stroke: #000000; stroke-width: 0.8"/>
      </g>
     </g>
     <g id="text_55">
      <!-- 2.5 -->
      <g transform="translate(739.357745 116.270312)scale(0.1 -0.1)">
       <use xlink:href="#DejaVuSans-32"/>
       <use xlink:href="#DejaVuSans-2e" x="63.623047"/>
       <use xlink:href="#DejaVuSans-35" x="95.410156"/>
      </g>
     </g>
    </g>
    <g id="ytick_21">
     <g id="line2d_58">
      <g>
       <use xlink:href="#m73ca944204" x="762.26087" y="85.873586" style="stroke: #000000; stroke-width: 0.8"/>
      </g>
     </g>
     <g id="text_56">
      <!-- 3.0 -->
      <g transform="translate(739.357745 89.672805)scale(0.1 -0.1)">
       <use xlink:href="#DejaVuSans-33"/>
       <use xlink:href="#DejaVuSans-2e" x="63.623047"/>
       <use xlink:href="#DejaVuSans-30" x="95.410156"/>
      </g>
     </g>
    </g>
    <g id="ytick_22">
     <g id="line2d_59">
      <g>
       <use xlink:href="#m73ca944204" x="762.26087" y="59.276079" style="stroke: #000000; stroke-width: 0.8"/>
      </g>
     </g>
     <g id="text_57">
      <!-- 3.5 -->
      <g transform="translate(739.357745 63.075298)scale(0.1 -0.1)">
       <use xlink:href="#DejaVuSans-33"/>
       <use xlink:href="#DejaVuSans-2e" x="63.623047"/>
       <use xlink:href="#DejaVuSans-35" x="95.410156"/>
      </g>
     </g>
    </g>
   </g>
   <g id="line2d_60">
    <path d="M 773.288538 244.0907 
L 777.02673 243.553917 
L 780.764923 243.553917 
L 784.503115 243.553917 
L 788.241308 243.553917 
L 791.9795 243.553917 
L 795.717693 243.553917 
L 799.455885 243.553917 
L 803.194078 243.553917 
L 806.93227 243.553917 
L 810.670463 243.553917 
L 814.408655 243.553917 
L 818.146848 243.553917 
L 821.885041 243.553917 
L 825.623233 243.553917 
L 829.361426 243.553917 
L 833.099618 243.553917 
L 836.837811 243.553917 
L 840.576003 243.553917 
L 844.314196 243.553917 
L 848.052388 243.553917 
L 851.790581 244.0907 
L 855.528773 244.0907 
L 859.266966 244.0907 
L 863.005158 244.0907 
L 866.743351 244.0907 
L 870.481544 244.0907 
L 874.219736 244.0907 
L 877.957929 244.0907 
L 881.696121 244.0907 
L 885.434314 244.0907 
L 889.172506 244.0907 
L 892.910699 244.0907 
L 896.648891 244.0907 
L 900.387084 244.0907 
L 904.125276 244.0907 
L 907.863469 244.0907 
L 911.601661 244.0907 
L 915.339854 244.0907 
L 919.078046 244.0907 
L 922.816239 243.506352 
L 926.554432 243.506352 
L 930.292624 243.506352 
L 934.030817 243.506352 
L 937.769009 243.506352 
L 941.507202 243.506352 
L 945.245394 243.506352 
L 948.983587 243.506352 
L 952.721779 243.506352 
L 956.459972 243.506352 
L 960.198164 243.506352 
L 963.936357 243.506352 
L 967.674549 243.506352 
L 971.412742 243.506352 
L 975.150935 243.506352 
L 978.889127 244.0907 
L 982.62732 244.0907 
L 986.365512 244.0907 
L 990.103705 244.0907 
L 993.841897 244.0907 
" clip-path="url(#pe1cc0288c6)" style="fill: none; stroke: #0d0887; stroke-width: 3; stroke-linecap: square"/>
   </g>
   <g id="line2d_61">
    <path d="M 773.288538 245.45863 
L 777.02673 132.311929 
L 780.764923 120.836196 
L 784.503115 159.746328 
L 788.241308 181.955977 
L 791.9795 194.602641 
L 795.717693 202.37238 
L 799.455885 207.525582 
L 803.194078 211.16078 
L 806.93227 213.846937 
L 810.670463 215.901775 
L 814.408655 217.515573 
L 818.146848 218.809203 
L 821.885041 219.863199 
L 825.623233 220.733351 
L 829.361426 221.45955 
L 833.099618 222.071111 
L 836.837811 222.590046 
L 840.576003 223.033228 
L 844.314196 223.413793 
L 848.052388 223.742132 
L 851.790581 224.026564 
L 855.528773 208.399548 
L 859.266966 215.261151 
L 863.005158 220.369572 
L 866.743351 223.436615 
L 870.481544 225.327585 
L 874.219736 226.564965 
L 877.957929 227.418341 
L 881.696121 228.029863 
L 885.434314 228.47958 
L 889.172506 228.815884 
L 892.910699 229.069869 
L 896.648891 229.262525 
L 900.387084 229.408588 
L 904.125276 229.518721 
L 907.863469 229.600846 
L 911.601661 229.660961 
L 915.339854 229.70369 
L 919.078046 229.732656 
L 922.816239 229.750719 
L 926.554432 199.962611 
L 930.292624 203.559105 
L 934.030817 209.584263 
L 937.769009 214.036733 
L 941.507202 217.098535 
L 945.245394 219.250134 
L 948.983587 220.818709 
L 952.721779 222.00111 
L 956.459972 222.916602 
L 960.198164 223.640355 
L 963.936357 224.221882 
L 967.674549 224.695151 
L 971.412742 225.084257 
L 975.150935 225.406809 
L 978.889127 225.675983 
L 982.62732 218.361717 
L 986.365512 219.555569 
L 990.103705 222.11765 
L 993.841897 224.117285 
" clip-path="url(#pe1cc0288c6)" style="fill: none; stroke: #7e03a8; stroke-width: 3; stroke-linecap: square"/>
   </g>
   <g id="line2d_62">
    <path d="M 773.288538 245.122309 
L 777.02673 160.476077 
L 780.764923 44.64 
L 784.503115 105.423151 
L 788.241308 142.818146 
L 791.9795 164.588271 
L 795.717693 178.002488 
L 799.455885 186.836735 
L 803.194078 193.000061 
L 806.93227 197.504315 
L 810.670463 200.916853 
L 814.408655 203.575238 
L 818.146848 205.692129 
L 821.885041 207.407519 
L 825.623233 208.817395 
L 829.361426 209.989557 
L 833.099618 210.973587 
L 836.837811 211.806389 
L 840.576003 212.516045 
L 844.314196 213.124338 
L 848.052388 213.648377 
L 851.790581 214.101763 
L 855.528773 173.766073 
L 859.266966 188.520589 
L 863.005158 201.390487 
L 866.743351 209.60661 
L 870.481544 214.855631 
L 874.219736 218.389609 
L 877.957929 220.888622 
L 881.696121 222.716683 
L 885.434314 224.10544 
L 889.172506 225.188766 
L 892.910699 226.052822 
L 896.648891 226.756744 
L 900.387084 227.337538 
L 904.125276 227.821763 
L 907.863469 228.228601 
L 911.601661 228.573132 
L 915.339854 228.866001 
L 919.078046 229.116801 
L 922.816239 229.332868 
L 926.554432 131.50285 
L 930.292624 146.611092 
L 934.030817 165.691258 
L 937.769009 179.145235 
L 941.507202 188.158904 
L 945.245394 194.385041 
L 948.983587 198.864079 
L 952.721779 202.207173 
L 956.459972 204.782381 
L 960.198164 206.812279 
L 963.936357 208.444486 
L 967.674549 209.777131 
L 971.412742 210.87821 
L 975.150935 211.796867 
L 978.889127 212.57091 
L 982.62732 207.695098 
L 986.365512 206.80765 
L 990.103705 211.267397 
L 993.841897 215.466337 
" clip-path="url(#pe1cc0288c6)" style="fill: none; stroke: #cc4778; stroke-width: 3; stroke-linecap: square"/>
   </g>
   <g id="line2d_63">
    <path d="M 773.288538 244.483199 
L 777.02673 163.18355 
L 780.764923 96.620242 
L 784.503115 143.79125 
L 788.241308 171.554499 
L 791.9795 187.50763 
L 795.717693 197.253331 
L 799.455885 203.642253 
L 803.194078 208.07965 
L 806.93227 211.314656 
L 810.670463 213.756709 
L 814.408655 215.653363 
L 818.146848 217.161444 
L 821.885041 218.381936 
L 825.623233 219.382949 
L 829.361426 220.213674 
L 833.099618 220.910628 
L 836.837811 221.499585 
L 840.576003 222.001164 
L 844.314196 222.430853 
L 848.052388 222.80094 
L 851.790581 223.121089 
L 855.528773 170.592213 
L 859.266966 186.573823 
L 863.005158 200.360895 
L 866.743351 209.120248 
L 870.481544 214.717463 
L 874.219736 218.457398 
L 877.957929 221.111427 
L 881.696121 223.078057 
L 885.434314 224.584734 
L 889.172506 225.760521 
L 892.910699 226.703011 
L 896.648891 227.473718 
L 900.387084 228.112375 
L 904.125276 228.646735 
L 907.863469 229.098013 
L 911.601661 229.482978 
L 915.339854 229.812836 
L 919.078046 230.096275 
L 922.816239 230.341634 
L 926.554432 169.451108 
L 930.292624 182.979843 
L 934.030817 196.055632 
L 937.769009 204.610762 
L 941.507202 210.271835 
L 945.245394 214.206925 
L 948.983587 216.991017 
L 952.721779 219.051999 
L 956.459972 220.608543 
L 960.198164 221.824093 
L 963.936357 222.796246 
L 967.674549 223.585304 
L 971.412742 224.240239 
L 975.150935 224.791833 
L 978.889127 225.253894 
L 982.62732 210.742702 
L 986.365512 207.054487 
L 990.103705 211.068523 
L 993.841897 215.232415 
" clip-path="url(#pe1cc0288c6)" style="fill: none; stroke: #f89540; stroke-width: 3; stroke-linecap: square"/>
   </g>
   <g id="line2d_64">
    <path d="M 773.288538 245.350894 
L 777.02673 241.6813 
L 780.764923 234.96844 
L 784.503115 240.639735 
L 788.241308 244.102045 
L 791.9795 244.62663 
L 795.717693 244.359163 
L 799.455885 242.577273 
L 803.194078 243.620654 
L 806.93227 246.24 
L 810.670463 243.543439 
L 814.408655 242.692342 
L 818.146848 243.776333 
L 821.885041 245.340552 
L 825.623233 244.390253 
L 829.361426 245.413036 
L 833.099618 243.974632 
L 836.837811 243.934512 
L 840.576003 245.859365 
L 844.314196 244.373413 
L 848.052388 244.798647 
L 851.790581 244.682027 
L 855.528773 243.070528 
L 859.266966 238.160705 
L 863.005158 242.545724 
L 866.743351 246.045979 
L 870.481544 243.976709 
L 874.219736 242.909148 
L 877.957929 245.243064 
L 881.696121 243.923868 
L 885.434314 243.488558 
L 889.172506 244.242495 
L 892.910699 244.228321 
L 896.648891 245.017588 
L 900.387084 244.396672 
L 904.125276 244.579056 
L 907.863469 245.042352 
L 911.601661 244.801375 
L 915.339854 244.652208 
L 919.078046 245.637855 
L 922.816239 244.713462 
L 926.554432 245.761777 
L 930.292624 240.728728 
L 934.030817 241.277433 
L 937.769009 243.83802 
L 941.507202 245.080094 
L 945.245394 243.631371 
L 948.983587 243.671536 
L 952.721779 244.985494 
L 956.459972 244.849356 
L 960.198164 245.510291 
L 963.936357 244.842342 
L 967.674549 243.896586 
L 971.412742 244.472385 
L 975.150935 245.441204 
L 978.889127 245.883007 
L 982.62732 243.985703 
L 986.365512 243.134525 
L 990.103705 243.890239 
L 993.841897 243.907148 
" clip-path="url(#pe1cc0288c6)" style="fill: none; stroke: #f0f921; stroke-width: 3; stroke-linecap: square"/>
   </g>
   <g id="patch_41">
    <path d="M 762.26087 256.32 
L 762.26087 34.56 
" style="fill: none; stroke: #000000; stroke-width: 0.8; stroke-linejoin: miter; stroke-linecap: square"/>
   </g>
   <g id="patch_42">
    <path d="M 1004.869565 256.32 
L 1004.869565 34.56 
" style="fill: none; stroke: #000000; stroke-width: 0.8; stroke-linejoin: miter; stroke-linecap: square"/>
   </g>
   <g id="patch_43">
    <path d="M 762.26087 256.32 
L 1004.869565 256.32 
" style="fill: none; stroke: #000000; stroke-width: 0.8; stroke-linejoin: miter; stroke-linecap: square"/>
   </g>
   <g id="patch_44">
    <path d="M 762.26087 34.56 
L 1004.869565 34.56 
" style="fill: none; stroke: #000000; stroke-width: 0.8; stroke-linejoin: miter; stroke-linecap: square"/>
   </g>
   <g id="text_58">
    <!-- Feedforward with div. norm. -->
    <g transform="translate(799.742405 28.56)scale(0.12 -0.12)">
     <use xlink:href="#DejaVuSans-46"/>
     <use xlink:href="#DejaVuSans-65" x="52.019531"/>
     <use xlink:href="#DejaVuSans-65" x="113.542969"/>
     <use xlink:href="#DejaVuSans-64" x="175.066406"/>
     <use xlink:href="#DejaVuSans-66" x="238.542969"/>
     <use xlink:href="#DejaVuSans-6f" x="273.748047"/>
     <use xlink:href="#DejaVuSans-72" x="334.929688"/>
     <use xlink:href="#DejaVuSans-77" x="376.042969"/>
     <use xlink:href="#DejaVuSans-61" x="457.830078"/>
     <use xlink:href="#DejaVuSans-72" x="519.109375"/>
     <use xlink:href="#DejaVuSans-64" x="558.472656"/>
     <use xlink:href="#DejaVuSans-20" x="621.949219"/>
     <use xlink:href="#DejaVuSans-77" x="653.736328"/>
     <use xlink:href="#DejaVuSans-69" x="735.523438"/>
     <use xlink:href="#DejaVuSans-74" x="763.306641"/>
     <use xlink:href="#DejaVuSans-68" x="802.515625"/>
     <use xlink:href="#DejaVuSans-20" x="865.894531"/>
     <use xlink:href="#DejaVuSans-64" x="897.681641"/>
     <use xlink:href="#DejaVuSans-69" x="961.158203"/>
     <use xlink:href="#DejaVuSans-76" x="988.941406"/>
     <use xlink:href="#DejaVuSans-2e" x="1040.371094"/>
     <use xlink:href="#DejaVuSans-20" x="1072.158203"/>
     <use xlink:href="#DejaVuSans-6e" x="1103.945312"/>
     <use xlink:href="#DejaVuSans-6f" x="1167.324219"/>
     <use xlink:href="#DejaVuSans-72" x="1228.505859"/>
     <use xlink:href="#DejaVuSans-6d" x="1267.869141"/>
     <use xlink:href="#DejaVuSans-2e" x="1365.28125"/>
    </g>
   </g>
   <g id="legend_3">
    <g id="patch_45">
     <path d="M 930.424253 115.950625 
L 997.869565 115.950625 
Q 999.869565 115.950625 999.869565 113.950625 
L 999.869565 41.56 
Q 999.869565 39.56 997.869565 39.56 
L 930.424253 39.56 
Q 928.424253 39.56 928.424253 41.56 
L 928.424253 113.950625 
Q 928.424253 115.950625 930.424253 115.950625 
z
" style="fill: #ffffff; opacity: 0.8; stroke: #cccccc; stroke-linejoin: miter"/>
    </g>
    <g id="line2d_65">
     <path d="M 932.424253 47.658437 
L 942.424253 47.658437 
L 952.424253 47.658437 
" style="fill: none; stroke: #0d0887; stroke-width: 3; stroke-linecap: square"/>
    </g>
    <g id="text_59">
     <!-- conv1 -->
     <g transform="translate(960.424253 51.158437)scale(0.1 -0.1)">
      <use xlink:href="#DejaVuSans-63"/>
      <use xlink:href="#DejaVuSans-6f" x="54.980469"/>
      <use xlink:href="#DejaVuSans-6e" x="116.162109"/>
      <use xlink:href="#DejaVuSans-76" x="179.541016"/>
      <use xlink:href="#DejaVuSans-31" x="238.720703"/>
     </g>
    </g>
    <g id="line2d_66">
     <path d="M 932.424253 62.336562 
L 942.424253 62.336562 
L 952.424253 62.336562 
" style="fill: none; stroke: #7e03a8; stroke-width: 3; stroke-linecap: square"/>
    </g>
    <g id="text_60">
     <!-- sconv1 -->
     <g transform="translate(960.424253 65.836562)scale(0.1 -0.1)">
      <use xlink:href="#DejaVuSans-73"/>
      <use xlink:href="#DejaVuSans-63" x="52.099609"/>
      <use xlink:href="#DejaVuSans-6f" x="107.080078"/>
      <use xlink:href="#DejaVuSans-6e" x="168.261719"/>
      <use xlink:href="#DejaVuSans-76" x="231.640625"/>
      <use xlink:href="#DejaVuSans-31" x="290.820312"/>
     </g>
    </g>
    <g id="line2d_67">
     <path d="M 932.424253 77.014687 
L 942.424253 77.014687 
L 952.424253 77.014687 
" style="fill: none; stroke: #cc4778; stroke-width: 3; stroke-linecap: square"/>
    </g>
    <g id="text_61">
     <!-- conv2 -->
     <g transform="translate(960.424253 80.514687)scale(0.1 -0.1)">
      <use xlink:href="#DejaVuSans-63"/>
      <use xlink:href="#DejaVuSans-6f" x="54.980469"/>
      <use xlink:href="#DejaVuSans-6e" x="116.162109"/>
      <use xlink:href="#DejaVuSans-76" x="179.541016"/>
      <use xlink:href="#DejaVuSans-32" x="238.720703"/>
     </g>
    </g>
    <g id="line2d_68">
     <path d="M 932.424253 91.692813 
L 942.424253 91.692813 
L 952.424253 91.692813 
" style="fill: none; stroke: #f89540; stroke-width: 3; stroke-linecap: square"/>
    </g>
    <g id="text_62">
     <!-- conv3 -->
     <g transform="translate(960.424253 95.192813)scale(0.1 -0.1)">
      <use xlink:href="#DejaVuSans-63"/>
      <use xlink:href="#DejaVuSans-6f" x="54.980469"/>
      <use xlink:href="#DejaVuSans-6e" x="116.162109"/>
      <use xlink:href="#DejaVuSans-76" x="179.541016"/>
      <use xlink:href="#DejaVuSans-33" x="238.720703"/>
     </g>
    </g>
    <g id="line2d_69">
     <path d="M 932.424253 106.370937 
L 942.424253 106.370937 
L 952.424253 106.370937 
" style="fill: none; stroke: #f0f921; stroke-width: 3; stroke-linecap: square"/>
    </g>
    <g id="text_63">
     <!-- fc1 -->
     <g transform="translate(960.424253 109.870937)scale(0.1 -0.1)">
      <use xlink:href="#DejaVuSans-66"/>
      <use xlink:href="#DejaVuSans-63" x="35.205078"/>
      <use xlink:href="#DejaVuSans-31" x="90.185547"/>
     </g>
    </g>
   </g>
  </g>
  <g id="axes_4">
   <g id="patch_46">
    <path d="M 1053.391304 256.32 
L 1296 256.32 
L 1296 34.56 
L 1053.391304 34.56 
z
" style="fill: #ffffff"/>
   </g>
   <g id="patch_47">
    <path d="M 1223.70751 256.32 
L 1223.70751 34.56 
L 1248.213439 34.56 
L 1248.213439 256.32 
z
" clip-path="url(#pa61586a9fb)" style="fill: #808080; opacity: 0.2; stroke: #808080; stroke-linejoin: miter"/>
   </g>
   <g id="PathCollection_1">
    <defs>
     <path id="m74e53be227" d="M 0 5 
C 1.326016 5 2.597899 4.473168 3.535534 3.535534 
C 4.473168 2.597899 5 1.326016 5 0 
C 5 -1.326016 4.473168 -2.597899 3.535534 -3.535534 
C 2.597899 -4.473168 1.326016 -5 0 -5 
C -1.326016 -5 -2.597899 -4.473168 -3.535534 -3.535534 
C -4.473168 -2.597899 -5 -1.326016 -5 0 
C -5 1.326016 -4.473168 2.597899 -3.535534 3.535534 
C -2.597899 4.473168 -1.326016 5 0 5 
z
" style="stroke: #000000"/>
    </defs>
    <g clip-path="url(#pa61586a9fb)">
     <use xlink:href="#m74e53be227" x="1064.418972" y="77.385565" style="fill: #ffffff; stroke: #000000"/>
     <use xlink:href="#m74e53be227" x="1088.924901" y="194.716411" style="fill: #ffffff; stroke: #000000"/>
     <use xlink:href="#m74e53be227" x="1113.43083" y="44.64" style="fill: #ffffff; stroke: #000000"/>
     <use xlink:href="#m74e53be227" x="1137.936759" y="139.620932" style="fill: #ffffff; stroke: #000000"/>
     <use xlink:href="#m74e53be227" x="1162.442688" y="65.018639" style="fill: #ffffff; stroke: #000000"/>
     <use xlink:href="#m74e53be227" x="1186.948617" y="186.160951" style="fill: #ffffff; stroke: #000000"/>
     <use xlink:href="#m74e53be227" x="1211.454545" y="53.37805" style="fill: #ffffff; stroke: #000000"/>
     <use xlink:href="#m74e53be227" x="1235.960474" y="240.061753" style="fill: #ffffff; stroke: #000000"/>
     <use xlink:href="#m74e53be227" x="1260.466403" y="54.660389" style="fill: #ffffff; stroke: #000000"/>
     <use xlink:href="#m74e53be227" x="1284.972332" y="222.508215" style="fill: #ffffff; stroke: #000000"/>
    </g>
   </g>
   <g id="PathCollection_2">
    <defs>
     <path id="mcc942da605" d="M -0 5 
L 5 -5 
L -5 -5 
z
" style="stroke: #000000"/>
    </defs>
    <g clip-path="url(#pa61586a9fb)">
     <use xlink:href="#mcc942da605" x="1064.418972" y="98.813118" style="fill: #d3d3d3; stroke: #000000"/>
     <use xlink:href="#mcc942da605" x="1088.924901" y="243.618651" style="fill: #d3d3d3; stroke: #000000"/>
     <use xlink:href="#mcc942da605" x="1113.43083" y="53.681914" style="fill: #d3d3d3; stroke: #000000"/>
     <use xlink:href="#mcc942da605" x="1137.936759" y="150.987798" style="fill: #d3d3d3; stroke: #000000"/>
     <use xlink:href="#mcc942da605" x="1162.442688" y="63.306244" style="fill: #d3d3d3; stroke: #000000"/>
     <use xlink:href="#mcc942da605" x="1186.948617" y="199.158351" style="fill: #d3d3d3; stroke: #000000"/>
     <use xlink:href="#mcc942da605" x="1211.454545" y="66.930513" style="fill: #d3d3d3; stroke: #000000"/>
     <use xlink:href="#mcc942da605" x="1235.960474" y="246.24" style="fill: #d3d3d3; stroke: #000000"/>
     <use xlink:href="#mcc942da605" x="1260.466403" y="61.630095" style="fill: #d3d3d3; stroke: #000000"/>
     <use xlink:href="#mcc942da605" x="1284.972332" y="190.296545" style="fill: #d3d3d3; stroke: #000000"/>
    </g>
   </g>
   <g id="PathCollection_3">
    <defs>
     <path id="mc61ae7f9a7" d="M -5 5 
L 5 5 
L 5 -5 
L -5 -5 
z
" style="stroke: #000000"/>
    </defs>
    <g clip-path="url(#pa61586a9fb)">
     <use xlink:href="#mc61ae7f9a7" x="1064.418972" y="104.608252" style="stroke: #000000"/>
     <use xlink:href="#mc61ae7f9a7" x="1088.924901" y="171.242816" style="stroke: #000000"/>
     <use xlink:href="#mc61ae7f9a7" x="1113.43083" y="121.706022" style="stroke: #000000"/>
     <use xlink:href="#mc61ae7f9a7" x="1137.936759" y="107.406273" style="stroke: #000000"/>
     <use xlink:href="#mc61ae7f9a7" x="1162.442688" y="151.460448" style="stroke: #000000"/>
     <use xlink:href="#mc61ae7f9a7" x="1186.948617" y="97.441178" style="stroke: #000000"/>
     <use xlink:href="#mc61ae7f9a7" x="1211.454545" y="92.291646" style="stroke: #000000"/>
     <use xlink:href="#mc61ae7f9a7" x="1235.960474" y="151.977208" style="stroke: #000000"/>
     <use xlink:href="#mc61ae7f9a7" x="1260.466403" y="166.996439" style="stroke: #000000"/>
     <use xlink:href="#mc61ae7f9a7" x="1284.972332" y="191.343634" style="stroke: #000000"/>
    </g>
   </g>
   <g id="matplotlib.axis_7">
    <g id="xtick_22">
     <g id="line2d_70">
      <g>
       <use xlink:href="#m3af63f72fc" x="1088.924901" y="256.32" style="stroke: #000000; stroke-width: 0.8"/>
      </g>
     </g>
     <g id="text_64">
      <!-- 2 -->
      <g transform="translate(1085.743651 270.918437)scale(0.1 -0.1)">
       <use xlink:href="#DejaVuSans-32"/>
      </g>
     </g>
    </g>
    <g id="xtick_23">
     <g id="line2d_71">
      <g>
       <use xlink:href="#m3af63f72fc" x="1137.936759" y="256.32" style="stroke: #000000; stroke-width: 0.8"/>
      </g>
     </g>
     <g id="text_65">
      <!-- 4 -->
      <g transform="translate(1134.755509 270.918437)scale(0.1 -0.1)">
       <use xlink:href="#DejaVuSans-34"/>
      </g>
     </g>
    </g>
    <g id="xtick_24">
     <g id="line2d_72">
      <g>
       <use xlink:href="#m3af63f72fc" x="1186.948617" y="256.32" style="stroke: #000000; stroke-width: 0.8"/>
      </g>
     </g>
     <g id="text_66">
      <!-- 6 -->
      <g transform="translate(1183.767367 270.918437)scale(0.1 -0.1)">
       <use xlink:href="#DejaVuSans-36"/>
      </g>
     </g>
    </g>
    <g id="xtick_25">
     <g id="line2d_73">
      <g>
       <use xlink:href="#m3af63f72fc" x="1235.960474" y="256.32" style="stroke: #000000; stroke-width: 0.8"/>
      </g>
     </g>
     <g id="text_67">
      <!-- 8 -->
      <g transform="translate(1232.779224 270.918437)scale(0.1 -0.1)">
       <defs>
        <path id="DejaVuSans-38" d="M 2034 2216 
Q 1584 2216 1326 1975 
Q 1069 1734 1069 1313 
Q 1069 891 1326 650 
Q 1584 409 2034 409 
Q 2484 409 2743 651 
Q 3003 894 3003 1313 
Q 3003 1734 2745 1975 
Q 2488 2216 2034 2216 
z
M 1403 2484 
Q 997 2584 770 2862 
Q 544 3141 544 3541 
Q 544 4100 942 4425 
Q 1341 4750 2034 4750 
Q 2731 4750 3128 4425 
Q 3525 4100 3525 3541 
Q 3525 3141 3298 2862 
Q 3072 2584 2669 2484 
Q 3125 2378 3379 2068 
Q 3634 1759 3634 1313 
Q 3634 634 3220 271 
Q 2806 -91 2034 -91 
Q 1263 -91 848 271 
Q 434 634 434 1313 
Q 434 1759 690 2068 
Q 947 2378 1403 2484 
z
M 1172 3481 
Q 1172 3119 1398 2916 
Q 1625 2713 2034 2713 
Q 2441 2713 2670 2916 
Q 2900 3119 2900 3481 
Q 2900 3844 2670 4047 
Q 2441 4250 2034 4250 
Q 1625 4250 1398 4047 
Q 1172 3844 1172 3481 
z
" transform="scale(0.015625)"/>
       </defs>
       <use xlink:href="#DejaVuSans-38"/>
      </g>
     </g>
    </g>
    <g id="xtick_26">
     <g id="line2d_74">
      <g>
       <use xlink:href="#m3af63f72fc" x="1284.972332" y="256.32" style="stroke: #000000; stroke-width: 0.8"/>
      </g>
     </g>
     <g id="text_68">
      <!-- 10 -->
      <g transform="translate(1278.609832 270.918437)scale(0.1 -0.1)">
       <use xlink:href="#DejaVuSans-31"/>
       <use xlink:href="#DejaVuSans-30" x="63.623047"/>
      </g>
     </g>
    </g>
    <g id="text_69">
     <!-- Classes -->
     <g transform="translate(1155.860496 284.596563)scale(0.1 -0.1)">
      <defs>
       <path id="DejaVuSans-43" d="M 4122 4306 
L 4122 3641 
Q 3803 3938 3442 4084 
Q 3081 4231 2675 4231 
Q 1875 4231 1450 3742 
Q 1025 3253 1025 2328 
Q 1025 1406 1450 917 
Q 1875 428 2675 428 
Q 3081 428 3442 575 
Q 3803 722 4122 1019 
L 4122 359 
Q 3791 134 3420 21 
Q 3050 -91 2638 -91 
Q 1578 -91 968 557 
Q 359 1206 359 2328 
Q 359 3453 968 4101 
Q 1578 4750 2638 4750 
Q 3056 4750 3426 4639 
Q 3797 4528 4122 4306 
z
" transform="scale(0.015625)"/>
      </defs>
      <use xlink:href="#DejaVuSans-43"/>
      <use xlink:href="#DejaVuSans-6c" x="69.824219"/>
      <use xlink:href="#DejaVuSans-61" x="97.607422"/>
      <use xlink:href="#DejaVuSans-73" x="158.886719"/>
      <use xlink:href="#DejaVuSans-73" x="210.986328"/>
      <use xlink:href="#DejaVuSans-65" x="263.085938"/>
      <use xlink:href="#DejaVuSans-73" x="324.609375"/>
     </g>
    </g>
   </g>
   <g id="matplotlib.axis_8">
    <g id="ytick_23">
     <g id="line2d_75">
      <g>
       <use xlink:href="#m73ca944204" x="1053.391304" y="240.181703" style="stroke: #000000; stroke-width: 0.8"/>
      </g>
     </g>
     <g id="text_70">
      <!-- −4 -->
      <g transform="translate(1031.649117 243.980922)scale(0.1 -0.1)">
       <defs>
        <path id="DejaVuSans-2212" d="M 678 2272 
L 4684 2272 
L 4684 1741 
L 678 1741 
L 678 2272 
z
" transform="scale(0.015625)"/>
       </defs>
       <use xlink:href="#DejaVuSans-2212"/>
       <use xlink:href="#DejaVuSans-34" x="83.789062"/>
      </g>
     </g>
    </g>
    <g id="ytick_24">
     <g id="line2d_76">
      <g>
       <use xlink:href="#m73ca944204" x="1053.391304" y="212.853647" style="stroke: #000000; stroke-width: 0.8"/>
      </g>
     </g>
     <g id="text_71">
      <!-- −3 -->
      <g transform="translate(1031.649117 216.652866)scale(0.1 -0.1)">
       <use xlink:href="#DejaVuSans-2212"/>
       <use xlink:href="#DejaVuSans-33" x="83.789062"/>
      </g>
     </g>
    </g>
    <g id="ytick_25">
     <g id="line2d_77">
      <g>
       <use xlink:href="#m73ca944204" x="1053.391304" y="185.525591" style="stroke: #000000; stroke-width: 0.8"/>
      </g>
     </g>
     <g id="text_72">
      <!-- −2 -->
      <g transform="translate(1031.649117 189.324809)scale(0.1 -0.1)">
       <use xlink:href="#DejaVuSans-2212"/>
       <use xlink:href="#DejaVuSans-32" x="83.789062"/>
      </g>
     </g>
    </g>
    <g id="ytick_26">
     <g id="line2d_78">
      <g>
       <use xlink:href="#m73ca944204" x="1053.391304" y="158.197534" style="stroke: #000000; stroke-width: 0.8"/>
      </g>
     </g>
     <g id="text_73">
      <!-- −1 -->
      <g transform="translate(1031.649117 161.996753)scale(0.1 -0.1)">
       <use xlink:href="#DejaVuSans-2212"/>
       <use xlink:href="#DejaVuSans-31" x="83.789062"/>
      </g>
     </g>
    </g>
    <g id="ytick_27">
     <g id="line2d_79">
      <g>
       <use xlink:href="#m73ca944204" x="1053.391304" y="130.869478" style="stroke: #000000; stroke-width: 0.8"/>
      </g>
     </g>
     <g id="text_74">
      <!-- 0 -->
      <g transform="translate(1040.028804 134.668697)scale(0.1 -0.1)">
       <use xlink:href="#DejaVuSans-30"/>
      </g>
     </g>
    </g>
    <g id="ytick_28">
     <g id="line2d_80">
      <g>
       <use xlink:href="#m73ca944204" x="1053.391304" y="103.541421" style="stroke: #000000; stroke-width: 0.8"/>
      </g>
     </g>
     <g id="text_75">
      <!-- 1 -->
      <g transform="translate(1040.028804 107.34064)scale(0.1 -0.1)">
       <use xlink:href="#DejaVuSans-31"/>
      </g>
     </g>
    </g>
    <g id="ytick_29">
     <g id="line2d_81">
      <g>
       <use xlink:href="#m73ca944204" x="1053.391304" y="76.213365" style="stroke: #000000; stroke-width: 0.8"/>
      </g>
     </g>
     <g id="text_76">
      <!-- 2 -->
      <g transform="translate(1040.028804 80.012584)scale(0.1 -0.1)">
       <use xlink:href="#DejaVuSans-32"/>
      </g>
     </g>
    </g>
    <g id="ytick_30">
     <g id="line2d_82">
      <g>
       <use xlink:href="#m73ca944204" x="1053.391304" y="48.885308" style="stroke: #000000; stroke-width: 0.8"/>
      </g>
     </g>
     <g id="text_77">
      <!-- 3 -->
      <g transform="translate(1040.028804 52.684527)scale(0.1 -0.1)">
       <use xlink:href="#DejaVuSans-33"/>
      </g>
     </g>
    </g>
   </g>
   <g id="patch_48">
    <path d="M 1053.391304 256.32 
L 1053.391304 34.56 
" style="fill: none; stroke: #000000; stroke-width: 0.8; stroke-linejoin: miter; stroke-linecap: square"/>
   </g>
   <g id="patch_49">
    <path d="M 1296 256.32 
L 1296 34.56 
" style="fill: none; stroke: #000000; stroke-width: 0.8; stroke-linejoin: miter; stroke-linecap: square"/>
   </g>
   <g id="patch_50">
    <path d="M 1053.391304 256.32 
L 1296 256.32 
" style="fill: none; stroke: #000000; stroke-width: 0.8; stroke-linejoin: miter; stroke-linecap: square"/>
   </g>
   <g id="patch_51">
    <path d="M 1053.391304 34.56 
L 1296 34.56 
" style="fill: none; stroke: #000000; stroke-width: 0.8; stroke-linejoin: miter; stroke-linecap: square"/>
   </g>
   <g id="text_78">
    <!-- Decoder -->
    <g transform="translate(1149.445965 28.56)scale(0.12 -0.12)">
     <defs>
      <path id="DejaVuSans-44" d="M 1259 4147 
L 1259 519 
L 2022 519 
Q 2988 519 3436 956 
Q 3884 1394 3884 2338 
Q 3884 3275 3436 3711 
Q 2988 4147 2022 4147 
L 1259 4147 
z
M 628 4666 
L 1925 4666 
Q 3281 4666 3915 4102 
Q 4550 3538 4550 2338 
Q 4550 1131 3912 565 
Q 3275 0 1925 0 
L 628 0 
L 628 4666 
z
" transform="scale(0.015625)"/>
     </defs>
     <use xlink:href="#DejaVuSans-44"/>
     <use xlink:href="#DejaVuSans-65" x="77.001953"/>
     <use xlink:href="#DejaVuSans-63" x="138.525391"/>
     <use xlink:href="#DejaVuSans-6f" x="193.505859"/>
     <use xlink:href="#DejaVuSans-64" x="254.6875"/>
     <use xlink:href="#DejaVuSans-65" x="318.164062"/>
     <use xlink:href="#DejaVuSans-72" x="379.6875"/>
    </g>
   </g>
   <g id="legend_4">
    <g id="patch_52">
     <path d="M 1303 212.1525 
L 1404.790625 212.1525 
Q 1406.790625 212.1525 1406.790625 210.1525 
L 1406.790625 152.44 
Q 1406.790625 150.44 1404.790625 150.44 
L 1303 150.44 
Q 1301 150.44 1301 152.44 
L 1301 210.1525 
Q 1301 212.1525 1303 212.1525 
z
" style="fill: #ffffff; opacity: 0.8; stroke: #cccccc; stroke-linejoin: miter"/>
    </g>
    <g id="patch_53">
     <path d="M 1305 162.038437 
L 1325 162.038437 
L 1325 155.038437 
L 1305 155.038437 
z
" style="fill: #808080; opacity: 0.2; stroke: #808080; stroke-linejoin: miter"/>
    </g>
    <g id="text_79">
     <!-- Ground truth -->
     <g transform="translate(1333 162.038437)scale(0.1 -0.1)">
      <defs>
       <path id="DejaVuSans-47" d="M 3809 666 
L 3809 1919 
L 2778 1919 
L 2778 2438 
L 4434 2438 
L 4434 434 
Q 4069 175 3628 42 
Q 3188 -91 2688 -91 
Q 1594 -91 976 548 
Q 359 1188 359 2328 
Q 359 3472 976 4111 
Q 1594 4750 2688 4750 
Q 3144 4750 3555 4637 
Q 3966 4525 4313 4306 
L 4313 3634 
Q 3963 3931 3569 4081 
Q 3175 4231 2741 4231 
Q 1884 4231 1454 3753 
Q 1025 3275 1025 2328 
Q 1025 1384 1454 906 
Q 1884 428 2741 428 
Q 3075 428 3337 486 
Q 3600 544 3809 666 
z
" transform="scale(0.015625)"/>
      </defs>
      <use xlink:href="#DejaVuSans-47"/>
      <use xlink:href="#DejaVuSans-72" x="77.490234"/>
      <use xlink:href="#DejaVuSans-6f" x="116.353516"/>
      <use xlink:href="#DejaVuSans-75" x="177.535156"/>
      <use xlink:href="#DejaVuSans-6e" x="240.914062"/>
      <use xlink:href="#DejaVuSans-64" x="304.292969"/>
      <use xlink:href="#DejaVuSans-20" x="367.769531"/>
      <use xlink:href="#DejaVuSans-74" x="399.556641"/>
      <use xlink:href="#DejaVuSans-72" x="438.765625"/>
      <use xlink:href="#DejaVuSans-75" x="479.878906"/>
      <use xlink:href="#DejaVuSans-74" x="543.257812"/>
      <use xlink:href="#DejaVuSans-68" x="582.466797"/>
     </g>
    </g>
    <g id="PathCollection_4">
     <g>
      <use xlink:href="#m74e53be227" x="1315" y="174.091563" style="fill: #ffffff; stroke: #000000"/>
     </g>
    </g>
    <g id="text_80">
     <!-- no adaptation -->
     <g transform="translate(1333 176.716563)scale(0.1 -0.1)">
      <use xlink:href="#DejaVuSans-6e"/>
      <use xlink:href="#DejaVuSans-6f" x="63.378906"/>
      <use xlink:href="#DejaVuSans-20" x="124.560547"/>
      <use xlink:href="#DejaVuSans-61" x="156.347656"/>
      <use xlink:href="#DejaVuSans-64" x="217.626953"/>
      <use xlink:href="#DejaVuSans-61" x="281.103516"/>
      <use xlink:href="#DejaVuSans-70" x="342.382812"/>
      <use xlink:href="#DejaVuSans-74" x="405.859375"/>
      <use xlink:href="#DejaVuSans-61" x="445.068359"/>
      <use xlink:href="#DejaVuSans-74" x="506.347656"/>
      <use xlink:href="#DejaVuSans-69" x="545.556641"/>
      <use xlink:href="#DejaVuSans-6f" x="573.339844"/>
      <use xlink:href="#DejaVuSans-6e" x="634.521484"/>
     </g>
    </g>
    <g id="PathCollection_5">
     <g>
      <use xlink:href="#mcc942da605" x="1315" y="188.769688" style="fill: #d3d3d3; stroke: #000000"/>
     </g>
    </g>
    <g id="text_81">
     <!-- exp. decay -->
     <g transform="translate(1333 191.394688)scale(0.1 -0.1)">
      <use xlink:href="#DejaVuSans-65"/>
      <use xlink:href="#DejaVuSans-78" x="59.773438"/>
      <use xlink:href="#DejaVuSans-70" x="118.953125"/>
      <use xlink:href="#DejaVuSans-2e" x="182.429688"/>
      <use xlink:href="#DejaVuSans-20" x="214.216797"/>
      <use xlink:href="#DejaVuSans-64" x="246.003906"/>
      <use xlink:href="#DejaVuSans-65" x="309.480469"/>
      <use xlink:href="#DejaVuSans-63" x="371.003906"/>
      <use xlink:href="#DejaVuSans-61" x="425.984375"/>
      <use xlink:href="#DejaVuSans-79" x="487.263672"/>
     </g>
    </g>
    <g id="PathCollection_6">
     <g>
      <use xlink:href="#mc61ae7f9a7" x="1315" y="203.447812" style="stroke: #000000"/>
     </g>
    </g>
    <g id="text_82">
     <!-- div. norm. -->
     <g transform="translate(1333 206.072812)scale(0.1 -0.1)">
      <use xlink:href="#DejaVuSans-64"/>
      <use xlink:href="#DejaVuSans-69" x="63.476562"/>
      <use xlink:href="#DejaVuSans-76" x="91.259766"/>
      <use xlink:href="#DejaVuSans-2e" x="142.689453"/>
      <use xlink:href="#DejaVuSans-20" x="174.476562"/>
      <use xlink:href="#DejaVuSans-6e" x="206.263672"/>
      <use xlink:href="#DejaVuSans-6f" x="269.642578"/>
      <use xlink:href="#DejaVuSans-72" x="330.824219"/>
      <use xlink:href="#DejaVuSans-6d" x="370.1875"/>
      <use xlink:href="#DejaVuSans-2e" x="467.599609"/>
     </g>
    </g>
   </g>
  </g>
 </g>
 <defs>
  <clipPath id="p8d53ac257f">
   <rect x="180" y="34.56" width="242.608696" height="221.76"/>
  </clipPath>
  <clipPath id="p06067a83f3">
   <rect x="471.130435" y="34.56" width="242.608696" height="221.76"/>
  </clipPath>
  <clipPath id="pe1cc0288c6">
   <rect x="762.26087" y="34.56" width="242.608696" height="221.76"/>
  </clipPath>
  <clipPath id="pa61586a9fb">
   <rect x="1053.391304" y="34.56" width="242.608696" height="221.76"/>
  </clipPath>
 </defs>
</svg>
